<?xml version="1.0" encoding="UTF-8" standalone="no"?>
<!DOCTYPE svg PUBLIC "-//W3C//DTD SVG 1.1//EN"
 "http://www.w3.org/Graphics/SVG/1.1/DTD/svg11.dtd">
<!-- Generated by graphviz version 2.40.1 (20161225.0304)
 -->
<!-- Title: snakemake_dag Pages: 1 -->
<svg width="2201pt" height="1509pt"
 viewBox="0.00 0.00 2200.50 1509.00" xmlns="http://www.w3.org/2000/svg" xmlns:xlink="http://www.w3.org/1999/xlink">
<g id="graph0" class="graph" transform="scale(1 1) rotate(0) translate(4 1505)">
<title>snakemake_dag</title>
<polygon fill="#ffffff" stroke="transparent" points="-4,4 -4,-1505 2196.5,-1505 2196.5,4 -4,4"/>
<!-- 0 -->
<g id="node1" class="node">
<title>0</title>
<path fill="none" stroke="#d87d56" stroke-width="2" d="M1123.5,-36C1123.5,-36 1093.5,-36 1093.5,-36 1087.5,-36 1081.5,-30 1081.5,-24 1081.5,-24 1081.5,-12 1081.5,-12 1081.5,-6 1087.5,0 1093.5,0 1093.5,0 1123.5,0 1123.5,0 1129.5,0 1135.5,-6 1135.5,-12 1135.5,-12 1135.5,-24 1135.5,-24 1135.5,-30 1129.5,-36 1123.5,-36"/>
<text text-anchor="middle" x="1108.5" y="-15.5" font-family="sans" font-size="10.00" fill="#000000">all</text>
</g>
<!-- 1 -->
<g id="node2" class="node">
<title>1</title>
<path fill="none" stroke="#56d85b" stroke-width="2" d="M97,-781C97,-781 12,-781 12,-781 6,-781 0,-775 0,-769 0,-769 0,-752 0,-752 0,-746 6,-740 12,-740 12,-740 97,-740 97,-740 103,-740 109,-746 109,-752 109,-752 109,-769 109,-769 109,-775 103,-781 97,-781"/>
<text text-anchor="middle" x="54.5" y="-769" font-family="sans" font-size="10.00" fill="#000000">fastqc_before_trim</text>
<text text-anchor="middle" x="54.5" y="-758" font-family="sans" font-size="10.00" fill="#000000">rn: R1</text>
<text text-anchor="middle" x="54.5" y="-747" font-family="sans" font-size="10.00" fill="#000000">sample: TESTZ</text>
</g>
<!-- 1&#45;&gt;0 -->
<g id="edge1" class="edge">
<title>1&#45;&gt;0</title>
<path fill="none" stroke="#c0c0c0" stroke-width="2" d="M51.8368,-739.957C48.3015,-710.863 42.5,-655.9643 42.5,-609 42.5,-609 42.5,-609 42.5,-169.5 42.5,-122.3171 45.7826,-98.9664 84.5,-72 125.7478,-43.2712 891.4584,-23.1983 1071.036,-18.8733"/>
<polygon fill="#c0c0c0" stroke="#c0c0c0" stroke-width="2" points="1071.383,-22.3661 1081.2965,-18.628 1071.2157,-15.3681 1071.383,-22.3661"/>
</g>
<!-- 2 -->
<g id="node3" class="node">
<title>2</title>
<path fill="none" stroke="#56d0d8" stroke-width="2" d="M316.5,-1501C316.5,-1501 252.5,-1501 252.5,-1501 246.5,-1501 240.5,-1495 240.5,-1489 240.5,-1489 240.5,-1477 240.5,-1477 240.5,-1471 246.5,-1465 252.5,-1465 252.5,-1465 316.5,-1465 316.5,-1465 322.5,-1465 328.5,-1471 328.5,-1477 328.5,-1477 328.5,-1489 328.5,-1489 328.5,-1495 322.5,-1501 316.5,-1501"/>
<text text-anchor="middle" x="284.5" y="-1480.5" font-family="sans" font-size="10.00" fill="#000000">ExecutionDate</text>
</g>
<!-- 2&#45;&gt;1 -->
<g id="edge42" class="edge">
<title>2&#45;&gt;1</title>
<path fill="none" stroke="#c0c0c0" stroke-width="2" d="M240.3521,-1474.5014C210.6151,-1466.8639 172.1132,-1453.0294 145.5,-1429 112.1582,-1398.8952 99.5,-1383.9219 99.5,-1339 99.5,-1339 99.5,-1339 99.5,-907 99.5,-865.167 82.526,-819.459 69.4277,-790.4152"/>
<polygon fill="#c0c0c0" stroke="#c0c0c0" stroke-width="2" points="72.5505,-788.8298 65.1644,-781.2341 66.2016,-791.778 72.5505,-788.8298"/>
</g>
<!-- 3 -->
<g id="node4" class="node">
<title>3</title>
<path fill="none" stroke="#56d85b" stroke-width="2" d="M168,-704C168,-704 83,-704 83,-704 77,-704 71,-698 71,-692 71,-692 71,-675 71,-675 71,-669 77,-663 83,-663 83,-663 168,-663 168,-663 174,-663 180,-669 180,-675 180,-675 180,-692 180,-692 180,-698 174,-704 168,-704"/>
<text text-anchor="middle" x="125.5" y="-692" font-family="sans" font-size="10.00" fill="#000000">fastqc_before_trim</text>
<text text-anchor="middle" x="125.5" y="-681" font-family="sans" font-size="10.00" fill="#000000">rn: R2</text>
<text text-anchor="middle" x="125.5" y="-670" font-family="sans" font-size="10.00" fill="#000000">sample: TESTZ</text>
</g>
<!-- 2&#45;&gt;3 -->
<g id="edge43" class="edge">
<title>2&#45;&gt;3</title>
<path fill="none" stroke="#c0c0c0" stroke-width="2" d="M241.7604,-1464.8074C225.1879,-1456.0051 207.1874,-1444.0436 194.5,-1429 166.8305,-1396.1919 159.5,-1381.9182 159.5,-1339 159.5,-1339 159.5,-1339 159.5,-835 159.5,-792.1332 146.3804,-744.0633 136.4406,-713.7956"/>
<polygon fill="#c0c0c0" stroke="#c0c0c0" stroke-width="2" points="139.7313,-712.6007 133.2151,-704.2467 133.0994,-714.8409 139.7313,-712.6007"/>
</g>
<!-- 4 -->
<g id="node5" class="node">
<title>4</title>
<path fill="none" stroke="#56d85b" stroke-width="2" d="M206,-411C206,-411 121,-411 121,-411 115,-411 109,-405 109,-399 109,-399 109,-382 109,-382 109,-376 115,-370 121,-370 121,-370 206,-370 206,-370 212,-370 218,-376 218,-382 218,-382 218,-399 218,-399 218,-405 212,-411 206,-411"/>
<text text-anchor="middle" x="163.5" y="-399" font-family="sans" font-size="10.00" fill="#000000">fastqc_before_trim</text>
<text text-anchor="middle" x="163.5" y="-388" font-family="sans" font-size="10.00" fill="#000000">rn: R1</text>
<text text-anchor="middle" x="163.5" y="-377" font-family="sans" font-size="10.00" fill="#000000">sample: TESTY</text>
</g>
<!-- 2&#45;&gt;4 -->
<g id="edge44" class="edge">
<title>2&#45;&gt;4</title>
<path fill="none" stroke="#c0c0c0" stroke-width="2" d="M262.5622,-1464.9897C252.0783,-1455.3187 240.173,-1442.6033 232.5,-1429 212.1618,-1392.9426 208.5,-1380.3978 208.5,-1339 208.5,-1339 208.5,-1339 208.5,-537 208.5,-495.167 191.526,-449.459 178.4277,-420.4152"/>
<polygon fill="#c0c0c0" stroke="#c0c0c0" stroke-width="2" points="181.5505,-418.8298 174.1644,-411.2341 175.2016,-421.778 181.5505,-418.8298"/>
</g>
<!-- 5 -->
<g id="node6" class="node">
<title>5</title>
<path fill="none" stroke="#56d85b" stroke-width="2" d="M244,-190C244,-190 159,-190 159,-190 153,-190 147,-184 147,-178 147,-178 147,-161 147,-161 147,-155 153,-149 159,-149 159,-149 244,-149 244,-149 250,-149 256,-155 256,-161 256,-161 256,-178 256,-178 256,-184 250,-190 244,-190"/>
<text text-anchor="middle" x="201.5" y="-178" font-family="sans" font-size="10.00" fill="#000000">fastqc_before_trim</text>
<text text-anchor="middle" x="201.5" y="-167" font-family="sans" font-size="10.00" fill="#000000">rn: R2</text>
<text text-anchor="middle" x="201.5" y="-156" font-family="sans" font-size="10.00" fill="#000000">sample: TESTY</text>
</g>
<!-- 2&#45;&gt;5 -->
<g id="edge45" class="edge">
<title>2&#45;&gt;5</title>
<path fill="none" stroke="#c0c0c0" stroke-width="2" d="M276.4412,-1464.7668C265.2866,-1437.8248 246.5,-1385.5405 246.5,-1339 246.5,-1339 246.5,-1339 246.5,-316 246.5,-274.167 229.526,-228.459 216.4277,-199.4152"/>
<polygon fill="#c0c0c0" stroke="#c0c0c0" stroke-width="2" points="219.5505,-197.8298 212.1644,-190.2341 213.2016,-200.778 219.5505,-197.8298"/>
</g>
<!-- 6 -->
<g id="node7" class="node">
<title>6</title>
<path fill="none" stroke="#56d85b" stroke-width="2" d="M290,-113C290,-113 205,-113 205,-113 199,-113 193,-107 193,-101 193,-101 193,-84 193,-84 193,-78 199,-72 205,-72 205,-72 290,-72 290,-72 296,-72 302,-78 302,-84 302,-84 302,-101 302,-101 302,-107 296,-113 290,-113"/>
<text text-anchor="middle" x="247.5" y="-101" font-family="sans" font-size="10.00" fill="#000000">fastqc_before_trim</text>
<text text-anchor="middle" x="247.5" y="-90" font-family="sans" font-size="10.00" fill="#000000">rn: R1</text>
<text text-anchor="middle" x="247.5" y="-79" font-family="sans" font-size="10.00" fill="#000000">sample: TESTX</text>
</g>
<!-- 2&#45;&gt;6 -->
<g id="edge46" class="edge">
<title>2&#45;&gt;6</title>
<path fill="none" stroke="#c0c0c0" stroke-width="2" d="M284.5,-1464.8146C284.5,-1437.4983 284.5,-1384.25 284.5,-1339 284.5,-1339 284.5,-1339 284.5,-244 284.5,-200.9442 270.2228,-152.9202 259.4059,-122.7143"/>
<polygon fill="#c0c0c0" stroke="#c0c0c0" stroke-width="2" points="262.6371,-121.3601 255.8959,-113.1866 256.0686,-123.78 262.6371,-121.3601"/>
</g>
<!-- 7 -->
<g id="node8" class="node">
<title>7</title>
<path fill="none" stroke="#56d85b" stroke-width="2" d="M410,-781C410,-781 325,-781 325,-781 319,-781 313,-775 313,-769 313,-769 313,-752 313,-752 313,-746 319,-740 325,-740 325,-740 410,-740 410,-740 416,-740 422,-746 422,-752 422,-752 422,-769 422,-769 422,-775 416,-781 410,-781"/>
<text text-anchor="middle" x="367.5" y="-769" font-family="sans" font-size="10.00" fill="#000000">fastqc_before_trim</text>
<text text-anchor="middle" x="367.5" y="-758" font-family="sans" font-size="10.00" fill="#000000">rn: R2</text>
<text text-anchor="middle" x="367.5" y="-747" font-family="sans" font-size="10.00" fill="#000000">sample: TESTX</text>
</g>
<!-- 2&#45;&gt;7 -->
<g id="edge47" class="edge">
<title>2&#45;&gt;7</title>
<path fill="none" stroke="#c0c0c0" stroke-width="2" d="M297.7361,-1464.9445C315.6767,-1438.6382 345.5,-1387.5995 345.5,-1339 345.5,-1339 345.5,-1339 345.5,-907 345.5,-866.6851 353.7482,-820.8149 360.1437,-791.3072"/>
<polygon fill="#c0c0c0" stroke="#c0c0c0" stroke-width="2" points="363.6334,-791.7393 362.3975,-781.2168 356.8017,-790.2134 363.6334,-791.7393"/>
</g>
<!-- 9 -->
<g id="node10" class="node">
<title>9</title>
<path fill="none" stroke="#b6d856" stroke-width="2" d="M502,-1429C502,-1429 437,-1429 437,-1429 431,-1429 425,-1423 425,-1417 425,-1417 425,-1405 425,-1405 425,-1399 431,-1393 437,-1393 437,-1393 502,-1393 502,-1393 508,-1393 514,-1399 514,-1405 514,-1405 514,-1417 514,-1417 514,-1423 508,-1429 502,-1429"/>
<text text-anchor="middle" x="469.5" y="-1414" font-family="sans" font-size="10.00" fill="#000000">trimmomatic</text>
<text text-anchor="middle" x="469.5" y="-1403" font-family="sans" font-size="10.00" fill="#000000">sample: TESTZ</text>
</g>
<!-- 2&#45;&gt;9 -->
<g id="edge49" class="edge">
<title>2&#45;&gt;9</title>
<path fill="none" stroke="#c0c0c0" stroke-width="2" d="M328.8121,-1465.7542C354.8212,-1455.6318 387.8823,-1442.7647 415.4192,-1432.0477"/>
<polygon fill="#c0c0c0" stroke="#c0c0c0" stroke-width="2" points="416.8586,-1435.2433 424.9083,-1428.3546 414.3197,-1428.7199 416.8586,-1435.2433"/>
</g>
<!-- 12 -->
<g id="node13" class="node">
<title>12</title>
<path fill="none" stroke="#b6d856" stroke-width="2" d="M820,-1429C820,-1429 755,-1429 755,-1429 749,-1429 743,-1423 743,-1417 743,-1417 743,-1405 743,-1405 743,-1399 749,-1393 755,-1393 755,-1393 820,-1393 820,-1393 826,-1393 832,-1399 832,-1405 832,-1405 832,-1417 832,-1417 832,-1423 826,-1429 820,-1429"/>
<text text-anchor="middle" x="787.5" y="-1414" font-family="sans" font-size="10.00" fill="#000000">trimmomatic</text>
<text text-anchor="middle" x="787.5" y="-1403" font-family="sans" font-size="10.00" fill="#000000">sample: TESTY</text>
</g>
<!-- 2&#45;&gt;12 -->
<g id="edge52" class="edge">
<title>2&#45;&gt;12</title>
<path fill="none" stroke="#c0c0c0" stroke-width="2" d="M328.697,-1476.6736C420.7095,-1463.5028 632.6011,-1433.1724 732.9302,-1418.8112"/>
<polygon fill="#c0c0c0" stroke="#c0c0c0" stroke-width="2" points="733.4598,-1422.2711 742.863,-1417.3894 732.4679,-1415.3418 733.4598,-1422.2711"/>
</g>
<!-- 15 -->
<g id="node16" class="node">
<title>15</title>
<path fill="none" stroke="#b6d856" stroke-width="2" d="M1898,-1429C1898,-1429 1833,-1429 1833,-1429 1827,-1429 1821,-1423 1821,-1417 1821,-1417 1821,-1405 1821,-1405 1821,-1399 1827,-1393 1833,-1393 1833,-1393 1898,-1393 1898,-1393 1904,-1393 1910,-1399 1910,-1405 1910,-1405 1910,-1417 1910,-1417 1910,-1423 1904,-1429 1898,-1429"/>
<text text-anchor="middle" x="1865.5" y="-1414" font-family="sans" font-size="10.00" fill="#000000">trimmomatic</text>
<text text-anchor="middle" x="1865.5" y="-1403" font-family="sans" font-size="10.00" fill="#000000">sample: TESTX</text>
</g>
<!-- 2&#45;&gt;15 -->
<g id="edge55" class="edge">
<title>2&#45;&gt;15</title>
<path fill="none" stroke="#c0c0c0" stroke-width="2" d="M328.8514,-1480.9802C553.2839,-1470.7594 1562.816,-1424.7845 1810.5011,-1413.5047"/>
<polygon fill="#c0c0c0" stroke="#c0c0c0" stroke-width="2" points="1810.8675,-1416.9917 1820.6979,-1413.0403 1810.549,-1409.999 1810.8675,-1416.9917"/>
</g>
<!-- 3&#45;&gt;0 -->
<g id="edge2" class="edge">
<title>3&#45;&gt;0</title>
<path fill="none" stroke="#c0c0c0" stroke-width="2" d="M114.8356,-662.7659C101.5285,-634.9245 80.5,-583.562 80.5,-537 80.5,-537 80.5,-537 80.5,-169.5 80.5,-121.7739 86.0195,-98.8154 125.5,-72 165.3154,-44.9571 896.3116,-23.6916 1071.1591,-18.9777"/>
<polygon fill="#c0c0c0" stroke="#c0c0c0" stroke-width="2" points="1071.496,-22.4701 1081.3987,-18.7035 1071.3086,-15.4726 1071.496,-22.4701"/>
</g>
<!-- 4&#45;&gt;0 -->
<g id="edge3" class="edge">
<title>4&#45;&gt;0</title>
<path fill="none" stroke="#c0c0c0" stroke-width="2" d="M152.8356,-369.7659C139.5285,-341.9245 118.5,-290.562 118.5,-244 118.5,-244 118.5,-244 118.5,-169.5 118.5,-120.3889 129.1314,-98.4677 170.5,-72 209.0473,-47.3374 900.9641,-24.4134 1070.997,-19.1355"/>
<polygon fill="#c0c0c0" stroke="#c0c0c0" stroke-width="2" points="1071.3179,-22.6274 1081.2051,-18.8204 1071.1018,-15.6307 1071.3179,-22.6274"/>
</g>
<!-- 5&#45;&gt;0 -->
<g id="edge4" class="edge">
<title>5&#45;&gt;0</title>
<path fill="none" stroke="#c0c0c0" stroke-width="2" d="M188.6915,-148.7303C176.9644,-126.7734 164.1291,-92.5347 183.5,-72 214.4676,-39.1718 902.1031,-22.3998 1071.1955,-18.7631"/>
<polygon fill="#c0c0c0" stroke="#c0c0c0" stroke-width="2" points="1071.4244,-22.2591 1081.3476,-18.5472 1071.2755,-15.2607 1071.4244,-22.2591"/>
</g>
<!-- 6&#45;&gt;0 -->
<g id="edge5" class="edge">
<title>6&#45;&gt;0</title>
<path fill="none" stroke="#c0c0c0" stroke-width="2" d="M302.2236,-75.0546C307.0204,-73.8872 311.8267,-72.8429 316.5,-72 464.2363,-45.3551 934.0693,-24.9538 1070.8195,-19.4651"/>
<polygon fill="#c0c0c0" stroke="#c0c0c0" stroke-width="2" points="1071.331,-22.9475 1081.1837,-19.0521 1071.0523,-15.9531 1071.331,-22.9475"/>
</g>
<!-- 7&#45;&gt;0 -->
<g id="edge6" class="edge">
<title>7&#45;&gt;0</title>
<path fill="none" stroke="#c0c0c0" stroke-width="2" d="M359.1041,-739.8134C348.1876,-711.0009 330.5,-656.923 330.5,-609 330.5,-609 330.5,-609 330.5,-169.5 330.5,-121.586 337.0037,-99.1255 376.5,-72 434.0857,-32.451 930.1194,-21.0342 1071.2072,-18.5731"/>
<polygon fill="#c0c0c0" stroke="#c0c0c0" stroke-width="2" points="1071.5582,-22.0677 1081.4974,-18.3986 1071.4394,-15.0687 1071.5582,-22.0677"/>
</g>
<!-- 8 -->
<g id="node9" class="node">
<title>8</title>
<path fill="none" stroke="#d8d356" stroke-width="2" d="M448,-701.5C448,-701.5 371,-701.5 371,-701.5 365,-701.5 359,-695.5 359,-689.5 359,-689.5 359,-677.5 359,-677.5 359,-671.5 365,-665.5 371,-665.5 371,-665.5 448,-665.5 448,-665.5 454,-665.5 460,-671.5 460,-677.5 460,-677.5 460,-689.5 460,-689.5 460,-695.5 454,-701.5 448,-701.5"/>
<text text-anchor="middle" x="409.5" y="-686.5" font-family="sans" font-size="10.00" fill="#000000">fastqc_after_trim</text>
<text text-anchor="middle" x="409.5" y="-675.5" font-family="sans" font-size="10.00" fill="#000000">rn: R1</text>
</g>
<!-- 8&#45;&gt;0 -->
<g id="edge7" class="edge">
<title>8&#45;&gt;0</title>
<path fill="none" stroke="#c0c0c0" stroke-width="2" d="M401.0048,-665.4544C388.9956,-638.2448 368.5,-584.8044 368.5,-537 368.5,-537 368.5,-537 368.5,-169.5 368.5,-119.0791 383.6894,-98.6369 426.5,-72 481.4234,-37.8265 936.749,-22.71 1071.2365,-18.9635"/>
<polygon fill="#c0c0c0" stroke="#c0c0c0" stroke-width="2" points="1071.5421,-22.4565 1081.4425,-18.684 1071.3504,-15.4591 1071.5421,-22.4565"/>
</g>
<!-- 9&#45;&gt;8 -->
<g id="edge48" class="edge">
<title>9&#45;&gt;8</title>
<path fill="none" stroke="#c0c0c0" stroke-width="2" d="M465.5632,-1392.9156C459.998,-1365.7281 450.5,-1312.6422 450.5,-1267 450.5,-1267 450.5,-1267 450.5,-835 450.5,-790.4449 433.7728,-740.9985 421.6869,-711.0868"/>
<polygon fill="#c0c0c0" stroke="#c0c0c0" stroke-width="2" points="424.8668,-709.6181 417.797,-701.727 418.4028,-712.3046 424.8668,-709.6181"/>
</g>
<!-- 10 -->
<g id="node11" class="node">
<title>10</title>
<path fill="none" stroke="#d8d356" stroke-width="2" d="M486,-627C486,-627 409,-627 409,-627 403,-627 397,-621 397,-615 397,-615 397,-603 397,-603 397,-597 403,-591 409,-591 409,-591 486,-591 486,-591 492,-591 498,-597 498,-603 498,-603 498,-615 498,-615 498,-621 492,-627 486,-627"/>
<text text-anchor="middle" x="447.5" y="-612" font-family="sans" font-size="10.00" fill="#000000">fastqc_after_trim</text>
<text text-anchor="middle" x="447.5" y="-601" font-family="sans" font-size="10.00" fill="#000000">rn: R2</text>
</g>
<!-- 9&#45;&gt;10 -->
<g id="edge50" class="edge">
<title>9&#45;&gt;10</title>
<path fill="none" stroke="#c0c0c0" stroke-width="2" d="M473.4368,-1392.9156C479.002,-1365.7281 488.5,-1312.6422 488.5,-1267 488.5,-1267 488.5,-1267 488.5,-760.5 488.5,-715.9449 471.7728,-666.4985 459.6869,-636.5868"/>
<polygon fill="#c0c0c0" stroke="#c0c0c0" stroke-width="2" points="462.8668,-635.1181 455.797,-627.227 456.4028,-637.8046 462.8668,-635.1181"/>
</g>
<!-- 19 -->
<g id="node20" class="node">
<title>19</title>
<path fill="none" stroke="#d8c356" stroke-width="2" d="M590,-1357C590,-1357 529,-1357 529,-1357 523,-1357 517,-1351 517,-1345 517,-1345 517,-1333 517,-1333 517,-1327 523,-1321 529,-1321 529,-1321 590,-1321 590,-1321 596,-1321 602,-1327 602,-1333 602,-1333 602,-1345 602,-1345 602,-1351 596,-1357 590,-1357"/>
<text text-anchor="middle" x="559.5" y="-1336.5" font-family="sans" font-size="10.00" fill="#000000">bwa_mapping</text>
</g>
<!-- 9&#45;&gt;19 -->
<g id="edge59" class="edge">
<title>9&#45;&gt;19</title>
<path fill="none" stroke="#c0c0c0" stroke-width="2" d="M492.2108,-1392.8314C503.296,-1383.9632 516.7954,-1373.1637 528.7852,-1363.5718"/>
<polygon fill="#c0c0c0" stroke="#c0c0c0" stroke-width="2" points="531.1742,-1366.1429 536.7965,-1357.1628 526.8013,-1360.6768 531.1742,-1366.1429"/>
</g>
<!-- 10&#45;&gt;0 -->
<g id="edge8" class="edge">
<title>10&#45;&gt;0</title>
<path fill="none" stroke="#c0c0c0" stroke-width="2" d="M440.5015,-590.6679C430.8147,-563.6028 414.5,-511.1665 414.5,-465 414.5,-465 414.5,-465 414.5,-169.5 414.5,-115.8947 438.8193,-98.3524 485.5,-72 536.4842,-43.2182 943.8911,-24.5999 1070.8569,-19.4527"/>
<polygon fill="#c0c0c0" stroke="#c0c0c0" stroke-width="2" points="1071.3762,-22.9348 1081.228,-19.0371 1071.0958,-15.9404 1071.3762,-22.9348"/>
</g>
<!-- 11 -->
<g id="node12" class="node">
<title>11</title>
<path fill="none" stroke="#d8d356" stroke-width="2" d="M806,-187.5C806,-187.5 729,-187.5 729,-187.5 723,-187.5 717,-181.5 717,-175.5 717,-175.5 717,-163.5 717,-163.5 717,-157.5 723,-151.5 729,-151.5 729,-151.5 806,-151.5 806,-151.5 812,-151.5 818,-157.5 818,-163.5 818,-163.5 818,-175.5 818,-175.5 818,-181.5 812,-187.5 806,-187.5"/>
<text text-anchor="middle" x="767.5" y="-172.5" font-family="sans" font-size="10.00" fill="#000000">fastqc_after_trim</text>
<text text-anchor="middle" x="767.5" y="-161.5" font-family="sans" font-size="10.00" fill="#000000">rn: R1</text>
</g>
<!-- 11&#45;&gt;0 -->
<g id="edge9" class="edge">
<title>11&#45;&gt;0</title>
<path fill="none" stroke="#c0c0c0" stroke-width="2" d="M764.124,-151.3243C761.1992,-129.423 760.17,-92.9622 780.5,-72 820.1686,-31.0979 993.7888,-21.1665 1071.1156,-18.7633"/>
<polygon fill="#c0c0c0" stroke="#c0c0c0" stroke-width="2" points="1071.4673,-22.2548 1081.3637,-18.4717 1071.2681,-15.2576 1071.4673,-22.2548"/>
</g>
<!-- 12&#45;&gt;11 -->
<g id="edge51" class="edge">
<title>12&#45;&gt;11</title>
<path fill="none" stroke="#c0c0c0" stroke-width="2" d="M783.5632,-1392.9156C777.998,-1365.7281 768.5,-1312.6422 768.5,-1267 768.5,-1267 768.5,-1267 768.5,-316 768.5,-274.9529 768.1026,-227.4381 767.8088,-197.9225"/>
<polygon fill="#c0c0c0" stroke="#c0c0c0" stroke-width="2" points="771.3048,-197.5062 767.7024,-187.5426 764.3052,-197.578 771.3048,-197.5062"/>
</g>
<!-- 13 -->
<g id="node14" class="node">
<title>13</title>
<path fill="none" stroke="#d8d356" stroke-width="2" d="M878,-110.5C878,-110.5 801,-110.5 801,-110.5 795,-110.5 789,-104.5 789,-98.5 789,-98.5 789,-86.5 789,-86.5 789,-80.5 795,-74.5 801,-74.5 801,-74.5 878,-74.5 878,-74.5 884,-74.5 890,-80.5 890,-86.5 890,-86.5 890,-98.5 890,-98.5 890,-104.5 884,-110.5 878,-110.5"/>
<text text-anchor="middle" x="839.5" y="-95.5" font-family="sans" font-size="10.00" fill="#000000">fastqc_after_trim</text>
<text text-anchor="middle" x="839.5" y="-84.5" font-family="sans" font-size="10.00" fill="#000000">rn: R2</text>
</g>
<!-- 12&#45;&gt;13 -->
<g id="edge53" class="edge">
<title>12&#45;&gt;13</title>
<path fill="none" stroke="#c0c0c0" stroke-width="2" d="M791.4368,-1392.9156C797.002,-1365.7281 806.5,-1312.6422 806.5,-1267 806.5,-1267 806.5,-1267 806.5,-390.5 806.5,-363.9426 827.4722,-190.343 835.9787,-121.0216"/>
<polygon fill="#c0c0c0" stroke="#c0c0c0" stroke-width="2" points="839.4852,-121.1822 837.2318,-110.8298 832.5375,-120.3279 839.4852,-121.1822"/>
</g>
<!-- 22 -->
<g id="node23" class="node">
<title>22</title>
<path fill="none" stroke="#d8c356" stroke-width="2" d="M948,-1357C948,-1357 887,-1357 887,-1357 881,-1357 875,-1351 875,-1345 875,-1345 875,-1333 875,-1333 875,-1327 881,-1321 887,-1321 887,-1321 948,-1321 948,-1321 954,-1321 960,-1327 960,-1333 960,-1333 960,-1345 960,-1345 960,-1351 954,-1357 948,-1357"/>
<text text-anchor="middle" x="917.5" y="-1336.5" font-family="sans" font-size="10.00" fill="#000000">bwa_mapping</text>
</g>
<!-- 12&#45;&gt;22 -->
<g id="edge62" class="edge">
<title>12&#45;&gt;22</title>
<path fill="none" stroke="#c0c0c0" stroke-width="2" d="M820.3045,-1392.8314C837.0862,-1383.5368 857.6985,-1372.1208 875.6163,-1362.1971"/>
<polygon fill="#c0c0c0" stroke="#c0c0c0" stroke-width="2" points="877.6538,-1365.0696 884.706,-1357.1628 874.2623,-1358.9461 877.6538,-1365.0696"/>
</g>
<!-- 13&#45;&gt;0 -->
<g id="edge10" class="edge">
<title>13&#45;&gt;0</title>
<path fill="none" stroke="#c0c0c0" stroke-width="2" d="M890.1726,-76.2671C895.0061,-74.7946 899.8404,-73.3507 904.5,-72 962.5656,-55.1683 1030.5357,-37.5988 1071.5155,-27.2362"/>
<polygon fill="#c0c0c0" stroke="#c0c0c0" stroke-width="2" points="1072.4891,-30.6004 1081.3301,-24.7618 1070.7778,-23.8128 1072.4891,-30.6004"/>
</g>
<!-- 14 -->
<g id="node15" class="node">
<title>14</title>
<path fill="none" stroke="#d8d356" stroke-width="2" d="M1845,-1285C1845,-1285 1768,-1285 1768,-1285 1762,-1285 1756,-1279 1756,-1273 1756,-1273 1756,-1261 1756,-1261 1756,-1255 1762,-1249 1768,-1249 1768,-1249 1845,-1249 1845,-1249 1851,-1249 1857,-1255 1857,-1261 1857,-1261 1857,-1273 1857,-1273 1857,-1279 1851,-1285 1845,-1285"/>
<text text-anchor="middle" x="1806.5" y="-1270" font-family="sans" font-size="10.00" fill="#000000">fastqc_after_trim</text>
<text text-anchor="middle" x="1806.5" y="-1259" font-family="sans" font-size="10.00" fill="#000000">rn: R1</text>
</g>
<!-- 14&#45;&gt;0 -->
<g id="edge11" class="edge">
<title>14&#45;&gt;0</title>
<path fill="none" stroke="#c0c0c0" stroke-width="2" d="M1806.5,-1248.8146C1806.5,-1221.4983 1806.5,-1168.25 1806.5,-1123 1806.5,-1123 1806.5,-1123 1806.5,-169.5 1806.5,-114.8293 1779.4576,-98.248 1731.5,-72 1680.1418,-43.8908 1272.9912,-24.8116 1146.1153,-19.5027"/>
<polygon fill="#c0c0c0" stroke="#c0c0c0" stroke-width="2" points="1145.8879,-15.9904 1135.7516,-19.0737 1145.5983,-22.9844 1145.8879,-15.9904"/>
</g>
<!-- 15&#45;&gt;14 -->
<g id="edge54" class="edge">
<title>15&#45;&gt;14</title>
<path fill="none" stroke="#c0c0c0" stroke-width="2" d="M1858.0276,-1392.7623C1847.8757,-1367.9846 1829.6376,-1323.4714 1817.8058,-1294.5939"/>
<polygon fill="#c0c0c0" stroke="#c0c0c0" stroke-width="2" points="1820.9418,-1293.0161 1813.9117,-1285.0896 1814.4644,-1295.67 1820.9418,-1293.0161"/>
</g>
<!-- 16 -->
<g id="node17" class="node">
<title>16</title>
<path fill="none" stroke="#d8d356" stroke-width="2" d="M1924,-1213C1924,-1213 1847,-1213 1847,-1213 1841,-1213 1835,-1207 1835,-1201 1835,-1201 1835,-1189 1835,-1189 1835,-1183 1841,-1177 1847,-1177 1847,-1177 1924,-1177 1924,-1177 1930,-1177 1936,-1183 1936,-1189 1936,-1189 1936,-1201 1936,-1201 1936,-1207 1930,-1213 1924,-1213"/>
<text text-anchor="middle" x="1885.5" y="-1198" font-family="sans" font-size="10.00" fill="#000000">fastqc_after_trim</text>
<text text-anchor="middle" x="1885.5" y="-1187" font-family="sans" font-size="10.00" fill="#000000">rn: R2</text>
</g>
<!-- 15&#45;&gt;16 -->
<g id="edge56" class="edge">
<title>15&#45;&gt;16</title>
<path fill="none" stroke="#c0c0c0" stroke-width="2" d="M1867.1708,-1392.9555C1870.6561,-1355.3144 1878.7235,-1268.1867 1882.8959,-1223.1246"/>
<polygon fill="#c0c0c0" stroke="#c0c0c0" stroke-width="2" points="1886.3829,-1223.4252 1883.8199,-1213.1451 1879.4127,-1222.7797 1886.3829,-1223.4252"/>
</g>
<!-- 25 -->
<g id="node26" class="node">
<title>25</title>
<path fill="none" stroke="#d8c356" stroke-width="2" d="M1991,-1357C1991,-1357 1930,-1357 1930,-1357 1924,-1357 1918,-1351 1918,-1345 1918,-1345 1918,-1333 1918,-1333 1918,-1327 1924,-1321 1930,-1321 1930,-1321 1991,-1321 1991,-1321 1997,-1321 2003,-1327 2003,-1333 2003,-1333 2003,-1345 2003,-1345 2003,-1351 1997,-1357 1991,-1357"/>
<text text-anchor="middle" x="1960.5" y="-1336.5" font-family="sans" font-size="10.00" fill="#000000">bwa_mapping</text>
</g>
<!-- 15&#45;&gt;25 -->
<g id="edge65" class="edge">
<title>15&#45;&gt;25</title>
<path fill="none" stroke="#c0c0c0" stroke-width="2" d="M1889.4725,-1392.8314C1901.2861,-1383.8779 1915.6972,-1372.9558 1928.4435,-1363.2955"/>
<polygon fill="#c0c0c0" stroke="#c0c0c0" stroke-width="2" points="1930.6795,-1365.9925 1936.5352,-1357.1628 1926.4514,-1360.4137 1930.6795,-1365.9925"/>
</g>
<!-- 16&#45;&gt;0 -->
<g id="edge12" class="edge">
<title>16&#45;&gt;0</title>
<path fill="none" stroke="#c0c0c0" stroke-width="2" d="M1876.805,-1176.8324C1864.7698,-1149.9721 1844.5,-1097.7885 1844.5,-1051 1844.5,-1051 1844.5,-1051 1844.5,-169.5 1844.5,-124.8732 1854.5585,-100.837 1820.5,-72 1768.7489,-28.1829 1285.3513,-19.8192 1145.9559,-18.3137"/>
<polygon fill="#c0c0c0" stroke="#c0c0c0" stroke-width="2" points="1145.8108,-14.8121 1135.7754,-18.2095 1145.739,-21.8117 1145.8108,-14.8121"/>
</g>
<!-- 17 -->
<g id="node18" class="node">
<title>17</title>
<path fill="none" stroke="#56a2d8" stroke-width="2" d="M524.5,-555C524.5,-555 454.5,-555 454.5,-555 448.5,-555 442.5,-549 442.5,-543 442.5,-543 442.5,-531 442.5,-531 442.5,-525 448.5,-519 454.5,-519 454.5,-519 524.5,-519 524.5,-519 530.5,-519 536.5,-525 536.5,-531 536.5,-531 536.5,-543 536.5,-543 536.5,-549 530.5,-555 524.5,-555"/>
<text text-anchor="middle" x="489.5" y="-534.5" font-family="sans" font-size="10.00" fill="#000000">samtools_index</text>
</g>
<!-- 17&#45;&gt;0 -->
<g id="edge13" class="edge">
<title>17&#45;&gt;0</title>
<path fill="none" stroke="#c0c0c0" stroke-width="2" d="M489.7024,-518.9574C489.9946,-491.3078 490.5,-436.791 490.5,-390.5 490.5,-390.5 490.5,-390.5 490.5,-169.5 490.5,-124.8732 480.6582,-101.091 514.5,-72 556.7519,-35.6796 947.8147,-22.2618 1071.3116,-18.9091"/>
<polygon fill="#c0c0c0" stroke="#c0c0c0" stroke-width="2" points="1071.509,-22.4052 1081.4126,-18.6413 1071.3234,-15.4076 1071.509,-22.4052"/>
</g>
<!-- 18 -->
<g id="node19" class="node">
<title>18</title>
<path fill="none" stroke="#56d8c9" stroke-width="2" d="M590.5,-1285C590.5,-1285 528.5,-1285 528.5,-1285 522.5,-1285 516.5,-1279 516.5,-1273 516.5,-1273 516.5,-1261 516.5,-1261 516.5,-1255 522.5,-1249 528.5,-1249 528.5,-1249 590.5,-1249 590.5,-1249 596.5,-1249 602.5,-1255 602.5,-1261 602.5,-1261 602.5,-1273 602.5,-1273 602.5,-1279 596.5,-1285 590.5,-1285"/>
<text text-anchor="middle" x="559.5" y="-1264.5" font-family="sans" font-size="10.00" fill="#000000">samtools_sort</text>
</g>
<!-- 18&#45;&gt;17 -->
<g id="edge57" class="edge">
<title>18&#45;&gt;17</title>
<path fill="none" stroke="#c0c0c0" stroke-width="2" d="M552.5015,-1248.6679C542.8147,-1221.6028 526.5,-1169.1665 526.5,-1123 526.5,-1123 526.5,-1123 526.5,-683.5 526.5,-641.0267 511.6997,-593.6777 500.8204,-564.6101"/>
<polygon fill="#c0c0c0" stroke="#c0c0c0" stroke-width="2" points="504.0284,-563.2013 497.1664,-555.1289 497.4967,-565.7186 504.0284,-563.2013"/>
</g>
<!-- 26 -->
<g id="node27" class="node">
<title>26</title>
<path fill="none" stroke="#61d856" stroke-width="2" d="M663.5,-1213C663.5,-1213 593.5,-1213 593.5,-1213 587.5,-1213 581.5,-1207 581.5,-1201 581.5,-1201 581.5,-1189 581.5,-1189 581.5,-1183 587.5,-1177 593.5,-1177 593.5,-1177 663.5,-1177 663.5,-1177 669.5,-1177 675.5,-1183 675.5,-1189 675.5,-1189 675.5,-1201 675.5,-1201 675.5,-1207 669.5,-1213 663.5,-1213"/>
<text text-anchor="middle" x="628.5" y="-1192.5" font-family="sans" font-size="10.00" fill="#000000">gatk_duplicates</text>
</g>
<!-- 18&#45;&gt;26 -->
<g id="edge66" class="edge">
<title>18&#45;&gt;26</title>
<path fill="none" stroke="#c0c0c0" stroke-width="2" d="M576.9116,-1248.8314C585.021,-1240.3694 594.8156,-1230.1489 603.682,-1220.8971"/>
<polygon fill="#c0c0c0" stroke="#c0c0c0" stroke-width="2" points="606.4618,-1223.0549 610.854,-1213.4133 601.4079,-1218.2115 606.4618,-1223.0549"/>
</g>
<!-- 19&#45;&gt;18 -->
<g id="edge58" class="edge">
<title>19&#45;&gt;18</title>
<path fill="none" stroke="#c0c0c0" stroke-width="2" d="M559.5,-1320.8314C559.5,-1313.131 559.5,-1303.9743 559.5,-1295.4166"/>
<polygon fill="#c0c0c0" stroke="#c0c0c0" stroke-width="2" points="563.0001,-1295.4132 559.5,-1285.4133 556.0001,-1295.4133 563.0001,-1295.4132"/>
</g>
<!-- 20 -->
<g id="node21" class="node">
<title>20</title>
<path fill="none" stroke="#56a2d8" stroke-width="2" d="M954.5,-334C954.5,-334 884.5,-334 884.5,-334 878.5,-334 872.5,-328 872.5,-322 872.5,-322 872.5,-310 872.5,-310 872.5,-304 878.5,-298 884.5,-298 884.5,-298 954.5,-298 954.5,-298 960.5,-298 966.5,-304 966.5,-310 966.5,-310 966.5,-322 966.5,-322 966.5,-328 960.5,-334 954.5,-334"/>
<text text-anchor="middle" x="919.5" y="-313.5" font-family="sans" font-size="10.00" fill="#000000">samtools_index</text>
</g>
<!-- 20&#45;&gt;0 -->
<g id="edge14" class="edge">
<title>20&#45;&gt;0</title>
<path fill="none" stroke="#c0c0c0" stroke-width="2" d="M918.8509,-297.938C918.2452,-253.8637 922.6956,-139.4862 980.5,-72 1003.5568,-45.0813 1042.321,-31.2733 1071.1616,-24.3941"/>
<polygon fill="#c0c0c0" stroke="#c0c0c0" stroke-width="2" points="1072.2784,-27.7321 1081.2907,-22.1617 1070.7717,-20.8961 1072.2784,-27.7321"/>
</g>
<!-- 21 -->
<g id="node22" class="node">
<title>21</title>
<path fill="none" stroke="#56d8c9" stroke-width="2" d="M989.5,-1285C989.5,-1285 927.5,-1285 927.5,-1285 921.5,-1285 915.5,-1279 915.5,-1273 915.5,-1273 915.5,-1261 915.5,-1261 915.5,-1255 921.5,-1249 927.5,-1249 927.5,-1249 989.5,-1249 989.5,-1249 995.5,-1249 1001.5,-1255 1001.5,-1261 1001.5,-1261 1001.5,-1273 1001.5,-1273 1001.5,-1279 995.5,-1285 989.5,-1285"/>
<text text-anchor="middle" x="958.5" y="-1264.5" font-family="sans" font-size="10.00" fill="#000000">samtools_sort</text>
</g>
<!-- 21&#45;&gt;20 -->
<g id="edge60" class="edge">
<title>21&#45;&gt;20</title>
<path fill="none" stroke="#c0c0c0" stroke-width="2" d="M958.5,-1248.8146C958.5,-1221.4983 958.5,-1168.25 958.5,-1123 958.5,-1123 958.5,-1123 958.5,-907 958.5,-807.6627 956.5,-782.8373 956.5,-683.5 956.5,-683.5 956.5,-683.5 956.5,-465 956.5,-421.845 941.6997,-373.6766 930.8204,-344.0987"/>
<polygon fill="#c0c0c0" stroke="#c0c0c0" stroke-width="2" points="933.9814,-342.5628 927.1664,-334.4507 927.4351,-345.0421 933.9814,-342.5628"/>
</g>
<!-- 27 -->
<g id="node28" class="node">
<title>27</title>
<path fill="none" stroke="#61d856" stroke-width="2" d="M1126.5,-1213C1126.5,-1213 1056.5,-1213 1056.5,-1213 1050.5,-1213 1044.5,-1207 1044.5,-1201 1044.5,-1201 1044.5,-1189 1044.5,-1189 1044.5,-1183 1050.5,-1177 1056.5,-1177 1056.5,-1177 1126.5,-1177 1126.5,-1177 1132.5,-1177 1138.5,-1183 1138.5,-1189 1138.5,-1189 1138.5,-1201 1138.5,-1201 1138.5,-1207 1132.5,-1213 1126.5,-1213"/>
<text text-anchor="middle" x="1091.5" y="-1192.5" font-family="sans" font-size="10.00" fill="#000000">gatk_duplicates</text>
</g>
<!-- 21&#45;&gt;27 -->
<g id="edge67" class="edge">
<title>21&#45;&gt;27</title>
<path fill="none" stroke="#c0c0c0" stroke-width="2" d="M992.0615,-1248.8314C1009.3881,-1239.4516 1030.7058,-1227.9112 1049.1536,-1217.9244"/>
<polygon fill="#c0c0c0" stroke="#c0c0c0" stroke-width="2" points="1050.8214,-1221.0015 1057.9492,-1213.1628 1047.4889,-1214.8457 1050.8214,-1221.0015"/>
</g>
<!-- 22&#45;&gt;21 -->
<g id="edge61" class="edge">
<title>22&#45;&gt;21</title>
<path fill="none" stroke="#c0c0c0" stroke-width="2" d="M927.846,-1320.8314C932.4237,-1312.7925 937.9052,-1303.1666 942.9588,-1294.2918"/>
<polygon fill="#c0c0c0" stroke="#c0c0c0" stroke-width="2" points="946.1077,-1295.8351 948.0147,-1285.4133 940.0248,-1292.3712 946.1077,-1295.8351"/>
</g>
<!-- 23 -->
<g id="node24" class="node">
<title>23</title>
<path fill="none" stroke="#56a2d8" stroke-width="2" d="M1962.5,-1141C1962.5,-1141 1892.5,-1141 1892.5,-1141 1886.5,-1141 1880.5,-1135 1880.5,-1129 1880.5,-1129 1880.5,-1117 1880.5,-1117 1880.5,-1111 1886.5,-1105 1892.5,-1105 1892.5,-1105 1962.5,-1105 1962.5,-1105 1968.5,-1105 1974.5,-1111 1974.5,-1117 1974.5,-1117 1974.5,-1129 1974.5,-1129 1974.5,-1135 1968.5,-1141 1962.5,-1141"/>
<text text-anchor="middle" x="1927.5" y="-1120.5" font-family="sans" font-size="10.00" fill="#000000">samtools_index</text>
</g>
<!-- 23&#45;&gt;0 -->
<g id="edge15" class="edge">
<title>23&#45;&gt;0</title>
<path fill="none" stroke="#c0c0c0" stroke-width="2" d="M1917.9567,-1104.9269C1904.7473,-1078.1844 1882.5,-1026.1461 1882.5,-979 1882.5,-979 1882.5,-979 1882.5,-169.5 1882.5,-124.8732 1892.6136,-100.7719 1858.5,-72 1803.6162,-25.7102 1289.1946,-19.1006 1145.5776,-18.1571"/>
<polygon fill="#c0c0c0" stroke="#c0c0c0" stroke-width="2" points="1145.5262,-14.6568 1135.5053,-18.0964 1145.4839,-21.6567 1145.5262,-14.6568"/>
</g>
<!-- 24 -->
<g id="node25" class="node">
<title>24</title>
<path fill="none" stroke="#56d8c9" stroke-width="2" d="M1995.5,-1285C1995.5,-1285 1933.5,-1285 1933.5,-1285 1927.5,-1285 1921.5,-1279 1921.5,-1273 1921.5,-1273 1921.5,-1261 1921.5,-1261 1921.5,-1255 1927.5,-1249 1933.5,-1249 1933.5,-1249 1995.5,-1249 1995.5,-1249 2001.5,-1249 2007.5,-1255 2007.5,-1261 2007.5,-1261 2007.5,-1273 2007.5,-1273 2007.5,-1279 2001.5,-1285 1995.5,-1285"/>
<text text-anchor="middle" x="1964.5" y="-1264.5" font-family="sans" font-size="10.00" fill="#000000">samtools_sort</text>
</g>
<!-- 24&#45;&gt;23 -->
<g id="edge63" class="edge">
<title>24&#45;&gt;23</title>
<path fill="none" stroke="#c0c0c0" stroke-width="2" d="M1961.3105,-1248.9268C1957.9391,-1230.6511 1952.1897,-1201.6598 1945.5,-1177 1943.1823,-1168.4566 1940.2827,-1159.2803 1937.4922,-1150.9602"/>
<polygon fill="#c0c0c0" stroke="#c0c0c0" stroke-width="2" points="1940.7458,-1149.6582 1934.1889,-1141.3361 1934.125,-1151.9307 1940.7458,-1149.6582"/>
</g>
<!-- 28 -->
<g id="node29" class="node">
<title>28</title>
<path fill="none" stroke="#61d856" stroke-width="2" d="M2103.5,-1213C2103.5,-1213 2033.5,-1213 2033.5,-1213 2027.5,-1213 2021.5,-1207 2021.5,-1201 2021.5,-1201 2021.5,-1189 2021.5,-1189 2021.5,-1183 2027.5,-1177 2033.5,-1177 2033.5,-1177 2103.5,-1177 2103.5,-1177 2109.5,-1177 2115.5,-1183 2115.5,-1189 2115.5,-1189 2115.5,-1201 2115.5,-1201 2115.5,-1207 2109.5,-1213 2103.5,-1213"/>
<text text-anchor="middle" x="2068.5" y="-1192.5" font-family="sans" font-size="10.00" fill="#000000">gatk_duplicates</text>
</g>
<!-- 24&#45;&gt;28 -->
<g id="edge68" class="edge">
<title>24&#45;&gt;28</title>
<path fill="none" stroke="#c0c0c0" stroke-width="2" d="M1990.7436,-1248.8314C2003.7995,-1239.7927 2019.7535,-1228.7476 2033.8047,-1219.0198"/>
<polygon fill="#c0c0c0" stroke="#c0c0c0" stroke-width="2" points="2036.0351,-1221.7326 2042.2648,-1213.1628 2032.0506,-1215.9773 2036.0351,-1221.7326"/>
</g>
<!-- 25&#45;&gt;24 -->
<g id="edge64" class="edge">
<title>25&#45;&gt;24</title>
<path fill="none" stroke="#c0c0c0" stroke-width="2" d="M1961.5094,-1320.8314C1961.9372,-1313.131 1962.4459,-1303.9743 1962.9213,-1295.4166"/>
<polygon fill="#c0c0c0" stroke="#c0c0c0" stroke-width="2" points="1966.4169,-1295.592 1963.477,-1285.4133 1959.4276,-1295.2037 1966.4169,-1295.592"/>
</g>
<!-- 26&#45;&gt;0 -->
<g id="edge16" class="edge">
<title>26&#45;&gt;0</title>
<path fill="none" stroke="#c0c0c0" stroke-width="2" d="M667.9901,-1176.7664C683.0624,-1167.9577 699.1031,-1156.0027 709.5,-1141 732.8958,-1107.2399 730.5,-1092.0745 730.5,-1051 730.5,-1051 730.5,-1051 730.5,-537 730.5,-329.959 584.6378,-184.4185 758.5,-72 809.7645,-38.8526 992.1042,-24.6374 1071.3162,-19.9283"/>
<polygon fill="#c0c0c0" stroke="#c0c0c0" stroke-width="2" points="1071.5587,-23.4203 1081.3407,-19.3507 1071.1559,-16.4319 1071.5587,-23.4203"/>
</g>
<!-- 31 -->
<g id="node32" class="node">
<title>31</title>
<path fill="none" stroke="#56d873" stroke-width="2" d="M688,-1141C688,-1141 569,-1141 569,-1141 563,-1141 557,-1135 557,-1129 557,-1129 557,-1117 557,-1117 557,-1111 563,-1105 569,-1105 569,-1105 688,-1105 688,-1105 694,-1105 700,-1111 700,-1117 700,-1117 700,-1129 700,-1129 700,-1135 694,-1141 688,-1141"/>
<text text-anchor="middle" x="628.5" y="-1120.5" font-family="sans" font-size="10.00" fill="#000000">AddOrReplaceReadGroups</text>
</g>
<!-- 26&#45;&gt;31 -->
<g id="edge71" class="edge">
<title>26&#45;&gt;31</title>
<path fill="none" stroke="#c0c0c0" stroke-width="2" d="M628.5,-1176.8314C628.5,-1169.131 628.5,-1159.9743 628.5,-1151.4166"/>
<polygon fill="#c0c0c0" stroke="#c0c0c0" stroke-width="2" points="632.0001,-1151.4132 628.5,-1141.4133 625.0001,-1151.4133 632.0001,-1151.4132"/>
</g>
<!-- 27&#45;&gt;0 -->
<g id="edge17" class="edge">
<title>27&#45;&gt;0</title>
<path fill="none" stroke="#c0c0c0" stroke-width="2" d="M1138.5678,-1190.0135C1292.0963,-1173.1229 1768.5,-1115.5131 1768.5,-1051 1768.5,-1051 1768.5,-1051 1768.5,-169.5 1768.5,-112.8787 1736.6614,-98.2643 1686.5,-72 1638.6691,-46.9559 1265.9417,-26.0032 1145.734,-19.8394"/>
<polygon fill="#c0c0c0" stroke="#c0c0c0" stroke-width="2" points="1145.7208,-16.3343 1135.5559,-19.3221 1145.3653,-23.3253 1145.7208,-16.3343"/>
</g>
<!-- 34 -->
<g id="node35" class="node">
<title>34</title>
<path fill="none" stroke="#56d873" stroke-width="2" d="M1151,-1141C1151,-1141 1032,-1141 1032,-1141 1026,-1141 1020,-1135 1020,-1129 1020,-1129 1020,-1117 1020,-1117 1020,-1111 1026,-1105 1032,-1105 1032,-1105 1151,-1105 1151,-1105 1157,-1105 1163,-1111 1163,-1117 1163,-1117 1163,-1129 1163,-1129 1163,-1135 1157,-1141 1151,-1141"/>
<text text-anchor="middle" x="1091.5" y="-1120.5" font-family="sans" font-size="10.00" fill="#000000">AddOrReplaceReadGroups</text>
</g>
<!-- 27&#45;&gt;34 -->
<g id="edge74" class="edge">
<title>27&#45;&gt;34</title>
<path fill="none" stroke="#c0c0c0" stroke-width="2" d="M1091.5,-1176.8314C1091.5,-1169.131 1091.5,-1159.9743 1091.5,-1151.4166"/>
<polygon fill="#c0c0c0" stroke="#c0c0c0" stroke-width="2" points="1095.0001,-1151.4132 1091.5,-1141.4133 1088.0001,-1151.4133 1095.0001,-1151.4132"/>
</g>
<!-- 28&#45;&gt;0 -->
<g id="edge18" class="edge">
<title>28&#45;&gt;0</title>
<path fill="none" stroke="#c0c0c0" stroke-width="2" d="M2104.3759,-1176.7835C2119.7416,-1167.6426 2136.9897,-1155.4302 2149.5,-1141 2178.5391,-1107.5043 2192.5,-1095.331 2192.5,-1051 2192.5,-1051 2192.5,-1051 2192.5,-169.5 2192.5,-101.4691 2137.848,-96.8038 2074.5,-72 1986.9322,-37.713 1313.3271,-22.0898 1146.0205,-18.7151"/>
<polygon fill="#c0c0c0" stroke="#c0c0c0" stroke-width="2" points="1146.0333,-15.2148 1135.9655,-18.5148 1145.8938,-22.2134 1146.0333,-15.2148"/>
</g>
<!-- 37 -->
<g id="node38" class="node">
<title>37</title>
<path fill="none" stroke="#56d873" stroke-width="2" d="M2128,-1141C2128,-1141 2009,-1141 2009,-1141 2003,-1141 1997,-1135 1997,-1129 1997,-1129 1997,-1117 1997,-1117 1997,-1111 2003,-1105 2009,-1105 2009,-1105 2128,-1105 2128,-1105 2134,-1105 2140,-1111 2140,-1117 2140,-1117 2140,-1129 2140,-1129 2140,-1135 2134,-1141 2128,-1141"/>
<text text-anchor="middle" x="2068.5" y="-1120.5" font-family="sans" font-size="10.00" fill="#000000">AddOrReplaceReadGroups</text>
</g>
<!-- 28&#45;&gt;37 -->
<g id="edge77" class="edge">
<title>28&#45;&gt;37</title>
<path fill="none" stroke="#c0c0c0" stroke-width="2" d="M2068.5,-1176.8314C2068.5,-1169.131 2068.5,-1159.9743 2068.5,-1151.4166"/>
<polygon fill="#c0c0c0" stroke="#c0c0c0" stroke-width="2" points="2072.0001,-1151.4132 2068.5,-1141.4133 2065.0001,-1151.4133 2072.0001,-1151.4132"/>
</g>
<!-- 29 -->
<g id="node30" class="node">
<title>29</title>
<path fill="none" stroke="#97d856" stroke-width="2" d="M652,-997C652,-997 567,-997 567,-997 561,-997 555,-991 555,-985 555,-985 555,-973 555,-973 555,-967 561,-961 567,-961 567,-961 652,-961 652,-961 658,-961 664,-967 664,-973 664,-973 664,-985 664,-985 664,-991 658,-997 652,-997"/>
<text text-anchor="middle" x="609.5" y="-976.5" font-family="sans" font-size="10.00" fill="#000000">BQSR_build_model</text>
</g>
<!-- 29&#45;&gt;0 -->
<g id="edge19" class="edge">
<title>29&#45;&gt;0</title>
<path fill="none" stroke="#c0c0c0" stroke-width="2" d="M599.9567,-960.9269C586.7473,-934.1844 564.5,-882.1461 564.5,-835 564.5,-835 564.5,-835 564.5,-609 564.5,-510.5796 528.5,-488.9204 528.5,-390.5 528.5,-390.5 528.5,-390.5 528.5,-169.5 528.5,-120.1782 540.448,-99.3382 581.5,-72 622.102,-44.9615 957.3522,-25.6512 1070.9943,-19.8299"/>
<polygon fill="#c0c0c0" stroke="#c0c0c0" stroke-width="2" points="1071.4726,-23.3103 1081.2828,-19.3089 1071.1185,-16.3193 1071.4726,-23.3103"/>
</g>
<!-- 38 -->
<g id="node39" class="node">
<title>38</title>
<path fill="none" stroke="#a7d856" stroke-width="2" d="M675,-925C675,-925 622,-925 622,-925 616,-925 610,-919 610,-913 610,-913 610,-901 610,-901 610,-895 616,-889 622,-889 622,-889 675,-889 675,-889 681,-889 687,-895 687,-901 687,-901 687,-913 687,-913 687,-919 681,-925 675,-925"/>
<text text-anchor="middle" x="648.5" y="-904.5" font-family="sans" font-size="10.00" fill="#000000">Apply_BQSR</text>
</g>
<!-- 29&#45;&gt;38 -->
<g id="edge79" class="edge">
<title>29&#45;&gt;38</title>
<path fill="none" stroke="#c0c0c0" stroke-width="2" d="M619.3413,-960.8314C623.6957,-952.7925 628.9098,-943.1666 633.7169,-934.2918"/>
<polygon fill="#c0c0c0" stroke="#c0c0c0" stroke-width="2" points="636.8408,-935.8732 638.5261,-925.4133 630.6857,-932.5392 636.8408,-935.8732"/>
</g>
<!-- 30 -->
<g id="node31" class="node">
<title>30</title>
<path fill="none" stroke="#80d856" stroke-width="2" d="M643.5,-1069C643.5,-1069 613.5,-1069 613.5,-1069 607.5,-1069 601.5,-1063 601.5,-1057 601.5,-1057 601.5,-1045 601.5,-1045 601.5,-1039 607.5,-1033 613.5,-1033 613.5,-1033 643.5,-1033 643.5,-1033 649.5,-1033 655.5,-1039 655.5,-1045 655.5,-1045 655.5,-1057 655.5,-1057 655.5,-1063 649.5,-1069 643.5,-1069"/>
<text text-anchor="middle" x="628.5" y="-1048.5" font-family="sans" font-size="10.00" fill="#000000">Tags</text>
</g>
<!-- 30&#45;&gt;29 -->
<g id="edge69" class="edge">
<title>30&#45;&gt;29</title>
<path fill="none" stroke="#c0c0c0" stroke-width="2" d="M623.7055,-1032.8314C621.6511,-1025.0463 619.204,-1015.7729 616.9244,-1007.1347"/>
<polygon fill="#c0c0c0" stroke="#c0c0c0" stroke-width="2" points="620.2948,-1006.1892 614.3591,-997.4133 613.5265,-1007.9753 620.2948,-1006.1892"/>
</g>
<!-- 30&#45;&gt;38 -->
<g id="edge78" class="edge">
<title>30&#45;&gt;38</title>
<path fill="none" stroke="#c0c0c0" stroke-width="2" d="M649.3578,-1032.6461C658.654,-1023.0709 668.5978,-1010.54 673.5,-997 680.9527,-976.4152 673.5929,-952.5127 664.9705,-934.5161"/>
<polygon fill="#c0c0c0" stroke="#c0c0c0" stroke-width="2" points="667.844,-932.4537 660.1365,-925.1841 661.6284,-935.6734 667.844,-932.4537"/>
</g>
<!-- 31&#45;&gt;30 -->
<g id="edge70" class="edge">
<title>31&#45;&gt;30</title>
<path fill="none" stroke="#c0c0c0" stroke-width="2" d="M628.5,-1104.8314C628.5,-1097.131 628.5,-1087.9743 628.5,-1079.4166"/>
<polygon fill="#c0c0c0" stroke="#c0c0c0" stroke-width="2" points="632.0001,-1079.4132 628.5,-1069.4133 625.0001,-1079.4133 632.0001,-1079.4132"/>
</g>
<!-- 32 -->
<g id="node33" class="node">
<title>32</title>
<path fill="none" stroke="#97d856" stroke-width="2" d="M1084,-997C1084,-997 999,-997 999,-997 993,-997 987,-991 987,-985 987,-985 987,-973 987,-973 987,-967 993,-961 999,-961 999,-961 1084,-961 1084,-961 1090,-961 1096,-967 1096,-973 1096,-973 1096,-985 1096,-985 1096,-991 1090,-997 1084,-997"/>
<text text-anchor="middle" x="1041.5" y="-976.5" font-family="sans" font-size="10.00" fill="#000000">BQSR_build_model</text>
</g>
<!-- 32&#45;&gt;0 -->
<g id="edge20" class="edge">
<title>32&#45;&gt;0</title>
<path fill="none" stroke="#c0c0c0" stroke-width="2" d="M1037.4928,-960.6254C1026.1269,-906.8454 994.5,-744.9798 994.5,-609 994.5,-609 994.5,-609 994.5,-169.5 994.5,-121.586 1010.737,-109.5489 1040.5,-72 1049.6178,-60.497 1061.6367,-49.9326 1073.0308,-41.2567"/>
<polygon fill="#c0c0c0" stroke="#c0c0c0" stroke-width="2" points="1075.175,-44.0246 1081.1668,-35.2867 1071.0338,-38.3809 1075.175,-44.0246"/>
</g>
<!-- 39 -->
<g id="node40" class="node">
<title>39</title>
<path fill="none" stroke="#a7d856" stroke-width="2" d="M1141,-925C1141,-925 1088,-925 1088,-925 1082,-925 1076,-919 1076,-913 1076,-913 1076,-901 1076,-901 1076,-895 1082,-889 1088,-889 1088,-889 1141,-889 1141,-889 1147,-889 1153,-895 1153,-901 1153,-901 1153,-913 1153,-913 1153,-919 1147,-925 1141,-925"/>
<text text-anchor="middle" x="1114.5" y="-904.5" font-family="sans" font-size="10.00" fill="#000000">Apply_BQSR</text>
</g>
<!-- 32&#45;&gt;39 -->
<g id="edge81" class="edge">
<title>32&#45;&gt;39</title>
<path fill="none" stroke="#c0c0c0" stroke-width="2" d="M1059.921,-960.8314C1068.6529,-952.219 1079.2317,-941.7851 1088.7423,-932.4048"/>
<polygon fill="#c0c0c0" stroke="#c0c0c0" stroke-width="2" points="1091.423,-934.6769 1096.0849,-925.1628 1086.5075,-929.6931 1091.423,-934.6769"/>
</g>
<!-- 33 -->
<g id="node34" class="node">
<title>33</title>
<path fill="none" stroke="#80d856" stroke-width="2" d="M1106.5,-1069C1106.5,-1069 1076.5,-1069 1076.5,-1069 1070.5,-1069 1064.5,-1063 1064.5,-1057 1064.5,-1057 1064.5,-1045 1064.5,-1045 1064.5,-1039 1070.5,-1033 1076.5,-1033 1076.5,-1033 1106.5,-1033 1106.5,-1033 1112.5,-1033 1118.5,-1039 1118.5,-1045 1118.5,-1045 1118.5,-1057 1118.5,-1057 1118.5,-1063 1112.5,-1069 1106.5,-1069"/>
<text text-anchor="middle" x="1091.5" y="-1048.5" font-family="sans" font-size="10.00" fill="#000000">Tags</text>
</g>
<!-- 33&#45;&gt;32 -->
<g id="edge72" class="edge">
<title>33&#45;&gt;32</title>
<path fill="none" stroke="#c0c0c0" stroke-width="2" d="M1078.8829,-1032.8314C1073.1828,-1024.6232 1066.3337,-1014.7606 1060.0641,-1005.7323"/>
<polygon fill="#c0c0c0" stroke="#c0c0c0" stroke-width="2" points="1062.8658,-1003.6306 1054.287,-997.4133 1057.1162,-1007.6234 1062.8658,-1003.6306"/>
</g>
<!-- 33&#45;&gt;39 -->
<g id="edge80" class="edge">
<title>33&#45;&gt;39</title>
<path fill="none" stroke="#c0c0c0" stroke-width="2" d="M1097.0048,-1032.6608C1099.9303,-1022.2822 1103.3553,-1009.0131 1105.5,-997 1109.174,-976.4209 1111.4607,-952.907 1112.8094,-935.0757"/>
<polygon fill="#c0c0c0" stroke="#c0c0c0" stroke-width="2" points="1116.3048,-935.2631 1113.5152,-925.0421 1109.322,-934.7718 1116.3048,-935.2631"/>
</g>
<!-- 34&#45;&gt;33 -->
<g id="edge73" class="edge">
<title>34&#45;&gt;33</title>
<path fill="none" stroke="#c0c0c0" stroke-width="2" d="M1091.5,-1104.8314C1091.5,-1097.131 1091.5,-1087.9743 1091.5,-1079.4166"/>
<polygon fill="#c0c0c0" stroke="#c0c0c0" stroke-width="2" points="1095.0001,-1079.4132 1091.5,-1069.4133 1088.0001,-1079.4133 1095.0001,-1079.4132"/>
</g>
<!-- 35 -->
<g id="node36" class="node">
<title>35</title>
<path fill="none" stroke="#97d856" stroke-width="2" d="M2030,-997C2030,-997 1945,-997 1945,-997 1939,-997 1933,-991 1933,-985 1933,-985 1933,-973 1933,-973 1933,-967 1939,-961 1945,-961 1945,-961 2030,-961 2030,-961 2036,-961 2042,-967 2042,-973 2042,-973 2042,-985 2042,-985 2042,-991 2036,-997 2030,-997"/>
<text text-anchor="middle" x="1987.5" y="-976.5" font-family="sans" font-size="10.00" fill="#000000">BQSR_build_model</text>
</g>
<!-- 35&#45;&gt;0 -->
<g id="edge21" class="edge">
<title>35&#45;&gt;0</title>
<path fill="none" stroke="#c0c0c0" stroke-width="2" d="M1972.6305,-960.7109C1952.8918,-934.5269 1920.5,-884.081 1920.5,-835 1920.5,-835 1920.5,-835 1920.5,-169.5 1920.5,-124.8732 1930.6632,-100.7129 1896.5,-72 1867.4437,-47.5792 1299.0762,-25.003 1146.1269,-19.3518"/>
<polygon fill="#c0c0c0" stroke="#c0c0c0" stroke-width="2" points="1145.9673,-15.8437 1135.8456,-18.9744 1145.7104,-22.839 1145.9673,-15.8437"/>
</g>
<!-- 40 -->
<g id="node41" class="node">
<title>40</title>
<path fill="none" stroke="#a7d856" stroke-width="2" d="M2097,-925C2097,-925 2044,-925 2044,-925 2038,-925 2032,-919 2032,-913 2032,-913 2032,-901 2032,-901 2032,-895 2038,-889 2044,-889 2044,-889 2097,-889 2097,-889 2103,-889 2109,-895 2109,-901 2109,-901 2109,-913 2109,-913 2109,-919 2103,-925 2097,-925"/>
<text text-anchor="middle" x="2070.5" y="-904.5" font-family="sans" font-size="10.00" fill="#000000">Apply_BQSR</text>
</g>
<!-- 35&#45;&gt;40 -->
<g id="edge83" class="edge">
<title>35&#45;&gt;40</title>
<path fill="none" stroke="#c0c0c0" stroke-width="2" d="M2008.4444,-960.8314C2018.5691,-952.0485 2030.8777,-941.3712 2041.8548,-931.8489"/>
<polygon fill="#c0c0c0" stroke="#c0c0c0" stroke-width="2" points="2044.3019,-934.3595 2049.5623,-925.1628 2039.7149,-929.0718 2044.3019,-934.3595"/>
</g>
<!-- 36 -->
<g id="node37" class="node">
<title>36</title>
<path fill="none" stroke="#80d856" stroke-width="2" d="M2083.5,-1069C2083.5,-1069 2053.5,-1069 2053.5,-1069 2047.5,-1069 2041.5,-1063 2041.5,-1057 2041.5,-1057 2041.5,-1045 2041.5,-1045 2041.5,-1039 2047.5,-1033 2053.5,-1033 2053.5,-1033 2083.5,-1033 2083.5,-1033 2089.5,-1033 2095.5,-1039 2095.5,-1045 2095.5,-1045 2095.5,-1057 2095.5,-1057 2095.5,-1063 2089.5,-1069 2083.5,-1069"/>
<text text-anchor="middle" x="2068.5" y="-1048.5" font-family="sans" font-size="10.00" fill="#000000">Tags</text>
</g>
<!-- 36&#45;&gt;35 -->
<g id="edge75" class="edge">
<title>36&#45;&gt;35</title>
<path fill="none" stroke="#c0c0c0" stroke-width="2" d="M2048.0603,-1032.8314C2038.1795,-1024.0485 2026.1676,-1013.3712 2015.455,-1003.8489"/>
<polygon fill="#c0c0c0" stroke="#c0c0c0" stroke-width="2" points="2017.7326,-1001.1906 2007.9332,-997.1628 2013.082,-1006.4224 2017.7326,-1001.1906"/>
</g>
<!-- 36&#45;&gt;40 -->
<g id="edge82" class="edge">
<title>36&#45;&gt;40</title>
<path fill="none" stroke="#c0c0c0" stroke-width="2" d="M2068.7533,-1032.7623C2069.0944,-1008.201 2069.7049,-964.2474 2070.1062,-935.3541"/>
<polygon fill="#c0c0c0" stroke="#c0c0c0" stroke-width="2" points="2073.6094,-935.1373 2070.2488,-925.0896 2066.6101,-935.04 2073.6094,-935.1373"/>
</g>
<!-- 37&#45;&gt;36 -->
<g id="edge76" class="edge">
<title>37&#45;&gt;36</title>
<path fill="none" stroke="#c0c0c0" stroke-width="2" d="M2068.5,-1104.8314C2068.5,-1097.131 2068.5,-1087.9743 2068.5,-1079.4166"/>
<polygon fill="#c0c0c0" stroke="#c0c0c0" stroke-width="2" points="2072.0001,-1079.4132 2068.5,-1069.4133 2065.0001,-1079.4133 2072.0001,-1079.4132"/>
</g>
<!-- 38&#45;&gt;0 -->
<g id="edge22" class="edge">
<title>38&#45;&gt;0</title>
<path fill="none" stroke="#c0c0c0" stroke-width="2" d="M638.7446,-888.6186C625.2417,-861.4185 602.5,-808.485 602.5,-760.5 602.5,-760.5 602.5,-760.5 602.5,-609 602.5,-510.5796 566.5,-488.9204 566.5,-390.5 566.5,-390.5 566.5,-390.5 566.5,-169.5 566.5,-113.7275 596.6347,-98.884 645.5,-72 718.6264,-31.7684 974.4942,-21.3116 1071.1478,-18.767"/>
<polygon fill="#c0c0c0" stroke="#c0c0c0" stroke-width="2" points="1071.4189,-22.2615 1081.3285,-18.5131 1071.2443,-15.2636 1071.4189,-22.2615"/>
</g>
<!-- 41 -->
<g id="node42" class="node">
<title>41</title>
<path fill="none" stroke="#d86656" stroke-width="2" d="M690,-483C690,-483 607,-483 607,-483 601,-483 595,-477 595,-471 595,-471 595,-459 595,-459 595,-453 601,-447 607,-447 607,-447 690,-447 690,-447 696,-447 702,-453 702,-459 702,-459 702,-471 702,-471 702,-477 696,-483 690,-483"/>
<text text-anchor="middle" x="648.5" y="-462.5" font-family="sans" font-size="10.00" fill="#000000">qualimap_exomes</text>
</g>
<!-- 38&#45;&gt;41 -->
<g id="edge84" class="edge">
<title>38&#45;&gt;41</title>
<path fill="none" stroke="#c0c0c0" stroke-width="2" d="M648.5,-888.9571C648.5,-861.3072 648.5,-806.7899 648.5,-760.5 648.5,-760.5 648.5,-760.5 648.5,-609 648.5,-568.876 648.5,-522.4631 648.5,-493.4177"/>
<polygon fill="#c0c0c0" stroke="#c0c0c0" stroke-width="2" points="652.0001,-493.1853 648.5,-483.1854 645.0001,-493.1854 652.0001,-493.1853"/>
</g>
<!-- 44 -->
<g id="node45" class="node">
<title>44</title>
<path fill="none" stroke="#56d8a9" stroke-width="2" d="M918,-853C918,-853 847,-853 847,-853 841,-853 835,-847 835,-841 835,-841 835,-829 835,-829 835,-823 841,-817 847,-817 847,-817 918,-817 918,-817 924,-817 930,-823 930,-829 930,-829 930,-841 930,-841 930,-847 924,-853 918,-853"/>
<text text-anchor="middle" x="882.5" y="-832.5" font-family="sans" font-size="10.00" fill="#000000">HaplotypeCaller</text>
</g>
<!-- 38&#45;&gt;44 -->
<g id="edge87" class="edge">
<title>38&#45;&gt;44</title>
<path fill="none" stroke="#c0c0c0" stroke-width="2" d="M687.1403,-895.1107C724.7142,-883.5495 782.2425,-865.8485 825.1544,-852.6448"/>
<polygon fill="#c0c0c0" stroke="#c0c0c0" stroke-width="2" points="826.3714,-855.9324 834.8998,-849.6462 824.3127,-849.2419 826.3714,-855.9324"/>
</g>
<!-- 39&#45;&gt;0 -->
<g id="edge23" class="edge">
<title>39&#45;&gt;0</title>
<path fill="none" stroke="#c0c0c0" stroke-width="2" d="M1096.7454,-888.8529C1073.1768,-862.7601 1034.5,-812.0829 1034.5,-760.5 1034.5,-760.5 1034.5,-760.5 1034.5,-683.5 1034.5,-553.2747 1032.5,-520.7253 1032.5,-390.5 1032.5,-390.5 1032.5,-390.5 1032.5,-169.5 1032.5,-121.2918 1063.6251,-72.7402 1086.038,-44.028"/>
<polygon fill="#c0c0c0" stroke="#c0c0c0" stroke-width="2" points="1088.8518,-46.1139 1092.3824,-36.1246 1083.393,-41.7319 1088.8518,-46.1139"/>
</g>
<!-- 42 -->
<g id="node43" class="node">
<title>42</title>
<path fill="none" stroke="#d86656" stroke-width="2" d="M1156,-408.5C1156,-408.5 1073,-408.5 1073,-408.5 1067,-408.5 1061,-402.5 1061,-396.5 1061,-396.5 1061,-384.5 1061,-384.5 1061,-378.5 1067,-372.5 1073,-372.5 1073,-372.5 1156,-372.5 1156,-372.5 1162,-372.5 1168,-378.5 1168,-384.5 1168,-384.5 1168,-396.5 1168,-396.5 1168,-402.5 1162,-408.5 1156,-408.5"/>
<text text-anchor="middle" x="1114.5" y="-388" font-family="sans" font-size="10.00" fill="#000000">qualimap_exomes</text>
</g>
<!-- 39&#45;&gt;42 -->
<g id="edge85" class="edge">
<title>39&#45;&gt;42</title>
<path fill="none" stroke="#c0c0c0" stroke-width="2" d="M1114.5,-888.9571C1114.5,-861.3072 1114.5,-806.7899 1114.5,-760.5 1114.5,-760.5 1114.5,-760.5 1114.5,-537 1114.5,-495.9539 1114.5,-448.4388 1114.5,-418.9229"/>
<polygon fill="#c0c0c0" stroke="#c0c0c0" stroke-width="2" points="1118.0001,-418.5429 1114.5,-408.5429 1111.0001,-418.5429 1118.0001,-418.5429"/>
</g>
<!-- 45 -->
<g id="node46" class="node">
<title>45</title>
<path fill="none" stroke="#56d8a9" stroke-width="2" d="M1232,-853C1232,-853 1161,-853 1161,-853 1155,-853 1149,-847 1149,-841 1149,-841 1149,-829 1149,-829 1149,-823 1155,-817 1161,-817 1161,-817 1232,-817 1232,-817 1238,-817 1244,-823 1244,-829 1244,-829 1244,-841 1244,-841 1244,-847 1238,-853 1232,-853"/>
<text text-anchor="middle" x="1196.5" y="-832.5" font-family="sans" font-size="10.00" fill="#000000">HaplotypeCaller</text>
</g>
<!-- 39&#45;&gt;45 -->
<g id="edge88" class="edge">
<title>39&#45;&gt;45</title>
<path fill="none" stroke="#c0c0c0" stroke-width="2" d="M1135.1921,-888.8314C1145.1948,-880.0485 1157.355,-869.3712 1168.1999,-859.8489"/>
<polygon fill="#c0c0c0" stroke="#c0c0c0" stroke-width="2" points="1170.6094,-862.3909 1175.8146,-853.1628 1165.9908,-857.1308 1170.6094,-862.3909"/>
</g>
<!-- 40&#45;&gt;0 -->
<g id="edge24" class="edge">
<title>40&#45;&gt;0</title>
<path fill="none" stroke="#c0c0c0" stroke-width="2" d="M2067.063,-888.7704C2057.0321,-835.5605 2028.5,-684.1508 2028.5,-683.5 2028.5,-683.5 2028.5,-683.5 2028.5,-169.5 2028.5,-117.665 2009.316,-98.046 1964.5,-72 1893.0007,-30.4463 1301.0198,-20.3475 1145.6993,-18.4032"/>
<polygon fill="#c0c0c0" stroke="#c0c0c0" stroke-width="2" points="1145.7379,-14.9035 1135.6961,-18.2818 1145.6529,-21.903 1145.7379,-14.9035"/>
</g>
<!-- 43 -->
<g id="node44" class="node">
<title>43</title>
<path fill="none" stroke="#d86656" stroke-width="2" d="M2152,-778.5C2152,-778.5 2069,-778.5 2069,-778.5 2063,-778.5 2057,-772.5 2057,-766.5 2057,-766.5 2057,-754.5 2057,-754.5 2057,-748.5 2063,-742.5 2069,-742.5 2069,-742.5 2152,-742.5 2152,-742.5 2158,-742.5 2164,-748.5 2164,-754.5 2164,-754.5 2164,-766.5 2164,-766.5 2164,-772.5 2158,-778.5 2152,-778.5"/>
<text text-anchor="middle" x="2110.5" y="-758" font-family="sans" font-size="10.00" fill="#000000">qualimap_exomes</text>
</g>
<!-- 40&#45;&gt;43 -->
<g id="edge86" class="edge">
<title>40&#45;&gt;43</title>
<path fill="none" stroke="#c0c0c0" stroke-width="2" d="M2076.1364,-888.5506C2079.275,-878.1375 2083.2025,-864.8706 2086.5,-853 2092.5044,-831.3853 2098.8614,-806.7982 2103.5234,-788.4087"/>
<polygon fill="#c0c0c0" stroke="#c0c0c0" stroke-width="2" points="2106.9384,-789.1804 2105.9914,-778.6279 2100.1511,-787.4677 2106.9384,-789.1804"/>
</g>
<!-- 46 -->
<g id="node47" class="node">
<title>46</title>
<path fill="none" stroke="#56d8a9" stroke-width="2" d="M2032,-853C2032,-853 1961,-853 1961,-853 1955,-853 1949,-847 1949,-841 1949,-841 1949,-829 1949,-829 1949,-823 1955,-817 1961,-817 1961,-817 2032,-817 2032,-817 2038,-817 2044,-823 2044,-829 2044,-829 2044,-841 2044,-841 2044,-847 2038,-853 2032,-853"/>
<text text-anchor="middle" x="1996.5" y="-832.5" font-family="sans" font-size="10.00" fill="#000000">HaplotypeCaller</text>
</g>
<!-- 40&#45;&gt;46 -->
<g id="edge89" class="edge">
<title>40&#45;&gt;46</title>
<path fill="none" stroke="#c0c0c0" stroke-width="2" d="M2051.8267,-888.8314C2042.9751,-880.219 2032.2514,-869.7851 2022.6105,-860.4048"/>
<polygon fill="#c0c0c0" stroke="#c0c0c0" stroke-width="2" points="2024.7754,-857.6279 2015.1674,-853.1628 2019.8939,-862.645 2024.7754,-857.6279"/>
</g>
<!-- 41&#45;&gt;0 -->
<g id="edge25" class="edge">
<title>41&#45;&gt;0</title>
<path fill="none" stroke="#c0c0c0" stroke-width="2" d="M648.7024,-446.6495C648.9946,-418.528 649.5,-363.0809 649.5,-316 649.5,-316 649.5,-316 649.5,-169.5 649.5,-124.7648 640.9207,-101.5579 674.5,-72 704.0914,-45.9524 971.3043,-26.6278 1071.1175,-20.2611"/>
<polygon fill="#c0c0c0" stroke="#c0c0c0" stroke-width="2" points="1071.5818,-23.7389 1081.342,-19.617 1071.1417,-16.7527 1071.5818,-23.7389"/>
</g>
<!-- 42&#45;&gt;0 -->
<g id="edge26" class="edge">
<title>42&#45;&gt;0</title>
<path fill="none" stroke="#c0c0c0" stroke-width="2" d="M1105.1687,-372.07C1092.2529,-344.8095 1070.5,-291.8015 1070.5,-244 1070.5,-244 1070.5,-244 1070.5,-169.5 1070.5,-125.1597 1086.0032,-75.6537 1097.2048,-45.6709"/>
<polygon fill="#c0c0c0" stroke="#c0c0c0" stroke-width="2" points="1100.4908,-46.877 1100.8101,-36.287 1093.9565,-44.3665 1100.4908,-46.877"/>
</g>
<!-- 43&#45;&gt;0 -->
<g id="edge27" class="edge">
<title>43&#45;&gt;0</title>
<path fill="none" stroke="#c0c0c0" stroke-width="2" d="M2106.1535,-742.4333C2099.742,-714.1554 2088.5,-657.6377 2088.5,-609 2088.5,-609 2088.5,-609 2088.5,-169.5 2088.5,-121.586 2082.2105,-98.8109 2042.5,-72 2004.7344,-46.5022 1315.3031,-24.2074 1145.8712,-19.0974"/>
<polygon fill="#c0c0c0" stroke="#c0c0c0" stroke-width="2" points="1145.7996,-15.5938 1135.6992,-18.7925 1145.5898,-22.5906 1145.7996,-15.5938"/>
</g>
<!-- 44&#45;&gt;0 -->
<g id="edge28" class="edge">
<title>44&#45;&gt;0</title>
<path fill="none" stroke="#c0c0c0" stroke-width="2" d="M874.8101,-816.713C863.7064,-788.605 844.5,-732.8526 844.5,-683.5 844.5,-683.5 844.5,-683.5 844.5,-390.5 844.5,-241.4505 842.2153,-175.4685 949.5,-72 982.7316,-39.9504 1035.6958,-26.8886 1071.2611,-21.5871"/>
<polygon fill="#c0c0c0" stroke="#c0c0c0" stroke-width="2" points="1071.8097,-25.0449 1081.2489,-20.2332 1070.8694,-18.1083 1071.8097,-25.0449"/>
</g>
<!-- 48 -->
<g id="node49" class="node">
<title>48</title>
<path fill="none" stroke="#ced856" stroke-width="2" d="M1334.5,-778.5C1334.5,-778.5 1246.5,-778.5 1246.5,-778.5 1240.5,-778.5 1234.5,-772.5 1234.5,-766.5 1234.5,-766.5 1234.5,-754.5 1234.5,-754.5 1234.5,-748.5 1240.5,-742.5 1246.5,-742.5 1246.5,-742.5 1334.5,-742.5 1334.5,-742.5 1340.5,-742.5 1346.5,-748.5 1346.5,-754.5 1346.5,-754.5 1346.5,-766.5 1346.5,-766.5 1346.5,-772.5 1340.5,-778.5 1334.5,-778.5"/>
<text text-anchor="middle" x="1290.5" y="-758" font-family="sans" font-size="10.00" fill="#000000">GenomicsDBImport</text>
</g>
<!-- 44&#45;&gt;48 -->
<g id="edge91" class="edge">
<title>44&#45;&gt;48</title>
<path fill="none" stroke="#c0c0c0" stroke-width="2" d="M930.1013,-826.3081C1002.8467,-813.0249 1141.9031,-787.6335 1224.396,-772.5705"/>
<polygon fill="#c0c0c0" stroke="#c0c0c0" stroke-width="2" points="1225.2053,-775.9806 1234.4139,-770.7412 1223.9479,-769.0945 1225.2053,-775.9806"/>
</g>
<!-- 45&#45;&gt;0 -->
<g id="edge29" class="edge">
<title>45&#45;&gt;0</title>
<path fill="none" stroke="#c0c0c0" stroke-width="2" d="M1196.5,-816.8101C1196.5,-788.3675 1196.5,-731.6328 1196.5,-683.5 1196.5,-683.5 1196.5,-683.5 1196.5,-465 1196.5,-422.5846 1134.7147,-137.4093 1114.6861,-46.0796"/>
<polygon fill="#c0c0c0" stroke="#c0c0c0" stroke-width="2" points="1118.0734,-45.1865 1112.5098,-36.1701 1111.2364,-46.6881 1118.0734,-45.1865"/>
</g>
<!-- 45&#45;&gt;48 -->
<g id="edge92" class="edge">
<title>45&#45;&gt;48</title>
<path fill="none" stroke="#c0c0c0" stroke-width="2" d="M1219.2548,-816.9656C1231.4038,-807.3369 1246.529,-795.3493 1259.7141,-784.8995"/>
<polygon fill="#c0c0c0" stroke="#c0c0c0" stroke-width="2" points="1261.9658,-787.5808 1267.629,-778.6265 1257.6179,-782.0949 1261.9658,-787.5808"/>
</g>
<!-- 46&#45;&gt;0 -->
<g id="edge30" class="edge">
<title>46&#45;&gt;0</title>
<path fill="none" stroke="#c0c0c0" stroke-width="2" d="M1992.1535,-816.9333C1985.742,-788.6554 1974.5,-732.1377 1974.5,-683.5 1974.5,-683.5 1974.5,-683.5 1974.5,-169.5 1974.5,-122.6617 1972.5285,-99.3434 1934.5,-72 1869.908,-25.5567 1299.0489,-19.0562 1146.0746,-18.1474"/>
<polygon fill="#c0c0c0" stroke="#c0c0c0" stroke-width="2" points="1145.8144,-14.6461 1135.7953,-18.0912 1145.776,-21.646 1145.8144,-14.6461"/>
</g>
<!-- 46&#45;&gt;48 -->
<g id="edge93" class="edge">
<title>46&#45;&gt;48</title>
<path fill="none" stroke="#c0c0c0" stroke-width="2" d="M1948.8053,-829.9671C1825.961,-817.004 1498.47,-782.4458 1357.0554,-767.5232"/>
<polygon fill="#c0c0c0" stroke="#c0c0c0" stroke-width="2" points="1357.1065,-764.0092 1346.7944,-766.4404 1356.3718,-770.9706 1357.1065,-764.0092"/>
</g>
<!-- 47 -->
<g id="node48" class="node">
<title>47</title>
<path fill="none" stroke="#56d892" stroke-width="2" d="M1331,-701.5C1331,-701.5 1260,-701.5 1260,-701.5 1254,-701.5 1248,-695.5 1248,-689.5 1248,-689.5 1248,-677.5 1248,-677.5 1248,-671.5 1254,-665.5 1260,-665.5 1260,-665.5 1331,-665.5 1331,-665.5 1337,-665.5 1343,-671.5 1343,-677.5 1343,-677.5 1343,-689.5 1343,-689.5 1343,-695.5 1337,-701.5 1331,-701.5"/>
<text text-anchor="middle" x="1295.5" y="-681" font-family="sans" font-size="10.00" fill="#000000">GenotypeGVCFs</text>
</g>
<!-- 47&#45;&gt;0 -->
<g id="edge31" class="edge">
<title>47&#45;&gt;0</title>
<path fill="none" stroke="#c0c0c0" stroke-width="2" d="M1278.9055,-665.4486C1270.1042,-654.9451 1259.8308,-641.0387 1253.5,-627 1236.694,-589.7325 1234.5,-577.8816 1234.5,-537 1234.5,-537 1234.5,-537 1234.5,-465 1234.5,-300.5435 1154.5133,-114.387 1121.9991,-45.509"/>
<polygon fill="#c0c0c0" stroke="#c0c0c0" stroke-width="2" points="1125.0286,-43.7306 1117.5616,-36.2142 1118.7116,-46.7465 1125.0286,-43.7306"/>
</g>
<!-- 49 -->
<g id="node50" class="node">
<title>49</title>
<path fill="none" stroke="#d89c56" stroke-width="2" d="M1593.5,-627C1593.5,-627 1537.5,-627 1537.5,-627 1531.5,-627 1525.5,-621 1525.5,-615 1525.5,-615 1525.5,-603 1525.5,-603 1525.5,-597 1531.5,-591 1537.5,-591 1537.5,-591 1593.5,-591 1593.5,-591 1599.5,-591 1605.5,-597 1605.5,-603 1605.5,-603 1605.5,-615 1605.5,-615 1605.5,-621 1599.5,-627 1593.5,-627"/>
<text text-anchor="middle" x="1565.5" y="-606.5" font-family="sans" font-size="10.00" fill="#000000">extractIndels</text>
</g>
<!-- 47&#45;&gt;49 -->
<g id="edge94" class="edge">
<title>47&#45;&gt;49</title>
<path fill="none" stroke="#c0c0c0" stroke-width="2" d="M1343.1491,-670.3524C1391.5873,-656.987 1466.3184,-636.3668 1515.5646,-622.7785"/>
<polygon fill="#c0c0c0" stroke="#c0c0c0" stroke-width="2" points="1516.6542,-626.1087 1525.363,-620.0748 1514.7922,-619.3609 1516.6542,-626.1087"/>
</g>
<!-- 50 -->
<g id="node51" class="node">
<title>50</title>
<path fill="none" stroke="#567bd8" stroke-width="2" d="M1326.5,-627C1326.5,-627 1274.5,-627 1274.5,-627 1268.5,-627 1262.5,-621 1262.5,-615 1262.5,-615 1262.5,-603 1262.5,-603 1262.5,-597 1268.5,-591 1274.5,-591 1274.5,-591 1326.5,-591 1326.5,-591 1332.5,-591 1338.5,-597 1338.5,-603 1338.5,-603 1338.5,-615 1338.5,-615 1338.5,-621 1332.5,-627 1326.5,-627"/>
<text text-anchor="middle" x="1300.5" y="-606.5" font-family="sans" font-size="10.00" fill="#000000">extractSNPs</text>
</g>
<!-- 47&#45;&gt;50 -->
<g id="edge95" class="edge">
<title>47&#45;&gt;50</title>
<path fill="none" stroke="#c0c0c0" stroke-width="2" d="M1296.7104,-665.4656C1297.2773,-657.0178 1297.9662,-646.7542 1298.6002,-637.3064"/>
<polygon fill="#c0c0c0" stroke="#c0c0c0" stroke-width="2" points="1302.1059,-637.3385 1299.2835,-627.1265 1295.1216,-636.8697 1302.1059,-637.3385"/>
</g>
<!-- 48&#45;&gt;47 -->
<g id="edge90" class="edge">
<title>48&#45;&gt;47</title>
<path fill="none" stroke="#c0c0c0" stroke-width="2" d="M1291.6849,-742.2521C1292.2765,-733.1422 1293.0054,-721.9174 1293.667,-711.7282"/>
<polygon fill="#c0c0c0" stroke="#c0c0c0" stroke-width="2" points="1297.1681,-711.8228 1294.3236,-701.6169 1290.1829,-711.3691 1297.1681,-711.8228"/>
</g>
<!-- 49&#45;&gt;0 -->
<g id="edge32" class="edge">
<title>49&#45;&gt;0</title>
<path fill="none" stroke="#c0c0c0" stroke-width="2" d="M1605.8635,-594.3264C1654.7116,-573.6599 1730.5,-530.9661 1730.5,-465 1730.5,-465 1730.5,-465 1730.5,-169.5 1730.5,-109.6149 1691.2827,-98.3372 1637.5,-72 1550.6295,-29.4598 1251.52,-20.3808 1145.8431,-18.4867"/>
<polygon fill="#c0c0c0" stroke="#c0c0c0" stroke-width="2" points="1145.7133,-14.9841 1135.656,-18.3159 1145.5959,-21.9831 1145.7133,-14.9841"/>
</g>
<!-- 54 -->
<g id="node55" class="node">
<title>54</title>
<path fill="none" stroke="#566bd8" stroke-width="2" d="M1600,-555C1600,-555 1531,-555 1531,-555 1525,-555 1519,-549 1519,-543 1519,-543 1519,-531 1519,-531 1519,-525 1525,-519 1531,-519 1531,-519 1600,-519 1600,-519 1606,-519 1612,-525 1612,-531 1612,-531 1612,-543 1612,-543 1612,-549 1606,-555 1600,-555"/>
<text text-anchor="middle" x="1565.5" y="-534.5" font-family="sans" font-size="10.00" fill="#000000">HardFilterIndels</text>
</g>
<!-- 49&#45;&gt;54 -->
<g id="edge99" class="edge">
<title>49&#45;&gt;54</title>
<path fill="none" stroke="#c0c0c0" stroke-width="2" d="M1565.5,-590.8314C1565.5,-583.131 1565.5,-573.9743 1565.5,-565.4166"/>
<polygon fill="#c0c0c0" stroke="#c0c0c0" stroke-width="2" points="1569.0001,-565.4132 1565.5,-555.4133 1562.0001,-565.4133 1569.0001,-565.4132"/>
</g>
<!-- 50&#45;&gt;0 -->
<g id="edge33" class="edge">
<title>50&#45;&gt;0</title>
<path fill="none" stroke="#c0c0c0" stroke-width="2" d="M1297.1325,-590.8556C1281.5484,-507.9837 1214.8768,-165.4831 1160.5,-72 1154.4264,-61.5584 1145.9217,-51.5901 1137.5472,-43.1244"/>
<polygon fill="#c0c0c0" stroke="#c0c0c0" stroke-width="2" points="1139.9057,-40.5363 1130.2855,-36.0975 1135.0379,-45.5667 1139.9057,-40.5363"/>
</g>
<!-- 52 -->
<g id="node53" class="node">
<title>52</title>
<path fill="none" stroke="#70d856" stroke-width="2" d="M1379,-555C1379,-555 1314,-555 1314,-555 1308,-555 1302,-549 1302,-543 1302,-543 1302,-531 1302,-531 1302,-525 1308,-519 1314,-519 1314,-519 1379,-519 1379,-519 1385,-519 1391,-525 1391,-531 1391,-531 1391,-543 1391,-543 1391,-549 1385,-555 1379,-555"/>
<text text-anchor="middle" x="1346.5" y="-534.5" font-family="sans" font-size="10.00" fill="#000000">HardFilterSNPs</text>
</g>
<!-- 50&#45;&gt;52 -->
<g id="edge97" class="edge">
<title>50&#45;&gt;52</title>
<path fill="none" stroke="#c0c0c0" stroke-width="2" d="M1312.1077,-590.8314C1317.2978,-582.7079 1323.5232,-572.9637 1329.2425,-564.0118"/>
<polygon fill="#c0c0c0" stroke="#c0c0c0" stroke-width="2" points="1332.3015,-565.7246 1334.736,-555.4133 1326.4026,-561.9559 1332.3015,-565.7246"/>
</g>
<!-- 51 -->
<g id="node52" class="node">
<title>51</title>
<path fill="none" stroke="#56d882" stroke-width="2" d="M1382,-483C1382,-483 1313,-483 1313,-483 1307,-483 1301,-477 1301,-471 1301,-471 1301,-459 1301,-459 1301,-453 1307,-447 1313,-447 1313,-447 1382,-447 1382,-447 1388,-447 1394,-453 1394,-459 1394,-459 1394,-471 1394,-471 1394,-477 1388,-483 1382,-483"/>
<text text-anchor="middle" x="1347.5" y="-462.5" font-family="sans" font-size="10.00" fill="#000000">ApplyFilterSNPs</text>
</g>
<!-- 51&#45;&gt;0 -->
<g id="edge34" class="edge">
<title>51&#45;&gt;0</title>
<path fill="none" stroke="#c0c0c0" stroke-width="2" d="M1338.8777,-446.7753C1322.3658,-411.5314 1285.6056,-331.3868 1259.5,-262 1228.2692,-178.9909 1253.6111,-141.4885 1198.5,-72 1184.6154,-54.4932 1163.3823,-41.368 1145.0264,-32.4437"/>
<polygon fill="#c0c0c0" stroke="#c0c0c0" stroke-width="2" points="1146.2902,-29.1722 1135.7439,-28.1588 1143.3564,-35.5277 1146.2902,-29.1722"/>
</g>
<!-- 56 -->
<g id="node57" class="node">
<title>56</title>
<path fill="none" stroke="#d85656" stroke-width="2" d="M1477.5,-408.5C1477.5,-408.5 1387.5,-408.5 1387.5,-408.5 1381.5,-408.5 1375.5,-402.5 1375.5,-396.5 1375.5,-396.5 1375.5,-384.5 1375.5,-384.5 1375.5,-378.5 1381.5,-372.5 1387.5,-372.5 1387.5,-372.5 1477.5,-372.5 1477.5,-372.5 1483.5,-372.5 1489.5,-378.5 1489.5,-384.5 1489.5,-384.5 1489.5,-396.5 1489.5,-396.5 1489.5,-402.5 1483.5,-408.5 1477.5,-408.5"/>
<text text-anchor="middle" x="1432.5" y="-388" font-family="sans" font-size="10.00" fill="#000000">CombineSNPsIndels</text>
</g>
<!-- 51&#45;&gt;56 -->
<g id="edge101" class="edge">
<title>51&#45;&gt;56</title>
<path fill="none" stroke="#c0c0c0" stroke-width="2" d="M1368.0761,-446.9656C1378.8546,-437.5186 1392.2239,-425.8009 1403.985,-415.4926"/>
<polygon fill="#c0c0c0" stroke="#c0c0c0" stroke-width="2" points="1406.6054,-417.85 1411.8187,-408.6265 1401.9915,-412.5857 1406.6054,-417.85"/>
</g>
<!-- 52&#45;&gt;51 -->
<g id="edge96" class="edge">
<title>52&#45;&gt;51</title>
<path fill="none" stroke="#c0c0c0" stroke-width="2" d="M1346.7523,-518.8314C1346.8593,-511.131 1346.9865,-501.9743 1347.1053,-493.4166"/>
<polygon fill="#c0c0c0" stroke="#c0c0c0" stroke-width="2" points="1350.6049,-493.4609 1347.2443,-483.4133 1343.6056,-493.3637 1350.6049,-493.4609"/>
</g>
<!-- 53 -->
<g id="node54" class="node">
<title>53</title>
<path fill="none" stroke="#56d8b9" stroke-width="2" d="M1602.5,-483C1602.5,-483 1528.5,-483 1528.5,-483 1522.5,-483 1516.5,-477 1516.5,-471 1516.5,-471 1516.5,-459 1516.5,-459 1516.5,-453 1522.5,-447 1528.5,-447 1528.5,-447 1602.5,-447 1602.5,-447 1608.5,-447 1614.5,-453 1614.5,-459 1614.5,-459 1614.5,-471 1614.5,-471 1614.5,-477 1608.5,-483 1602.5,-483"/>
<text text-anchor="middle" x="1565.5" y="-462.5" font-family="sans" font-size="10.00" fill="#000000">ApplyFilterIndels</text>
</g>
<!-- 53&#45;&gt;0 -->
<g id="edge35" class="edge">
<title>53&#45;&gt;0</title>
<path fill="none" stroke="#c0c0c0" stroke-width="2" d="M1596.5677,-446.9242C1634.1659,-422.4486 1692.5,-374.9721 1692.5,-316 1692.5,-316 1692.5,-316 1692.5,-169.5 1692.5,-103.503 1640.8922,-98.6156 1580.5,-72 1502.5694,-37.655 1243.2268,-23.5814 1145.864,-19.4235"/>
<polygon fill="#c0c0c0" stroke="#c0c0c0" stroke-width="2" points="1145.7523,-15.9159 1135.6154,-18.9971 1145.4613,-22.9098 1145.7523,-15.9159"/>
</g>
<!-- 53&#45;&gt;56 -->
<g id="edge102" class="edge">
<title>53&#45;&gt;56</title>
<path fill="none" stroke="#c0c0c0" stroke-width="2" d="M1533.3044,-446.9656C1515.3851,-436.9281 1492.8896,-424.3273 1473.6982,-413.5772"/>
<polygon fill="#c0c0c0" stroke="#c0c0c0" stroke-width="2" points="1475.2951,-410.46 1464.8601,-408.6265 1471.8741,-416.5672 1475.2951,-410.46"/>
</g>
<!-- 54&#45;&gt;53 -->
<g id="edge98" class="edge">
<title>54&#45;&gt;53</title>
<path fill="none" stroke="#c0c0c0" stroke-width="2" d="M1565.5,-518.8314C1565.5,-511.131 1565.5,-501.9743 1565.5,-493.4166"/>
<polygon fill="#c0c0c0" stroke="#c0c0c0" stroke-width="2" points="1569.0001,-493.4132 1565.5,-483.4133 1562.0001,-493.4133 1569.0001,-493.4132"/>
</g>
<!-- 55 -->
<g id="node56" class="node">
<title>55</title>
<path fill="none" stroke="#d8ac56" stroke-width="2" d="M1384.5,-334C1384.5,-334 1336.5,-334 1336.5,-334 1330.5,-334 1324.5,-328 1324.5,-322 1324.5,-322 1324.5,-310 1324.5,-310 1324.5,-304 1330.5,-298 1336.5,-298 1336.5,-298 1384.5,-298 1384.5,-298 1390.5,-298 1396.5,-304 1396.5,-310 1396.5,-310 1396.5,-322 1396.5,-322 1396.5,-328 1390.5,-334 1384.5,-334"/>
<text text-anchor="middle" x="1360.5" y="-313.5" font-family="sans" font-size="10.00" fill="#000000">VariantEval</text>
</g>
<!-- 55&#45;&gt;0 -->
<g id="edge36" class="edge">
<title>55&#45;&gt;0</title>
<path fill="none" stroke="#c0c0c0" stroke-width="2" d="M1324.363,-299.3524C1308.6701,-290.3892 1291.4175,-277.8794 1280.5,-262 1231.3923,-190.5737 1292.3119,-138.3198 1236.5,-72 1213.5088,-44.6802 1174.302,-30.8992 1145.3236,-24.1346"/>
<polygon fill="#c0c0c0" stroke="#c0c0c0" stroke-width="2" points="1146.0568,-20.7123 1135.5435,-22.0238 1144.58,-27.5548 1146.0568,-20.7123"/>
</g>
<!-- 56&#45;&gt;55 -->
<g id="edge100" class="edge">
<title>56&#45;&gt;55</title>
<path fill="none" stroke="#c0c0c0" stroke-width="2" d="M1415.0708,-372.4656C1406.1164,-363.2003 1395.051,-351.7507 1385.2302,-341.5888"/>
<polygon fill="#c0c0c0" stroke="#c0c0c0" stroke-width="2" points="1387.4844,-338.8849 1378.0182,-334.1265 1382.4509,-343.7495 1387.4844,-338.8849"/>
</g>
<!-- 58 -->
<g id="node59" class="node">
<title>58</title>
<path fill="none" stroke="#568ad8" stroke-width="2" d="M1497.5,-334C1497.5,-334 1441.5,-334 1441.5,-334 1435.5,-334 1429.5,-328 1429.5,-322 1429.5,-322 1429.5,-310 1429.5,-310 1429.5,-304 1435.5,-298 1441.5,-298 1441.5,-298 1497.5,-298 1497.5,-298 1503.5,-298 1509.5,-304 1509.5,-310 1509.5,-310 1509.5,-322 1509.5,-322 1509.5,-328 1503.5,-334 1497.5,-334"/>
<text text-anchor="middle" x="1469.5" y="-313.5" font-family="sans" font-size="10.00" fill="#000000">AnnotateVEP</text>
</g>
<!-- 56&#45;&gt;58 -->
<g id="edge104" class="edge">
<title>56&#45;&gt;58</title>
<path fill="none" stroke="#c0c0c0" stroke-width="2" d="M1441.4567,-372.4656C1445.8327,-363.6544 1451.1897,-352.868 1456.0449,-343.0921"/>
<polygon fill="#c0c0c0" stroke="#c0c0c0" stroke-width="2" points="1459.1841,-344.6396 1460.4976,-334.1265 1452.9147,-341.5259 1459.1841,-344.6396"/>
</g>
<!-- 57 -->
<g id="node58" class="node">
<title>57</title>
<path fill="none" stroke="#56b1d8" stroke-width="2" d="M1521,-262C1521,-262 1432,-262 1432,-262 1426,-262 1420,-256 1420,-250 1420,-250 1420,-238 1420,-238 1420,-232 1426,-226 1432,-226 1432,-226 1521,-226 1521,-226 1527,-226 1533,-232 1533,-238 1533,-238 1533,-250 1533,-250 1533,-256 1527,-262 1521,-262"/>
<text text-anchor="middle" x="1476.5" y="-247" font-family="sans" font-size="10.00" fill="#000000">extractIndivididuals</text>
<text text-anchor="middle" x="1476.5" y="-236" font-family="sans" font-size="10.00" fill="#000000">sample: TESTZ</text>
</g>
<!-- 57&#45;&gt;0 -->
<g id="edge37" class="edge">
<title>57&#45;&gt;0</title>
<path fill="none" stroke="#c0c0c0" stroke-width="2" d="M1454.8416,-225.9709C1442.7371,-215.6893 1427.5143,-202.4139 1414.5,-190 1388.2285,-164.9405 1332.6419,-90.6643 1301.5,-72 1252.2195,-42.4646 1186.2145,-28.5643 1145.5638,-22.4174"/>
<polygon fill="#c0c0c0" stroke="#c0c0c0" stroke-width="2" points="1145.9474,-18.9367 1135.5521,-20.9832 1144.9547,-25.866 1145.9474,-18.9367"/>
</g>
<!-- 61 -->
<g id="node62" class="node">
<title>61</title>
<path fill="none" stroke="#d88d56" stroke-width="2" d="M1509.5,-187.5C1509.5,-187.5 1435.5,-187.5 1435.5,-187.5 1429.5,-187.5 1423.5,-181.5 1423.5,-175.5 1423.5,-175.5 1423.5,-163.5 1423.5,-163.5 1423.5,-157.5 1429.5,-151.5 1435.5,-151.5 1435.5,-151.5 1509.5,-151.5 1509.5,-151.5 1515.5,-151.5 1521.5,-157.5 1521.5,-163.5 1521.5,-163.5 1521.5,-175.5 1521.5,-175.5 1521.5,-181.5 1515.5,-187.5 1509.5,-187.5"/>
<text text-anchor="middle" x="1472.5" y="-167" font-family="sans" font-size="10.00" fill="#000000">multiqc_exomes</text>
</g>
<!-- 57&#45;&gt;61 -->
<g id="edge107" class="edge">
<title>57&#45;&gt;61</title>
<path fill="none" stroke="#c0c0c0" stroke-width="2" d="M1475.5317,-225.9656C1475.0781,-217.5178 1474.5271,-207.2542 1474.0198,-197.8064"/>
<polygon fill="#c0c0c0" stroke="#c0c0c0" stroke-width="2" points="1477.5044,-197.4244 1473.4732,-187.6265 1470.5145,-197.7998 1477.5044,-197.4244"/>
</g>
<!-- 58&#45;&gt;57 -->
<g id="edge103" class="edge">
<title>58&#45;&gt;57</title>
<path fill="none" stroke="#c0c0c0" stroke-width="2" d="M1471.2664,-297.8314C1472.015,-290.131 1472.9053,-280.9743 1473.7373,-272.4166"/>
<polygon fill="#c0c0c0" stroke="#c0c0c0" stroke-width="2" points="1477.2256,-272.7051 1474.7098,-262.4133 1470.2585,-272.0276 1477.2256,-272.7051"/>
</g>
<!-- 59 -->
<g id="node60" class="node">
<title>59</title>
<path fill="none" stroke="#56b1d8" stroke-width="2" d="M1652,-262C1652,-262 1563,-262 1563,-262 1557,-262 1551,-256 1551,-250 1551,-250 1551,-238 1551,-238 1551,-232 1557,-226 1563,-226 1563,-226 1652,-226 1652,-226 1658,-226 1664,-232 1664,-238 1664,-238 1664,-250 1664,-250 1664,-256 1658,-262 1652,-262"/>
<text text-anchor="middle" x="1607.5" y="-247" font-family="sans" font-size="10.00" fill="#000000">extractIndivididuals</text>
<text text-anchor="middle" x="1607.5" y="-236" font-family="sans" font-size="10.00" fill="#000000">sample: TESTY</text>
</g>
<!-- 58&#45;&gt;59 -->
<g id="edge105" class="edge">
<title>58&#45;&gt;59</title>
<path fill="none" stroke="#c0c0c0" stroke-width="2" d="M1504.3232,-297.8314C1522.3011,-288.4516 1544.4203,-276.9112 1563.5616,-266.9244"/>
<polygon fill="#c0c0c0" stroke="#c0c0c0" stroke-width="2" points="1565.4411,-269.8916 1572.6879,-262.1628 1562.2031,-263.6855 1565.4411,-269.8916"/>
</g>
<!-- 60 -->
<g id="node61" class="node">
<title>60</title>
<path fill="none" stroke="#56b1d8" stroke-width="2" d="M1390,-262C1390,-262 1301,-262 1301,-262 1295,-262 1289,-256 1289,-250 1289,-250 1289,-238 1289,-238 1289,-232 1295,-226 1301,-226 1301,-226 1390,-226 1390,-226 1396,-226 1402,-232 1402,-238 1402,-238 1402,-250 1402,-250 1402,-256 1396,-262 1390,-262"/>
<text text-anchor="middle" x="1345.5" y="-247" font-family="sans" font-size="10.00" fill="#000000">extractIndivididuals</text>
<text text-anchor="middle" x="1345.5" y="-236" font-family="sans" font-size="10.00" fill="#000000">sample: TESTX</text>
</g>
<!-- 58&#45;&gt;60 -->
<g id="edge106" class="edge">
<title>58&#45;&gt;60</title>
<path fill="none" stroke="#c0c0c0" stroke-width="2" d="M1438.2096,-297.8314C1422.2023,-288.5368 1402.5414,-277.1208 1385.4506,-267.1971"/>
<polygon fill="#c0c0c0" stroke="#c0c0c0" stroke-width="2" points="1387.1858,-264.1575 1376.7804,-262.1628 1383.6708,-270.211 1387.1858,-264.1575"/>
</g>
<!-- 59&#45;&gt;0 -->
<g id="edge38" class="edge">
<title>59&#45;&gt;0</title>
<path fill="none" stroke="#c0c0c0" stroke-width="2" d="M1607.5302,-225.9855C1606.5245,-190.3435 1598.7812,-110.9171 1551.5,-72 1520.3369,-46.3497 1246.3986,-26.6791 1145.5543,-20.248"/>
<polygon fill="#c0c0c0" stroke="#c0c0c0" stroke-width="2" points="1145.7171,-16.7515 1135.5167,-19.6153 1145.2767,-23.7376 1145.7171,-16.7515"/>
</g>
<!-- 59&#45;&gt;61 -->
<g id="edge108" class="edge">
<title>59&#45;&gt;61</title>
<path fill="none" stroke="#c0c0c0" stroke-width="2" d="M1574.8203,-225.9656C1556.6315,-215.9281 1533.7977,-203.3273 1514.3178,-192.5772"/>
<polygon fill="#c0c0c0" stroke="#c0c0c0" stroke-width="2" points="1515.7931,-189.3938 1505.3467,-187.6265 1512.4109,-195.5226 1515.7931,-189.3938"/>
</g>
<!-- 60&#45;&gt;0 -->
<g id="edge39" class="edge">
<title>60&#45;&gt;0</title>
<path fill="none" stroke="#c0c0c0" stroke-width="2" d="M1337.5481,-225.5371C1333.0835,-215.1198 1327.4347,-201.8532 1322.5,-190 1300.7395,-137.7314 1315.9463,-110.5711 1274.5,-72 1238.962,-38.9273 1182.9028,-26.1007 1145.9185,-21.1323"/>
<polygon fill="#c0c0c0" stroke="#c0c0c0" stroke-width="2" points="1145.9099,-17.6058 1135.5617,-19.8787 1145.0687,-24.555 1145.9099,-17.6058"/>
</g>
<!-- 60&#45;&gt;61 -->
<g id="edge109" class="edge">
<title>60&#45;&gt;61</title>
<path fill="none" stroke="#c0c0c0" stroke-width="2" d="M1376.2432,-225.9656C1393.2766,-215.9736 1414.6404,-203.4413 1432.9114,-192.7233"/>
<polygon fill="#c0c0c0" stroke="#c0c0c0" stroke-width="2" points="1434.7453,-195.7053 1441.5998,-187.6265 1431.2034,-189.6675 1434.7453,-195.7053"/>
</g>
<!-- 61&#45;&gt;0 -->
<g id="edge40" class="edge">
<title>61&#45;&gt;0</title>
<path fill="none" stroke="#c0c0c0" stroke-width="2" d="M1445.1057,-151.3181C1429.5709,-140.6632 1409.9993,-126.6514 1393.5,-113 1373.1549,-96.1667 1373.7919,-84.4407 1350.5,-72 1283.9954,-36.4787 1195.2136,-24.2858 1145.7679,-20.1273"/>
<polygon fill="#c0c0c0" stroke="#c0c0c0" stroke-width="2" points="1145.7836,-16.6181 1135.5433,-19.3356 1145.2432,-23.5972 1145.7836,-16.6181"/>
</g>
<!-- 62 -->
<g id="node63" class="node">
<title>62</title>
<path fill="none" stroke="#56c1d8" stroke-width="2" d="M1530.5,-110.5C1530.5,-110.5 1414.5,-110.5 1414.5,-110.5 1408.5,-110.5 1402.5,-104.5 1402.5,-98.5 1402.5,-98.5 1402.5,-86.5 1402.5,-86.5 1402.5,-80.5 1408.5,-74.5 1414.5,-74.5 1414.5,-74.5 1530.5,-74.5 1530.5,-74.5 1536.5,-74.5 1542.5,-80.5 1542.5,-86.5 1542.5,-86.5 1542.5,-98.5 1542.5,-98.5 1542.5,-104.5 1536.5,-110.5 1530.5,-110.5"/>
<text text-anchor="middle" x="1472.5" y="-95.5" font-family="sans" font-size="10.00" fill="#000000">FinalExecutionTime</text>
<text text-anchor="middle" x="1472.5" y="-84.5" font-family="sans" font-size="10.00" fill="#000000">TODAY: 16&#45;05&#45;2024&#45;13:42</text>
</g>
<!-- 61&#45;&gt;62 -->
<g id="edge110" class="edge">
<title>61&#45;&gt;62</title>
<path fill="none" stroke="#c0c0c0" stroke-width="2" d="M1472.5,-151.2521C1472.5,-142.1422 1472.5,-130.9174 1472.5,-120.7282"/>
<polygon fill="#c0c0c0" stroke="#c0c0c0" stroke-width="2" points="1476.0001,-120.6169 1472.5,-110.6169 1469.0001,-120.617 1476.0001,-120.6169"/>
</g>
<!-- 62&#45;&gt;0 -->
<g id="edge41" class="edge">
<title>62&#45;&gt;0</title>
<path fill="none" stroke="#c0c0c0" stroke-width="2" d="M1402.433,-75.1292C1397.7235,-74.0453 1393.0464,-72.9926 1388.5,-72 1301.8917,-53.092 1199.4524,-34.2155 1145.7015,-24.5771"/>
<polygon fill="#c0c0c0" stroke="#c0c0c0" stroke-width="2" points="1146.0795,-21.0893 1135.6196,-22.7753 1144.8479,-27.9801 1146.0795,-21.0893"/>
</g>
</g>
</svg>
