<?xml version="1.0" encoding="UTF-8" standalone="no"?>
<!DOCTYPE svg PUBLIC "-//W3C//DTD SVG 1.1//EN"
 "http://www.w3.org/Graphics/SVG/1.1/DTD/svg11.dtd">
<!-- Generated by graphviz version 2.40.1 (20161225.0304)
 -->
<!-- Title: snakemake_dag Pages: 1 -->
<svg width="2742pt" height="697pt"
 viewBox="0.00 0.00 2741.50 697.00" xmlns="http://www.w3.org/2000/svg" xmlns:xlink="http://www.w3.org/1999/xlink">
<g id="graph0" class="graph" transform="scale(1 1) rotate(0) translate(4 693)">
<title>snakemake_dag</title>
<polygon fill="#ffffff" stroke="transparent" points="-4,4 -4,-693 2737.5,-693 2737.5,4 -4,4"/>
<!-- 0 -->
<g id="node1" class="node">
<title>0</title>
<path fill="none" stroke="#afd856" stroke-width="2" d="M1546,-36C1546,-36 1516,-36 1516,-36 1510,-36 1504,-30 1504,-24 1504,-24 1504,-12 1504,-12 1504,-6 1510,0 1516,0 1516,0 1546,0 1546,0 1552,0 1558,-6 1558,-12 1558,-12 1558,-24 1558,-24 1558,-30 1552,-36 1546,-36"/>
<text text-anchor="middle" x="1531" y="-15.5" font-family="sans" font-size="10.00" fill="#000000">all</text>
</g>
<!-- 1 -->
<g id="node2" class="node">
<title>1</title>
<path fill="none" stroke="#56c1d8" stroke-width="2" stroke-dasharray="5,2" d="M114,-113C114,-113 12,-113 12,-113 6,-113 0,-107 0,-101 0,-101 0,-84 0,-84 0,-78 6,-72 12,-72 12,-72 114,-72 114,-72 120,-72 126,-78 126,-84 126,-84 126,-101 126,-101 126,-107 120,-113 114,-113"/>
<text text-anchor="middle" x="63" y="-101" font-family="sans" font-size="10.00" fill="#000000">fastqc_before_trim</text>
<text text-anchor="middle" x="63" y="-90" font-family="sans" font-size="10.00" fill="#000000">rn: R1</text>
<text text-anchor="middle" x="63" y="-79" font-family="sans" font-size="10.00" fill="#000000">sample: SRR10856738</text>
</g>
<!-- 1&#45;&gt;0 -->
<g id="edge1" class="edge">
<title>1&#45;&gt;0</title>
<path fill="none" stroke="#c0c0c0" stroke-width="2" d="M126.0247,-73.6357C129.0452,-73.0218 132.048,-72.4704 135,-72 407.6883,-28.5468 1299.6673,-19.6721 1493.5774,-18.2408"/>
<polygon fill="#c0c0c0" stroke="#c0c0c0" stroke-width="2" points="1493.8433,-21.7391 1503.8179,-18.1674 1493.793,-14.7393 1493.8433,-21.7391"/>
</g>
<!-- 2 -->
<g id="node3" class="node">
<title>2</title>
<path fill="none" stroke="#56c1d8" stroke-width="2" stroke-dasharray="5,2" d="M258,-113C258,-113 156,-113 156,-113 150,-113 144,-107 144,-101 144,-101 144,-84 144,-84 144,-78 150,-72 156,-72 156,-72 258,-72 258,-72 264,-72 270,-78 270,-84 270,-84 270,-101 270,-101 270,-107 264,-113 258,-113"/>
<text text-anchor="middle" x="207" y="-101" font-family="sans" font-size="10.00" fill="#000000">fastqc_before_trim</text>
<text text-anchor="middle" x="207" y="-90" font-family="sans" font-size="10.00" fill="#000000">rn: R2</text>
<text text-anchor="middle" x="207" y="-79" font-family="sans" font-size="10.00" fill="#000000">sample: SRR10856738</text>
</g>
<!-- 2&#45;&gt;0 -->
<g id="edge2" class="edge">
<title>2&#45;&gt;0</title>
<path fill="none" stroke="#c0c0c0" stroke-width="2" d="M270.0273,-73.652C273.0471,-73.0337 276.049,-72.477 279,-72 521.8263,-32.7522 1312.4814,-20.708 1493.7383,-18.4312"/>
<polygon fill="#c0c0c0" stroke="#c0c0c0" stroke-width="2" points="1493.8797,-21.9298 1503.8358,-18.3066 1493.7933,-14.9303 1493.8797,-21.9298"/>
</g>
<!-- 3 -->
<g id="node4" class="node">
<title>3</title>
<path fill="none" stroke="#56c1d8" stroke-width="2" stroke-dasharray="5,2" d="M402,-113C402,-113 300,-113 300,-113 294,-113 288,-107 288,-101 288,-101 288,-84 288,-84 288,-78 294,-72 300,-72 300,-72 402,-72 402,-72 408,-72 414,-78 414,-84 414,-84 414,-101 414,-101 414,-107 408,-113 402,-113"/>
<text text-anchor="middle" x="351" y="-101" font-family="sans" font-size="10.00" fill="#000000">fastqc_before_trim</text>
<text text-anchor="middle" x="351" y="-90" font-family="sans" font-size="10.00" fill="#000000">rn: R1</text>
<text text-anchor="middle" x="351" y="-79" font-family="sans" font-size="10.00" fill="#000000">sample: SRR10856740</text>
</g>
<!-- 3&#45;&gt;0 -->
<g id="edge3" class="edge">
<title>3&#45;&gt;0</title>
<path fill="none" stroke="#c0c0c0" stroke-width="2" d="M414.0306,-73.6725C417.0496,-73.0487 420.0504,-72.4852 423,-72 636.022,-36.9578 1325.7027,-21.8774 1493.8003,-18.6709"/>
<polygon fill="#c0c0c0" stroke="#c0c0c0" stroke-width="2" points="1493.9537,-22.1687 1503.886,-18.4809 1493.8218,-15.1699 1493.9537,-22.1687"/>
</g>
<!-- 4 -->
<g id="node5" class="node">
<title>4</title>
<path fill="none" stroke="#56c1d8" stroke-width="2" stroke-dasharray="5,2" d="M546,-113C546,-113 444,-113 444,-113 438,-113 432,-107 432,-101 432,-101 432,-84 432,-84 432,-78 438,-72 444,-72 444,-72 546,-72 546,-72 552,-72 558,-78 558,-84 558,-84 558,-101 558,-101 558,-107 552,-113 546,-113"/>
<text text-anchor="middle" x="495" y="-101" font-family="sans" font-size="10.00" fill="#000000">fastqc_before_trim</text>
<text text-anchor="middle" x="495" y="-90" font-family="sans" font-size="10.00" fill="#000000">rn: R2</text>
<text text-anchor="middle" x="495" y="-79" font-family="sans" font-size="10.00" fill="#000000">sample: SRR10856740</text>
</g>
<!-- 4&#45;&gt;0 -->
<g id="edge4" class="edge">
<title>4&#45;&gt;0</title>
<path fill="none" stroke="#c0c0c0" stroke-width="2" d="M558.0351,-73.6991C561.0528,-73.0682 564.0522,-72.4959 567,-72 750.219,-41.1769 1338.9772,-23.2438 1493.5465,-18.9895"/>
<polygon fill="#c0c0c0" stroke="#c0c0c0" stroke-width="2" points="1494.0127,-22.4781 1503.9136,-18.7068 1493.8219,-15.4807 1494.0127,-22.4781"/>
</g>
<!-- 5 -->
<g id="node6" class="node">
<title>5</title>
<path fill="none" stroke="#56c1d8" stroke-width="2" stroke-dasharray="5,2" d="M690,-113C690,-113 588,-113 588,-113 582,-113 576,-107 576,-101 576,-101 576,-84 576,-84 576,-78 582,-72 588,-72 588,-72 690,-72 690,-72 696,-72 702,-78 702,-84 702,-84 702,-101 702,-101 702,-107 696,-113 690,-113"/>
<text text-anchor="middle" x="639" y="-101" font-family="sans" font-size="10.00" fill="#000000">fastqc_before_trim</text>
<text text-anchor="middle" x="639" y="-90" font-family="sans" font-size="10.00" fill="#000000">rn: R1</text>
<text text-anchor="middle" x="639" y="-79" font-family="sans" font-size="10.00" fill="#000000">sample: SRR10856739</text>
</g>
<!-- 5&#45;&gt;0 -->
<g id="edge5" class="edge">
<title>5&#45;&gt;0</title>
<path fill="none" stroke="#c0c0c0" stroke-width="2" d="M702.0412,-73.735C705.0573,-73.0945 708.0546,-72.5104 711,-72 864.7887,-45.3524 1354.6964,-24.8091 1493.8292,-19.4013"/>
<polygon fill="#c0c0c0" stroke="#c0c0c0" stroke-width="2" points="1494.1194,-22.8928 1503.9769,-19.0097 1493.8493,-15.898 1494.1194,-22.8928"/>
</g>
<!-- 6 -->
<g id="node7" class="node">
<title>6</title>
<path fill="none" stroke="#56c1d8" stroke-width="2" stroke-dasharray="5,2" d="M834,-113C834,-113 732,-113 732,-113 726,-113 720,-107 720,-101 720,-101 720,-84 720,-84 720,-78 726,-72 732,-72 732,-72 834,-72 834,-72 840,-72 846,-78 846,-84 846,-84 846,-101 846,-101 846,-107 840,-113 834,-113"/>
<text text-anchor="middle" x="783" y="-101" font-family="sans" font-size="10.00" fill="#000000">fastqc_before_trim</text>
<text text-anchor="middle" x="783" y="-90" font-family="sans" font-size="10.00" fill="#000000">rn: R2</text>
<text text-anchor="middle" x="783" y="-79" font-family="sans" font-size="10.00" fill="#000000">sample: SRR10856739</text>
</g>
<!-- 6&#45;&gt;0 -->
<g id="edge6" class="edge">
<title>6&#45;&gt;0</title>
<path fill="none" stroke="#c0c0c0" stroke-width="2" d="M846.0502,-73.786C849.0639,-73.1319 852.0583,-72.5309 855,-72 1095.5917,-28.5806 1390.6481,-20.0704 1493.5162,-18.4047"/>
<polygon fill="#c0c0c0" stroke="#c0c0c0" stroke-width="2" points="1493.758,-21.9015 1503.7045,-18.2523 1493.6533,-14.9023 1493.758,-21.9015"/>
</g>
<!-- 7 -->
<g id="node8" class="node">
<title>7</title>
<path fill="none" stroke="#56c1d8" stroke-width="2" stroke-dasharray="5,2" d="M978,-113C978,-113 876,-113 876,-113 870,-113 864,-107 864,-101 864,-101 864,-84 864,-84 864,-78 870,-72 876,-72 876,-72 978,-72 978,-72 984,-72 990,-78 990,-84 990,-84 990,-101 990,-101 990,-107 984,-113 978,-113"/>
<text text-anchor="middle" x="927" y="-101" font-family="sans" font-size="10.00" fill="#000000">fastqc_before_trim</text>
<text text-anchor="middle" x="927" y="-90" font-family="sans" font-size="10.00" fill="#000000">rn: R1</text>
<text text-anchor="middle" x="927" y="-79" font-family="sans" font-size="10.00" fill="#000000">sample: SRR10856737</text>
</g>
<!-- 7&#45;&gt;0 -->
<g id="edge7" class="edge">
<title>7&#45;&gt;0</title>
<path fill="none" stroke="#c0c0c0" stroke-width="2" d="M990.0648,-73.8644C993.0746,-73.1892 996.0641,-72.5624 999,-72 1182.5882,-36.8314 1406.4922,-23.5791 1493.7196,-19.5238"/>
<polygon fill="#c0c0c0" stroke="#c0c0c0" stroke-width="2" points="1494.0762,-23.0114 1503.908,-19.0635 1493.7602,-16.0185 1494.0762,-23.0114"/>
</g>
<!-- 8 -->
<g id="node9" class="node">
<title>8</title>
<path fill="none" stroke="#56c1d8" stroke-width="2" stroke-dasharray="5,2" d="M1122,-113C1122,-113 1020,-113 1020,-113 1014,-113 1008,-107 1008,-101 1008,-101 1008,-84 1008,-84 1008,-78 1014,-72 1020,-72 1020,-72 1122,-72 1122,-72 1128,-72 1134,-78 1134,-84 1134,-84 1134,-101 1134,-101 1134,-107 1128,-113 1122,-113"/>
<text text-anchor="middle" x="1071" y="-101" font-family="sans" font-size="10.00" fill="#000000">fastqc_before_trim</text>
<text text-anchor="middle" x="1071" y="-90" font-family="sans" font-size="10.00" fill="#000000">rn: R2</text>
<text text-anchor="middle" x="1071" y="-79" font-family="sans" font-size="10.00" fill="#000000">sample: SRR10856737</text>
</g>
<!-- 8&#45;&gt;0 -->
<g id="edge8" class="edge">
<title>8&#45;&gt;0</title>
<path fill="none" stroke="#c0c0c0" stroke-width="2" d="M1134.3067,-75.0001C1138.9259,-73.9218 1143.526,-72.9075 1148,-72 1273.5616,-46.53 1424.7021,-29.0305 1493.5512,-21.7683"/>
<polygon fill="#c0c0c0" stroke="#c0c0c0" stroke-width="2" points="1494.2951,-25.2097 1503.878,-20.691 1493.5688,-18.2475 1494.2951,-25.2097"/>
</g>
<!-- 9 -->
<g id="node10" class="node">
<title>9</title>
<path fill="none" stroke="#569ad8" stroke-width="2" stroke-dasharray="5,2" d="M1238.5,-545C1238.5,-545 1161.5,-545 1161.5,-545 1155.5,-545 1149.5,-539 1149.5,-533 1149.5,-533 1149.5,-521 1149.5,-521 1149.5,-515 1155.5,-509 1161.5,-509 1161.5,-509 1238.5,-509 1238.5,-509 1244.5,-509 1250.5,-515 1250.5,-521 1250.5,-521 1250.5,-533 1250.5,-533 1250.5,-539 1244.5,-545 1238.5,-545"/>
<text text-anchor="middle" x="1200" y="-530" font-family="sans" font-size="10.00" fill="#000000">fastqc_after_trim</text>
<text text-anchor="middle" x="1200" y="-519" font-family="sans" font-size="10.00" fill="#000000">rn: R1</text>
</g>
<!-- 9&#45;&gt;0 -->
<g id="edge9" class="edge">
<title>9&#45;&gt;0</title>
<path fill="none" stroke="#c0c0c0" stroke-width="2" d="M1200,-508.8146C1200,-481.4983 1200,-428.25 1200,-383 1200,-383 1200,-383 1200,-167 1200,-123.8522 1188.9521,-101.9625 1220,-72 1258.5244,-34.8223 1419.4124,-22.9387 1493.4352,-19.3956"/>
<polygon fill="#c0c0c0" stroke="#c0c0c0" stroke-width="2" points="1493.8697,-22.8796 1503.7014,-18.9313 1493.5534,-15.8867 1493.8697,-22.8796"/>
</g>
<!-- 10 -->
<g id="node11" class="node">
<title>10</title>
<path fill="none" stroke="#d85656" stroke-width="2" stroke-dasharray="5,2" d="M1251,-689C1251,-689 1149,-689 1149,-689 1143,-689 1137,-683 1137,-677 1137,-677 1137,-665 1137,-665 1137,-659 1143,-653 1149,-653 1149,-653 1251,-653 1251,-653 1257,-653 1263,-659 1263,-665 1263,-665 1263,-677 1263,-677 1263,-683 1257,-689 1251,-689"/>
<text text-anchor="middle" x="1200" y="-674" font-family="sans" font-size="10.00" fill="#000000">trimmomatic</text>
<text text-anchor="middle" x="1200" y="-663" font-family="sans" font-size="10.00" fill="#000000">sample: SRR10856738</text>
</g>
<!-- 10&#45;&gt;9 -->
<g id="edge31" class="edge">
<title>10&#45;&gt;9</title>
<path fill="none" stroke="#c0c0c0" stroke-width="2" d="M1200,-652.7623C1200,-628.201 1200,-584.2474 1200,-555.3541"/>
<polygon fill="#c0c0c0" stroke="#c0c0c0" stroke-width="2" points="1203.5001,-555.0896 1200,-545.0896 1196.5001,-555.0897 1203.5001,-555.0896"/>
</g>
<!-- 11 -->
<g id="node12" class="node">
<title>11</title>
<path fill="none" stroke="#569ad8" stroke-width="2" stroke-dasharray="5,2" d="M1159.5,-473C1159.5,-473 1082.5,-473 1082.5,-473 1076.5,-473 1070.5,-467 1070.5,-461 1070.5,-461 1070.5,-449 1070.5,-449 1070.5,-443 1076.5,-437 1082.5,-437 1082.5,-437 1159.5,-437 1159.5,-437 1165.5,-437 1171.5,-443 1171.5,-449 1171.5,-449 1171.5,-461 1171.5,-461 1171.5,-467 1165.5,-473 1159.5,-473"/>
<text text-anchor="middle" x="1121" y="-458" font-family="sans" font-size="10.00" fill="#000000">fastqc_after_trim</text>
<text text-anchor="middle" x="1121" y="-447" font-family="sans" font-size="10.00" fill="#000000">rn: R2</text>
</g>
<!-- 10&#45;&gt;11 -->
<g id="edge32" class="edge">
<title>10&#45;&gt;11</title>
<path fill="none" stroke="#c0c0c0" stroke-width="2" d="M1189.8889,-652.7444C1176.9379,-628.6955 1154.5515,-584.784 1141,-545 1134.0973,-524.7351 1128.948,-501.0786 1125.6043,-483.106"/>
<polygon fill="#c0c0c0" stroke="#c0c0c0" stroke-width="2" points="1129.0477,-482.4786 1123.8445,-473.2494 1122.1566,-483.709 1129.0477,-482.4786"/>
</g>
<!-- 26 -->
<g id="node27" class="node">
<title>26</title>
<path fill="none" stroke="#d8bc56" stroke-width="2" d="M1364.5,-617C1364.5,-617 1305.5,-617 1305.5,-617 1299.5,-617 1293.5,-611 1293.5,-605 1293.5,-605 1293.5,-593 1293.5,-593 1293.5,-587 1299.5,-581 1305.5,-581 1305.5,-581 1364.5,-581 1364.5,-581 1370.5,-581 1376.5,-587 1376.5,-593 1376.5,-593 1376.5,-605 1376.5,-605 1376.5,-611 1370.5,-617 1364.5,-617"/>
<text text-anchor="middle" x="1335" y="-596.5" font-family="sans" font-size="10.00" fill="#000000">star_mapping</text>
</g>
<!-- 10&#45;&gt;26 -->
<g id="edge44" class="edge">
<title>10&#45;&gt;26</title>
<path fill="none" stroke="#c0c0c0" stroke-width="2" d="M1234.0662,-652.8314C1251.6533,-643.4516 1273.2916,-631.9112 1292.0168,-621.9244"/>
<polygon fill="#c0c0c0" stroke="#c0c0c0" stroke-width="2" points="1293.7682,-624.957 1300.9447,-617.1628 1290.4741,-618.7805 1293.7682,-624.957"/>
</g>
<!-- 11&#45;&gt;0 -->
<g id="edge10" class="edge">
<title>11&#45;&gt;0</title>
<path fill="none" stroke="#c0c0c0" stroke-width="2" d="M1129.695,-436.8324C1141.7302,-409.9721 1162,-357.7885 1162,-311 1162,-311 1162,-311 1162,-167 1162,-123.4512 1153.8201,-101.3419 1186,-72 1230.5347,-31.3928 1413.994,-21.2888 1493.7225,-18.801"/>
<polygon fill="#c0c0c0" stroke="#c0c0c0" stroke-width="2" points="1493.9173,-22.2969 1503.8122,-18.5099 1493.7154,-15.2998 1493.9173,-22.2969"/>
</g>
<!-- 12 -->
<g id="node13" class="node">
<title>12</title>
<path fill="none" stroke="#569ad8" stroke-width="2" stroke-dasharray="5,2" d="M1512.5,-401C1512.5,-401 1435.5,-401 1435.5,-401 1429.5,-401 1423.5,-395 1423.5,-389 1423.5,-389 1423.5,-377 1423.5,-377 1423.5,-371 1429.5,-365 1435.5,-365 1435.5,-365 1512.5,-365 1512.5,-365 1518.5,-365 1524.5,-371 1524.5,-377 1524.5,-377 1524.5,-389 1524.5,-389 1524.5,-395 1518.5,-401 1512.5,-401"/>
<text text-anchor="middle" x="1474" y="-386" font-family="sans" font-size="10.00" fill="#000000">fastqc_after_trim</text>
<text text-anchor="middle" x="1474" y="-375" font-family="sans" font-size="10.00" fill="#000000">rn: R1</text>
</g>
<!-- 12&#45;&gt;0 -->
<g id="edge11" class="edge">
<title>12&#45;&gt;0</title>
<path fill="none" stroke="#c0c0c0" stroke-width="2" d="M1474,-364.8146C1474,-337.4983 1474,-284.25 1474,-239 1474,-239 1474,-239 1474,-167 1474,-122.0152 1496.9448,-74.1341 1513.7192,-45.14"/>
<polygon fill="#c0c0c0" stroke="#c0c0c0" stroke-width="2" points="1516.8039,-46.8007 1518.9118,-36.4176 1510.789,-43.2199 1516.8039,-46.8007"/>
</g>
<!-- 13 -->
<g id="node14" class="node">
<title>13</title>
<path fill="none" stroke="#d85656" stroke-width="2" stroke-dasharray="5,2" d="M1604,-689C1604,-689 1502,-689 1502,-689 1496,-689 1490,-683 1490,-677 1490,-677 1490,-665 1490,-665 1490,-659 1496,-653 1502,-653 1502,-653 1604,-653 1604,-653 1610,-653 1616,-659 1616,-665 1616,-665 1616,-677 1616,-677 1616,-683 1610,-689 1604,-689"/>
<text text-anchor="middle" x="1553" y="-674" font-family="sans" font-size="10.00" fill="#000000">trimmomatic</text>
<text text-anchor="middle" x="1553" y="-663" font-family="sans" font-size="10.00" fill="#000000">sample: SRR10856740</text>
</g>
<!-- 13&#45;&gt;12 -->
<g id="edge33" class="edge">
<title>13&#45;&gt;12</title>
<path fill="none" stroke="#c0c0c0" stroke-width="2" d="M1548.0582,-652.9843C1534.6744,-604.1929 1497.6555,-469.2377 1481.5963,-410.6927"/>
<polygon fill="#c0c0c0" stroke="#c0c0c0" stroke-width="2" points="1484.9607,-409.7268 1478.9399,-401.0089 1478.21,-411.5785 1484.9607,-409.7268"/>
</g>
<!-- 14 -->
<g id="node15" class="node">
<title>14</title>
<path fill="none" stroke="#569ad8" stroke-width="2" stroke-dasharray="5,2" d="M1591.5,-329C1591.5,-329 1514.5,-329 1514.5,-329 1508.5,-329 1502.5,-323 1502.5,-317 1502.5,-317 1502.5,-305 1502.5,-305 1502.5,-299 1508.5,-293 1514.5,-293 1514.5,-293 1591.5,-293 1591.5,-293 1597.5,-293 1603.5,-299 1603.5,-305 1603.5,-305 1603.5,-317 1603.5,-317 1603.5,-323 1597.5,-329 1591.5,-329"/>
<text text-anchor="middle" x="1553" y="-314" font-family="sans" font-size="10.00" fill="#000000">fastqc_after_trim</text>
<text text-anchor="middle" x="1553" y="-303" font-family="sans" font-size="10.00" fill="#000000">rn: R2</text>
</g>
<!-- 13&#45;&gt;14 -->
<g id="edge34" class="edge">
<title>13&#45;&gt;14</title>
<path fill="none" stroke="#c0c0c0" stroke-width="2" d="M1553,-652.8146C1553,-625.4983 1553,-572.25 1553,-527 1553,-527 1553,-527 1553,-455 1553,-414.876 1553,-368.4631 1553,-339.4177"/>
<polygon fill="#c0c0c0" stroke="#c0c0c0" stroke-width="2" points="1556.5001,-339.1853 1553,-329.1854 1549.5001,-339.1854 1556.5001,-339.1853"/>
</g>
<!-- 33 -->
<g id="node34" class="node">
<title>33</title>
<path fill="none" stroke="#d8bc56" stroke-width="2" d="M1698.5,-617C1698.5,-617 1639.5,-617 1639.5,-617 1633.5,-617 1627.5,-611 1627.5,-605 1627.5,-605 1627.5,-593 1627.5,-593 1627.5,-587 1633.5,-581 1639.5,-581 1639.5,-581 1698.5,-581 1698.5,-581 1704.5,-581 1710.5,-587 1710.5,-593 1710.5,-593 1710.5,-605 1710.5,-605 1710.5,-611 1704.5,-617 1698.5,-617"/>
<text text-anchor="middle" x="1669" y="-596.5" font-family="sans" font-size="10.00" fill="#000000">star_mapping</text>
</g>
<!-- 13&#45;&gt;33 -->
<g id="edge51" class="edge">
<title>13&#45;&gt;33</title>
<path fill="none" stroke="#c0c0c0" stroke-width="2" d="M1582.2717,-652.8314C1597.1088,-643.6221 1615.3015,-632.3301 1631.1862,-622.4706"/>
<polygon fill="#c0c0c0" stroke="#c0c0c0" stroke-width="2" points="1633.087,-625.4102 1639.7377,-617.1628 1629.3955,-619.4628 1633.087,-625.4102"/>
</g>
<!-- 14&#45;&gt;0 -->
<g id="edge12" class="edge">
<title>14&#45;&gt;0</title>
<path fill="none" stroke="#c0c0c0" stroke-width="2" d="M1551.6238,-292.6715C1547.9044,-243.1358 1537.6303,-106.303 1533.1433,-46.5444"/>
<polygon fill="#c0c0c0" stroke="#c0c0c0" stroke-width="2" points="1536.6147,-46.0314 1532.3757,-36.3215 1529.6343,-46.5556 1536.6147,-46.0314"/>
</g>
<!-- 15 -->
<g id="node16" class="node">
<title>15</title>
<path fill="none" stroke="#569ad8" stroke-width="2" stroke-dasharray="5,2" d="M2484.5,-257C2484.5,-257 2407.5,-257 2407.5,-257 2401.5,-257 2395.5,-251 2395.5,-245 2395.5,-245 2395.5,-233 2395.5,-233 2395.5,-227 2401.5,-221 2407.5,-221 2407.5,-221 2484.5,-221 2484.5,-221 2490.5,-221 2496.5,-227 2496.5,-233 2496.5,-233 2496.5,-245 2496.5,-245 2496.5,-251 2490.5,-257 2484.5,-257"/>
<text text-anchor="middle" x="2446" y="-242" font-family="sans" font-size="10.00" fill="#000000">fastqc_after_trim</text>
<text text-anchor="middle" x="2446" y="-231" font-family="sans" font-size="10.00" fill="#000000">rn: R1</text>
</g>
<!-- 15&#45;&gt;0 -->
<g id="edge13" class="edge">
<title>15&#45;&gt;0</title>
<path fill="none" stroke="#c0c0c0" stroke-width="2" d="M2445.9097,-220.9796C2444.653,-185.7795 2436.3498,-108.1726 2389,-72 2355.9571,-46.7571 1730.1026,-24.5372 1568.7106,-19.2102"/>
<polygon fill="#c0c0c0" stroke="#c0c0c0" stroke-width="2" points="1568.4435,-15.6997 1558.3341,-18.8699 1568.214,-22.6959 1568.4435,-15.6997"/>
</g>
<!-- 16 -->
<g id="node17" class="node">
<title>16</title>
<path fill="none" stroke="#d85656" stroke-width="2" stroke-dasharray="5,2" d="M2497,-689C2497,-689 2395,-689 2395,-689 2389,-689 2383,-683 2383,-677 2383,-677 2383,-665 2383,-665 2383,-659 2389,-653 2395,-653 2395,-653 2497,-653 2497,-653 2503,-653 2509,-659 2509,-665 2509,-665 2509,-677 2509,-677 2509,-683 2503,-689 2497,-689"/>
<text text-anchor="middle" x="2446" y="-674" font-family="sans" font-size="10.00" fill="#000000">trimmomatic</text>
<text text-anchor="middle" x="2446" y="-663" font-family="sans" font-size="10.00" fill="#000000">sample: SRR10856739</text>
</g>
<!-- 16&#45;&gt;15 -->
<g id="edge35" class="edge">
<title>16&#45;&gt;15</title>
<path fill="none" stroke="#c0c0c0" stroke-width="2" d="M2446,-652.8146C2446,-625.4983 2446,-572.25 2446,-527 2446,-527 2446,-527 2446,-383 2446,-342.876 2446,-296.4631 2446,-267.4177"/>
<polygon fill="#c0c0c0" stroke="#c0c0c0" stroke-width="2" points="2449.5001,-267.1853 2446,-257.1854 2442.5001,-267.1854 2449.5001,-267.1853"/>
</g>
<!-- 17 -->
<g id="node18" class="node">
<title>17</title>
<path fill="none" stroke="#569ad8" stroke-width="2" stroke-dasharray="5,2" d="M2563.5,-185C2563.5,-185 2486.5,-185 2486.5,-185 2480.5,-185 2474.5,-179 2474.5,-173 2474.5,-173 2474.5,-161 2474.5,-161 2474.5,-155 2480.5,-149 2486.5,-149 2486.5,-149 2563.5,-149 2563.5,-149 2569.5,-149 2575.5,-155 2575.5,-161 2575.5,-161 2575.5,-173 2575.5,-173 2575.5,-179 2569.5,-185 2563.5,-185"/>
<text text-anchor="middle" x="2525" y="-170" font-family="sans" font-size="10.00" fill="#000000">fastqc_after_trim</text>
<text text-anchor="middle" x="2525" y="-159" font-family="sans" font-size="10.00" fill="#000000">rn: R2</text>
</g>
<!-- 16&#45;&gt;17 -->
<g id="edge36" class="edge">
<title>16&#45;&gt;17</title>
<path fill="none" stroke="#c0c0c0" stroke-width="2" d="M2463.9263,-652.7434C2487.2346,-626.9886 2525,-577.4717 2525,-527 2525,-527 2525,-527 2525,-311 2525,-270.876 2525,-224.4631 2525,-195.4177"/>
<polygon fill="#c0c0c0" stroke="#c0c0c0" stroke-width="2" points="2528.5001,-195.1853 2525,-185.1854 2521.5001,-195.1854 2528.5001,-195.1853"/>
</g>
<!-- 39 -->
<g id="node40" class="node">
<title>39</title>
<path fill="none" stroke="#d8bc56" stroke-width="2" d="M2094.5,-617C2094.5,-617 2035.5,-617 2035.5,-617 2029.5,-617 2023.5,-611 2023.5,-605 2023.5,-605 2023.5,-593 2023.5,-593 2023.5,-587 2029.5,-581 2035.5,-581 2035.5,-581 2094.5,-581 2094.5,-581 2100.5,-581 2106.5,-587 2106.5,-593 2106.5,-593 2106.5,-605 2106.5,-605 2106.5,-611 2100.5,-617 2094.5,-617"/>
<text text-anchor="middle" x="2065" y="-596.5" font-family="sans" font-size="10.00" fill="#000000">star_mapping</text>
</g>
<!-- 16&#45;&gt;39 -->
<g id="edge58" class="edge">
<title>16&#45;&gt;39</title>
<path fill="none" stroke="#c0c0c0" stroke-width="2" d="M2382.6579,-659.0298C2308.1889,-644.957 2186.0091,-621.8679 2116.8935,-608.8066"/>
<polygon fill="#c0c0c0" stroke="#c0c0c0" stroke-width="2" points="2117.1585,-605.2949 2106.6825,-606.877 2115.8587,-612.1731 2117.1585,-605.2949"/>
</g>
<!-- 17&#45;&gt;0 -->
<g id="edge14" class="edge">
<title>17&#45;&gt;0</title>
<path fill="none" stroke="#c0c0c0" stroke-width="2" d="M2518.4242,-148.8811C2509.2011,-126.4147 2490.0984,-89.0103 2460,-72 2381.3803,-27.5677 1731.4243,-19.557 1568.1176,-18.2409"/>
<polygon fill="#c0c0c0" stroke="#c0c0c0" stroke-width="2" points="1568.1026,-14.7408 1558.0759,-18.1636 1568.0486,-21.7406 1568.1026,-14.7408"/>
</g>
<!-- 18 -->
<g id="node19" class="node">
<title>18</title>
<path fill="none" stroke="#569ad8" stroke-width="2" stroke-dasharray="5,2" d="M2721.5,-545C2721.5,-545 2644.5,-545 2644.5,-545 2638.5,-545 2632.5,-539 2632.5,-533 2632.5,-533 2632.5,-521 2632.5,-521 2632.5,-515 2638.5,-509 2644.5,-509 2644.5,-509 2721.5,-509 2721.5,-509 2727.5,-509 2733.5,-515 2733.5,-521 2733.5,-521 2733.5,-533 2733.5,-533 2733.5,-539 2727.5,-545 2721.5,-545"/>
<text text-anchor="middle" x="2683" y="-530" font-family="sans" font-size="10.00" fill="#000000">fastqc_after_trim</text>
<text text-anchor="middle" x="2683" y="-519" font-family="sans" font-size="10.00" fill="#000000">rn: R1</text>
</g>
<!-- 18&#45;&gt;0 -->
<g id="edge15" class="edge">
<title>18&#45;&gt;0</title>
<path fill="none" stroke="#c0c0c0" stroke-width="2" d="M2678.856,-508.9265C2672.9979,-481.7528 2663,-428.6844 2663,-383 2663,-383 2663,-383 2663,-167 2663,-120.2805 2656.8464,-97.9553 2618,-72 2573.4512,-42.2347 1754.3347,-22.8194 1568.3478,-18.7834"/>
<polygon fill="#c0c0c0" stroke="#c0c0c0" stroke-width="2" points="1568.3155,-15.282 1558.2424,-18.5658 1568.1647,-22.2804 1568.3155,-15.282"/>
</g>
<!-- 19 -->
<g id="node20" class="node">
<title>19</title>
<path fill="none" stroke="#d85656" stroke-width="2" stroke-dasharray="5,2" d="M2655,-689C2655,-689 2553,-689 2553,-689 2547,-689 2541,-683 2541,-677 2541,-677 2541,-665 2541,-665 2541,-659 2547,-653 2553,-653 2553,-653 2655,-653 2655,-653 2661,-653 2667,-659 2667,-665 2667,-665 2667,-677 2667,-677 2667,-683 2661,-689 2655,-689"/>
<text text-anchor="middle" x="2604" y="-674" font-family="sans" font-size="10.00" fill="#000000">trimmomatic</text>
<text text-anchor="middle" x="2604" y="-663" font-family="sans" font-size="10.00" fill="#000000">sample: SRR10856737</text>
</g>
<!-- 19&#45;&gt;18 -->
<g id="edge37" class="edge">
<title>19&#45;&gt;18</title>
<path fill="none" stroke="#c0c0c0" stroke-width="2" d="M2630.9209,-652.85C2642.7993,-643.4909 2655.8799,-631.0832 2664,-617 2674.8688,-598.1494 2679.5503,-573.8687 2681.5518,-555.2787"/>
<polygon fill="#c0c0c0" stroke="#c0c0c0" stroke-width="2" points="2685.0596,-555.3425 2682.4471,-545.0749 2678.0864,-554.7306 2685.0596,-555.3425"/>
</g>
<!-- 20 -->
<g id="node21" class="node">
<title>20</title>
<path fill="none" stroke="#569ad8" stroke-width="2" stroke-dasharray="5,2" d="M2642.5,-617C2642.5,-617 2565.5,-617 2565.5,-617 2559.5,-617 2553.5,-611 2553.5,-605 2553.5,-605 2553.5,-593 2553.5,-593 2553.5,-587 2559.5,-581 2565.5,-581 2565.5,-581 2642.5,-581 2642.5,-581 2648.5,-581 2654.5,-587 2654.5,-593 2654.5,-593 2654.5,-605 2654.5,-605 2654.5,-611 2648.5,-617 2642.5,-617"/>
<text text-anchor="middle" x="2604" y="-602" font-family="sans" font-size="10.00" fill="#000000">fastqc_after_trim</text>
<text text-anchor="middle" x="2604" y="-591" font-family="sans" font-size="10.00" fill="#000000">rn: R2</text>
</g>
<!-- 19&#45;&gt;20 -->
<g id="edge38" class="edge">
<title>19&#45;&gt;20</title>
<path fill="none" stroke="#c0c0c0" stroke-width="2" d="M2604,-652.8314C2604,-645.131 2604,-635.9743 2604,-627.4166"/>
<polygon fill="#c0c0c0" stroke="#c0c0c0" stroke-width="2" points="2607.5001,-627.4132 2604,-617.4133 2600.5001,-627.4133 2607.5001,-627.4132"/>
</g>
<!-- 45 -->
<g id="node46" class="node">
<title>45</title>
<path fill="none" stroke="#d8bc56" stroke-width="2" d="M2311.5,-617C2311.5,-617 2252.5,-617 2252.5,-617 2246.5,-617 2240.5,-611 2240.5,-605 2240.5,-605 2240.5,-593 2240.5,-593 2240.5,-587 2246.5,-581 2252.5,-581 2252.5,-581 2311.5,-581 2311.5,-581 2317.5,-581 2323.5,-587 2323.5,-593 2323.5,-593 2323.5,-605 2323.5,-605 2323.5,-611 2317.5,-617 2311.5,-617"/>
<text text-anchor="middle" x="2282" y="-596.5" font-family="sans" font-size="10.00" fill="#000000">star_mapping</text>
</g>
<!-- 19&#45;&gt;45 -->
<g id="edge65" class="edge">
<title>19&#45;&gt;45</title>
<path fill="none" stroke="#c0c0c0" stroke-width="2" d="M2540.7674,-656.861C2480.1215,-643.3005 2389.6894,-623.0796 2333.3624,-610.4848"/>
<polygon fill="#c0c0c0" stroke="#c0c0c0" stroke-width="2" points="2334.122,-607.0682 2323.5992,-608.3017 2332.5944,-613.8995 2334.122,-607.0682"/>
</g>
<!-- 20&#45;&gt;0 -->
<g id="edge16" class="edge">
<title>20&#45;&gt;0</title>
<path fill="none" stroke="#c0c0c0" stroke-width="2" d="M2604,-580.8146C2604,-553.4983 2604,-500.25 2604,-455 2604,-455 2604,-455 2604,-167 2604,-144.3243 2654.9693,-136.0312 2493,-72 2405.9493,-37.5863 1735.6759,-22.0693 1568.6201,-18.7134"/>
<polygon fill="#c0c0c0" stroke="#c0c0c0" stroke-width="2" points="1568.4231,-15.2089 1558.3556,-18.5098 1568.2842,-22.2075 1568.4231,-15.2089"/>
</g>
<!-- 21 -->
<g id="node22" class="node">
<title>21</title>
<path fill="none" stroke="#567bd8" stroke-width="2" d="M1433.5,-257C1433.5,-257 1348.5,-257 1348.5,-257 1342.5,-257 1336.5,-251 1336.5,-245 1336.5,-245 1336.5,-233 1336.5,-233 1336.5,-227 1342.5,-221 1348.5,-221 1348.5,-221 1433.5,-221 1433.5,-221 1439.5,-221 1445.5,-227 1445.5,-233 1445.5,-233 1445.5,-245 1445.5,-245 1445.5,-251 1439.5,-257 1433.5,-257"/>
<text text-anchor="middle" x="1391" y="-236.5" font-family="sans" font-size="10.00" fill="#000000">BQSR_build_model</text>
</g>
<!-- 21&#45;&gt;0 -->
<g id="edge17" class="edge">
<title>21&#45;&gt;0</title>
<path fill="none" stroke="#c0c0c0" stroke-width="2" d="M1400.2975,-220.6845C1405.4408,-210.3134 1411.8202,-197.0438 1417,-185 1438.2304,-135.6363 1427.8194,-115.0339 1460,-72 1469.4947,-59.3032 1482.7499,-48.1255 1495.2396,-39.2826"/>
<polygon fill="#c0c0c0" stroke="#c0c0c0" stroke-width="2" points="1497.3936,-42.0508 1503.7084,-33.5435 1493.4666,-36.2561 1497.3936,-42.0508"/>
</g>
<!-- 46 -->
<g id="node47" class="node">
<title>46</title>
<path fill="none" stroke="#56d8d0" stroke-width="2" d="M1395.5,-185C1395.5,-185 1342.5,-185 1342.5,-185 1336.5,-185 1330.5,-179 1330.5,-173 1330.5,-173 1330.5,-161 1330.5,-161 1330.5,-155 1336.5,-149 1342.5,-149 1342.5,-149 1395.5,-149 1395.5,-149 1401.5,-149 1407.5,-155 1407.5,-161 1407.5,-161 1407.5,-173 1407.5,-173 1407.5,-179 1401.5,-185 1395.5,-185"/>
<text text-anchor="middle" x="1369" y="-164.5" font-family="sans" font-size="10.00" fill="#000000">Apply_BQSR</text>
</g>
<!-- 21&#45;&gt;46 -->
<g id="edge68" class="edge">
<title>21&#45;&gt;46</title>
<path fill="none" stroke="#c0c0c0" stroke-width="2" d="M1385.4485,-220.8314C1383.0697,-213.0463 1380.2362,-203.7729 1377.5967,-195.1347"/>
<polygon fill="#c0c0c0" stroke="#c0c0c0" stroke-width="2" points="1380.8958,-193.954 1374.6263,-185.4133 1374.2013,-195.9996 1380.8958,-193.954"/>
</g>
<!-- 22 -->
<g id="node23" class="node">
<title>22</title>
<path fill="none" stroke="#56d88a" stroke-width="2" d="M1350,-329C1350,-329 1320,-329 1320,-329 1314,-329 1308,-323 1308,-317 1308,-317 1308,-305 1308,-305 1308,-299 1314,-293 1320,-293 1320,-293 1350,-293 1350,-293 1356,-293 1362,-299 1362,-305 1362,-305 1362,-317 1362,-317 1362,-323 1356,-329 1350,-329"/>
<text text-anchor="middle" x="1335" y="-308.5" font-family="sans" font-size="10.00" fill="#000000">Tags</text>
</g>
<!-- 22&#45;&gt;21 -->
<g id="edge39" class="edge">
<title>22&#45;&gt;21</title>
<path fill="none" stroke="#c0c0c0" stroke-width="2" d="M1349.1312,-292.8314C1355.5811,-284.5386 1363.3445,-274.557 1370.4252,-265.4533"/>
<polygon fill="#c0c0c0" stroke="#c0c0c0" stroke-width="2" points="1373.3019,-267.4556 1376.6786,-257.4133 1367.7764,-263.158 1373.3019,-267.4556"/>
</g>
<!-- 22&#45;&gt;46 -->
<g id="edge67" class="edge">
<title>22&#45;&gt;46</title>
<path fill="none" stroke="#c0c0c0" stroke-width="2" d="M1329.4979,-292.8963C1324.7943,-274.3456 1319.9503,-244.9137 1328,-221 1331.3797,-210.9596 1337.4505,-201.3047 1343.9025,-193.0052"/>
<polygon fill="#c0c0c0" stroke="#c0c0c0" stroke-width="2" points="1346.6952,-195.1208 1350.396,-185.1933 1341.3121,-190.6461 1346.6952,-195.1208"/>
</g>
<!-- 23 -->
<g id="node24" class="node">
<title>23</title>
<path fill="none" stroke="#88d856" stroke-width="2" d="M1370,-401C1370,-401 1300,-401 1300,-401 1294,-401 1288,-395 1288,-389 1288,-389 1288,-377 1288,-377 1288,-371 1294,-365 1300,-365 1300,-365 1370,-365 1370,-365 1376,-365 1382,-371 1382,-377 1382,-377 1382,-389 1382,-389 1382,-395 1376,-401 1370,-401"/>
<text text-anchor="middle" x="1335" y="-380.5" font-family="sans" font-size="10.00" fill="#000000">gatk_duplicates</text>
</g>
<!-- 23&#45;&gt;22 -->
<g id="edge40" class="edge">
<title>23&#45;&gt;22</title>
<path fill="none" stroke="#c0c0c0" stroke-width="2" d="M1335,-364.8314C1335,-357.131 1335,-347.9743 1335,-339.4166"/>
<polygon fill="#c0c0c0" stroke="#c0c0c0" stroke-width="2" points="1338.5001,-339.4132 1335,-329.4133 1331.5001,-339.4133 1338.5001,-339.4132"/>
</g>
<!-- 24 -->
<g id="node25" class="node">
<title>24</title>
<path fill="none" stroke="#56d86b" stroke-width="2" d="M1394.5,-473C1394.5,-473 1275.5,-473 1275.5,-473 1269.5,-473 1263.5,-467 1263.5,-461 1263.5,-461 1263.5,-449 1263.5,-449 1263.5,-443 1269.5,-437 1275.5,-437 1275.5,-437 1394.5,-437 1394.5,-437 1400.5,-437 1406.5,-443 1406.5,-449 1406.5,-449 1406.5,-461 1406.5,-461 1406.5,-467 1400.5,-473 1394.5,-473"/>
<text text-anchor="middle" x="1335" y="-452.5" font-family="sans" font-size="10.00" fill="#000000">AddOrReplaceReadGroups</text>
</g>
<!-- 24&#45;&gt;23 -->
<g id="edge41" class="edge">
<title>24&#45;&gt;23</title>
<path fill="none" stroke="#c0c0c0" stroke-width="2" d="M1335,-436.8314C1335,-429.131 1335,-419.9743 1335,-411.4166"/>
<polygon fill="#c0c0c0" stroke="#c0c0c0" stroke-width="2" points="1338.5001,-411.4132 1335,-401.4133 1331.5001,-411.4133 1338.5001,-411.4132"/>
</g>
<!-- 25 -->
<g id="node26" class="node">
<title>25</title>
<path fill="none" stroke="#ced856" stroke-width="2" d="M1366,-545C1366,-545 1304,-545 1304,-545 1298,-545 1292,-539 1292,-533 1292,-533 1292,-521 1292,-521 1292,-515 1298,-509 1304,-509 1304,-509 1366,-509 1366,-509 1372,-509 1378,-515 1378,-521 1378,-521 1378,-533 1378,-533 1378,-539 1372,-545 1366,-545"/>
<text text-anchor="middle" x="1335" y="-524.5" font-family="sans" font-size="10.00" fill="#000000">samtools_sort</text>
</g>
<!-- 25&#45;&gt;24 -->
<g id="edge42" class="edge">
<title>25&#45;&gt;24</title>
<path fill="none" stroke="#c0c0c0" stroke-width="2" d="M1335,-508.8314C1335,-501.131 1335,-491.9743 1335,-483.4166"/>
<polygon fill="#c0c0c0" stroke="#c0c0c0" stroke-width="2" points="1338.5001,-483.4132 1335,-473.4133 1331.5001,-483.4133 1338.5001,-483.4132"/>
</g>
<!-- 26&#45;&gt;25 -->
<g id="edge43" class="edge">
<title>26&#45;&gt;25</title>
<path fill="none" stroke="#c0c0c0" stroke-width="2" d="M1335,-580.8314C1335,-573.131 1335,-563.9743 1335,-555.4166"/>
<polygon fill="#c0c0c0" stroke="#c0c0c0" stroke-width="2" points="1338.5001,-555.4132 1335,-545.4133 1331.5001,-555.4133 1338.5001,-555.4132"/>
</g>
<!-- 27 -->
<g id="node28" class="node">
<title>27</title>
<path fill="none" stroke="#68d856" stroke-width="2" d="M1833,-689C1833,-689 1739,-689 1739,-689 1733,-689 1727,-683 1727,-677 1727,-677 1727,-665 1727,-665 1727,-659 1733,-653 1739,-653 1739,-653 1833,-653 1833,-653 1839,-653 1845,-659 1845,-665 1845,-665 1845,-677 1845,-677 1845,-683 1839,-689 1833,-689"/>
<text text-anchor="middle" x="1786" y="-668.5" font-family="sans" font-size="10.00" fill="#000000">build_genome_index</text>
</g>
<!-- 27&#45;&gt;0 -->
<g id="edge25" class="edge">
<title>27&#45;&gt;0</title>
<path fill="none" stroke="#c0c0c0" stroke-width="2" d="M1786,-652.8146C1786,-625.4983 1786,-572.25 1786,-527 1786,-527 1786,-527 1786,-167 1786,-121.8479 1783.7915,-101.9474 1750,-72 1723.2936,-48.3317 1623.6147,-30.9942 1568.4017,-22.9694"/>
<polygon fill="#c0c0c0" stroke="#c0c0c0" stroke-width="2" points="1568.7051,-19.4774 1558.312,-21.5347 1567.7196,-26.4077 1568.7051,-19.4774"/>
</g>
<!-- 27&#45;&gt;26 -->
<g id="edge45" class="edge">
<title>27&#45;&gt;26</title>
<path fill="none" stroke="#c0c0c0" stroke-width="2" d="M1726.5759,-661.5132C1637.6003,-647.3087 1471.2187,-620.7467 1386.8729,-607.2813"/>
<polygon fill="#c0c0c0" stroke="#c0c0c0" stroke-width="2" points="1387.1854,-603.7869 1376.7587,-605.6666 1386.0818,-610.6994 1387.1854,-603.7869"/>
</g>
<!-- 27&#45;&gt;33 -->
<g id="edge52" class="edge">
<title>27&#45;&gt;33</title>
<path fill="none" stroke="#c0c0c0" stroke-width="2" d="M1756.476,-652.8314C1741.5109,-643.6221 1723.1614,-632.3301 1707.1397,-622.4706"/>
<polygon fill="#c0c0c0" stroke="#c0c0c0" stroke-width="2" points="1708.8655,-619.423 1698.5146,-617.1628 1705.1968,-625.3847 1708.8655,-619.423"/>
</g>
<!-- 27&#45;&gt;39 -->
<g id="edge59" class="edge">
<title>27&#45;&gt;39</title>
<path fill="none" stroke="#c0c0c0" stroke-width="2" d="M1845.1687,-655.7307C1895.0465,-642.859 1965.7085,-624.6236 2013.3382,-612.3321"/>
<polygon fill="#c0c0c0" stroke="#c0c0c0" stroke-width="2" points="2014.3284,-615.6913 2023.1366,-609.8035 2012.5792,-608.9133 2014.3284,-615.6913"/>
</g>
<!-- 27&#45;&gt;45 -->
<g id="edge66" class="edge">
<title>27&#45;&gt;45</title>
<path fill="none" stroke="#c0c0c0" stroke-width="2" d="M1845.3365,-662.3866C1943.3597,-648.1575 2137.4829,-619.9783 2230.2641,-606.5101"/>
<polygon fill="#c0c0c0" stroke="#c0c0c0" stroke-width="2" points="2230.8673,-609.9593 2240.2608,-605.0589 2229.8617,-603.0319 2230.8673,-609.9593"/>
</g>
<!-- 28 -->
<g id="node29" class="node">
<title>28</title>
<path fill="none" stroke="#567bd8" stroke-width="2" d="M1745.5,-257C1745.5,-257 1660.5,-257 1660.5,-257 1654.5,-257 1648.5,-251 1648.5,-245 1648.5,-245 1648.5,-233 1648.5,-233 1648.5,-227 1654.5,-221 1660.5,-221 1660.5,-221 1745.5,-221 1745.5,-221 1751.5,-221 1757.5,-227 1757.5,-233 1757.5,-233 1757.5,-245 1757.5,-245 1757.5,-251 1751.5,-257 1745.5,-257"/>
<text text-anchor="middle" x="1703" y="-236.5" font-family="sans" font-size="10.00" fill="#000000">BQSR_build_model</text>
</g>
<!-- 28&#45;&gt;0 -->
<g id="edge18" class="edge">
<title>28&#45;&gt;0</title>
<path fill="none" stroke="#c0c0c0" stroke-width="2" d="M1713.7567,-220.7825C1731.8018,-187.5787 1763.0183,-116.5384 1729,-72 1709.5758,-46.5689 1619.9292,-30.2401 1568.1678,-22.7606"/>
<polygon fill="#c0c0c0" stroke="#c0c0c0" stroke-width="2" points="1568.4338,-19.2637 1558.0446,-21.3407 1567.4614,-26.1959 1568.4338,-19.2637"/>
</g>
<!-- 47 -->
<g id="node48" class="node">
<title>47</title>
<path fill="none" stroke="#56d8d0" stroke-width="2" d="M1675.5,-185C1675.5,-185 1622.5,-185 1622.5,-185 1616.5,-185 1610.5,-179 1610.5,-173 1610.5,-173 1610.5,-161 1610.5,-161 1610.5,-155 1616.5,-149 1622.5,-149 1622.5,-149 1675.5,-149 1675.5,-149 1681.5,-149 1687.5,-155 1687.5,-161 1687.5,-161 1687.5,-173 1687.5,-173 1687.5,-179 1681.5,-185 1675.5,-185"/>
<text text-anchor="middle" x="1649" y="-164.5" font-family="sans" font-size="10.00" fill="#000000">Apply_BQSR</text>
</g>
<!-- 28&#45;&gt;47 -->
<g id="edge70" class="edge">
<title>28&#45;&gt;47</title>
<path fill="none" stroke="#c0c0c0" stroke-width="2" d="M1689.3735,-220.8314C1683.154,-212.5386 1675.6678,-202.557 1668.84,-193.4533"/>
<polygon fill="#c0c0c0" stroke="#c0c0c0" stroke-width="2" points="1671.61,-191.3133 1662.81,-185.4133 1666.01,-195.5133 1671.61,-191.3133"/>
</g>
<!-- 29 -->
<g id="node30" class="node">
<title>29</title>
<path fill="none" stroke="#56d88a" stroke-width="2" d="M1684,-329C1684,-329 1654,-329 1654,-329 1648,-329 1642,-323 1642,-317 1642,-317 1642,-305 1642,-305 1642,-299 1648,-293 1654,-293 1654,-293 1684,-293 1684,-293 1690,-293 1696,-299 1696,-305 1696,-305 1696,-317 1696,-317 1696,-323 1690,-329 1684,-329"/>
<text text-anchor="middle" x="1669" y="-308.5" font-family="sans" font-size="10.00" fill="#000000">Tags</text>
</g>
<!-- 29&#45;&gt;28 -->
<g id="edge46" class="edge">
<title>29&#45;&gt;28</title>
<path fill="none" stroke="#c0c0c0" stroke-width="2" d="M1677.5796,-292.8314C1681.3358,-284.8771 1685.8257,-275.369 1689.9798,-266.5723"/>
<polygon fill="#c0c0c0" stroke="#c0c0c0" stroke-width="2" points="1693.1996,-267.9503 1694.3048,-257.4133 1686.8699,-264.9612 1693.1996,-267.9503"/>
</g>
<!-- 29&#45;&gt;47 -->
<g id="edge69" class="edge">
<title>29&#45;&gt;47</title>
<path fill="none" stroke="#c0c0c0" stroke-width="2" d="M1656.3878,-292.9415C1650.1233,-282.866 1643.2188,-269.7967 1640,-257 1634.8768,-236.6318 1637.5636,-212.9799 1641.2981,-195.0353"/>
<polygon fill="#c0c0c0" stroke="#c0c0c0" stroke-width="2" points="1644.7301,-195.728 1643.5668,-185.1973 1637.9091,-194.155 1644.7301,-195.728"/>
</g>
<!-- 30 -->
<g id="node31" class="node">
<title>30</title>
<path fill="none" stroke="#88d856" stroke-width="2" d="M1704,-401C1704,-401 1634,-401 1634,-401 1628,-401 1622,-395 1622,-389 1622,-389 1622,-377 1622,-377 1622,-371 1628,-365 1634,-365 1634,-365 1704,-365 1704,-365 1710,-365 1716,-371 1716,-377 1716,-377 1716,-389 1716,-389 1716,-395 1710,-401 1704,-401"/>
<text text-anchor="middle" x="1669" y="-380.5" font-family="sans" font-size="10.00" fill="#000000">gatk_duplicates</text>
</g>
<!-- 30&#45;&gt;29 -->
<g id="edge47" class="edge">
<title>30&#45;&gt;29</title>
<path fill="none" stroke="#c0c0c0" stroke-width="2" d="M1669,-364.8314C1669,-357.131 1669,-347.9743 1669,-339.4166"/>
<polygon fill="#c0c0c0" stroke="#c0c0c0" stroke-width="2" points="1672.5001,-339.4132 1669,-329.4133 1665.5001,-339.4133 1672.5001,-339.4132"/>
</g>
<!-- 31 -->
<g id="node32" class="node">
<title>31</title>
<path fill="none" stroke="#56d86b" stroke-width="2" d="M1728.5,-473C1728.5,-473 1609.5,-473 1609.5,-473 1603.5,-473 1597.5,-467 1597.5,-461 1597.5,-461 1597.5,-449 1597.5,-449 1597.5,-443 1603.5,-437 1609.5,-437 1609.5,-437 1728.5,-437 1728.5,-437 1734.5,-437 1740.5,-443 1740.5,-449 1740.5,-449 1740.5,-461 1740.5,-461 1740.5,-467 1734.5,-473 1728.5,-473"/>
<text text-anchor="middle" x="1669" y="-452.5" font-family="sans" font-size="10.00" fill="#000000">AddOrReplaceReadGroups</text>
</g>
<!-- 31&#45;&gt;30 -->
<g id="edge48" class="edge">
<title>31&#45;&gt;30</title>
<path fill="none" stroke="#c0c0c0" stroke-width="2" d="M1669,-436.8314C1669,-429.131 1669,-419.9743 1669,-411.4166"/>
<polygon fill="#c0c0c0" stroke="#c0c0c0" stroke-width="2" points="1672.5001,-411.4132 1669,-401.4133 1665.5001,-411.4133 1672.5001,-411.4132"/>
</g>
<!-- 32 -->
<g id="node33" class="node">
<title>32</title>
<path fill="none" stroke="#ced856" stroke-width="2" d="M1700,-545C1700,-545 1638,-545 1638,-545 1632,-545 1626,-539 1626,-533 1626,-533 1626,-521 1626,-521 1626,-515 1632,-509 1638,-509 1638,-509 1700,-509 1700,-509 1706,-509 1712,-515 1712,-521 1712,-521 1712,-533 1712,-533 1712,-539 1706,-545 1700,-545"/>
<text text-anchor="middle" x="1669" y="-524.5" font-family="sans" font-size="10.00" fill="#000000">samtools_sort</text>
</g>
<!-- 32&#45;&gt;31 -->
<g id="edge49" class="edge">
<title>32&#45;&gt;31</title>
<path fill="none" stroke="#c0c0c0" stroke-width="2" d="M1669,-508.8314C1669,-501.131 1669,-491.9743 1669,-483.4166"/>
<polygon fill="#c0c0c0" stroke="#c0c0c0" stroke-width="2" points="1672.5001,-483.4132 1669,-473.4133 1665.5001,-483.4133 1672.5001,-483.4132"/>
</g>
<!-- 33&#45;&gt;32 -->
<g id="edge50" class="edge">
<title>33&#45;&gt;32</title>
<path fill="none" stroke="#c0c0c0" stroke-width="2" d="M1669,-580.8314C1669,-573.131 1669,-563.9743 1669,-555.4166"/>
<polygon fill="#c0c0c0" stroke="#c0c0c0" stroke-width="2" points="1672.5001,-555.4132 1669,-545.4133 1665.5001,-555.4133 1672.5001,-555.4132"/>
</g>
<!-- 34 -->
<g id="node35" class="node">
<title>34</title>
<path fill="none" stroke="#567bd8" stroke-width="2" d="M2148.5,-257C2148.5,-257 2063.5,-257 2063.5,-257 2057.5,-257 2051.5,-251 2051.5,-245 2051.5,-245 2051.5,-233 2051.5,-233 2051.5,-227 2057.5,-221 2063.5,-221 2063.5,-221 2148.5,-221 2148.5,-221 2154.5,-221 2160.5,-227 2160.5,-233 2160.5,-233 2160.5,-245 2160.5,-245 2160.5,-251 2154.5,-257 2148.5,-257"/>
<text text-anchor="middle" x="2106" y="-236.5" font-family="sans" font-size="10.00" fill="#000000">BQSR_build_model</text>
</g>
<!-- 34&#45;&gt;0 -->
<g id="edge19" class="edge">
<title>34&#45;&gt;0</title>
<path fill="none" stroke="#c0c0c0" stroke-width="2" d="M2120.6718,-220.8981C2146.104,-187.2491 2192.0831,-114.6232 2153,-72 2113.3659,-28.7759 1696.2253,-20.0414 1568.1722,-18.3737"/>
<polygon fill="#c0c0c0" stroke="#c0c0c0" stroke-width="2" points="1568.1152,-14.8728 1558.0727,-18.2491 1568.0288,-21.8722 1568.1152,-14.8728"/>
</g>
<!-- 48 -->
<g id="node49" class="node">
<title>48</title>
<path fill="none" stroke="#56d8d0" stroke-width="2" d="M2049.5,-185C2049.5,-185 1996.5,-185 1996.5,-185 1990.5,-185 1984.5,-179 1984.5,-173 1984.5,-173 1984.5,-161 1984.5,-161 1984.5,-155 1990.5,-149 1996.5,-149 1996.5,-149 2049.5,-149 2049.5,-149 2055.5,-149 2061.5,-155 2061.5,-161 2061.5,-161 2061.5,-173 2061.5,-173 2061.5,-179 2055.5,-185 2049.5,-185"/>
<text text-anchor="middle" x="2023" y="-164.5" font-family="sans" font-size="10.00" fill="#000000">Apply_BQSR</text>
</g>
<!-- 34&#45;&gt;48 -->
<g id="edge72" class="edge">
<title>34&#45;&gt;48</title>
<path fill="none" stroke="#c0c0c0" stroke-width="2" d="M2085.0556,-220.8314C2074.9309,-212.0485 2062.6223,-201.3712 2051.6452,-191.8489"/>
<polygon fill="#c0c0c0" stroke="#c0c0c0" stroke-width="2" points="2053.7851,-189.0718 2043.9377,-185.1628 2049.1981,-194.3595 2053.7851,-189.0718"/>
</g>
<!-- 35 -->
<g id="node36" class="node">
<title>35</title>
<path fill="none" stroke="#56d88a" stroke-width="2" d="M2080,-329C2080,-329 2050,-329 2050,-329 2044,-329 2038,-323 2038,-317 2038,-317 2038,-305 2038,-305 2038,-299 2044,-293 2050,-293 2050,-293 2080,-293 2080,-293 2086,-293 2092,-299 2092,-305 2092,-305 2092,-317 2092,-317 2092,-323 2086,-329 2080,-329"/>
<text text-anchor="middle" x="2065" y="-308.5" font-family="sans" font-size="10.00" fill="#000000">Tags</text>
</g>
<!-- 35&#45;&gt;34 -->
<g id="edge53" class="edge">
<title>35&#45;&gt;34</title>
<path fill="none" stroke="#c0c0c0" stroke-width="2" d="M2075.346,-292.8314C2079.9237,-284.7925 2085.4052,-275.1666 2090.4588,-266.2918"/>
<polygon fill="#c0c0c0" stroke="#c0c0c0" stroke-width="2" points="2093.6077,-267.8351 2095.5147,-257.4133 2087.5248,-264.3712 2093.6077,-267.8351"/>
</g>
<!-- 35&#45;&gt;48 -->
<g id="edge71" class="edge">
<title>35&#45;&gt;48</title>
<path fill="none" stroke="#c0c0c0" stroke-width="2" d="M2056.6844,-292.7861C2052.1921,-282.4467 2046.8032,-269.175 2043,-257 2036.6466,-236.661 2031.4926,-213.1376 2028.0086,-195.2417"/>
<polygon fill="#c0c0c0" stroke="#c0c0c0" stroke-width="2" points="2031.4006,-194.3413 2026.1067,-185.1639 2024.522,-195.6395 2031.4006,-194.3413"/>
</g>
<!-- 36 -->
<g id="node37" class="node">
<title>36</title>
<path fill="none" stroke="#88d856" stroke-width="2" d="M2100,-401C2100,-401 2030,-401 2030,-401 2024,-401 2018,-395 2018,-389 2018,-389 2018,-377 2018,-377 2018,-371 2024,-365 2030,-365 2030,-365 2100,-365 2100,-365 2106,-365 2112,-371 2112,-377 2112,-377 2112,-389 2112,-389 2112,-395 2106,-401 2100,-401"/>
<text text-anchor="middle" x="2065" y="-380.5" font-family="sans" font-size="10.00" fill="#000000">gatk_duplicates</text>
</g>
<!-- 36&#45;&gt;35 -->
<g id="edge54" class="edge">
<title>36&#45;&gt;35</title>
<path fill="none" stroke="#c0c0c0" stroke-width="2" d="M2065,-364.8314C2065,-357.131 2065,-347.9743 2065,-339.4166"/>
<polygon fill="#c0c0c0" stroke="#c0c0c0" stroke-width="2" points="2068.5001,-339.4132 2065,-329.4133 2061.5001,-339.4133 2068.5001,-339.4132"/>
</g>
<!-- 37 -->
<g id="node38" class="node">
<title>37</title>
<path fill="none" stroke="#56d86b" stroke-width="2" d="M2124.5,-473C2124.5,-473 2005.5,-473 2005.5,-473 1999.5,-473 1993.5,-467 1993.5,-461 1993.5,-461 1993.5,-449 1993.5,-449 1993.5,-443 1999.5,-437 2005.5,-437 2005.5,-437 2124.5,-437 2124.5,-437 2130.5,-437 2136.5,-443 2136.5,-449 2136.5,-449 2136.5,-461 2136.5,-461 2136.5,-467 2130.5,-473 2124.5,-473"/>
<text text-anchor="middle" x="2065" y="-452.5" font-family="sans" font-size="10.00" fill="#000000">AddOrReplaceReadGroups</text>
</g>
<!-- 37&#45;&gt;36 -->
<g id="edge55" class="edge">
<title>37&#45;&gt;36</title>
<path fill="none" stroke="#c0c0c0" stroke-width="2" d="M2065,-436.8314C2065,-429.131 2065,-419.9743 2065,-411.4166"/>
<polygon fill="#c0c0c0" stroke="#c0c0c0" stroke-width="2" points="2068.5001,-411.4132 2065,-401.4133 2061.5001,-411.4133 2068.5001,-411.4132"/>
</g>
<!-- 38 -->
<g id="node39" class="node">
<title>38</title>
<path fill="none" stroke="#ced856" stroke-width="2" d="M2096,-545C2096,-545 2034,-545 2034,-545 2028,-545 2022,-539 2022,-533 2022,-533 2022,-521 2022,-521 2022,-515 2028,-509 2034,-509 2034,-509 2096,-509 2096,-509 2102,-509 2108,-515 2108,-521 2108,-521 2108,-533 2108,-533 2108,-539 2102,-545 2096,-545"/>
<text text-anchor="middle" x="2065" y="-524.5" font-family="sans" font-size="10.00" fill="#000000">samtools_sort</text>
</g>
<!-- 38&#45;&gt;37 -->
<g id="edge56" class="edge">
<title>38&#45;&gt;37</title>
<path fill="none" stroke="#c0c0c0" stroke-width="2" d="M2065,-508.8314C2065,-501.131 2065,-491.9743 2065,-483.4166"/>
<polygon fill="#c0c0c0" stroke="#c0c0c0" stroke-width="2" points="2068.5001,-483.4132 2065,-473.4133 2061.5001,-483.4133 2068.5001,-483.4132"/>
</g>
<!-- 39&#45;&gt;38 -->
<g id="edge57" class="edge">
<title>39&#45;&gt;38</title>
<path fill="none" stroke="#c0c0c0" stroke-width="2" d="M2065,-580.8314C2065,-573.131 2065,-563.9743 2065,-555.4166"/>
<polygon fill="#c0c0c0" stroke="#c0c0c0" stroke-width="2" points="2068.5001,-555.4132 2065,-545.4133 2061.5001,-555.4133 2068.5001,-555.4132"/>
</g>
<!-- 40 -->
<g id="node41" class="node">
<title>40</title>
<path fill="none" stroke="#567bd8" stroke-width="2" d="M2365.5,-257C2365.5,-257 2280.5,-257 2280.5,-257 2274.5,-257 2268.5,-251 2268.5,-245 2268.5,-245 2268.5,-233 2268.5,-233 2268.5,-227 2274.5,-221 2280.5,-221 2280.5,-221 2365.5,-221 2365.5,-221 2371.5,-221 2377.5,-227 2377.5,-233 2377.5,-233 2377.5,-245 2377.5,-245 2377.5,-251 2371.5,-257 2365.5,-257"/>
<text text-anchor="middle" x="2323" y="-236.5" font-family="sans" font-size="10.00" fill="#000000">BQSR_build_model</text>
</g>
<!-- 40&#45;&gt;0 -->
<g id="edge20" class="edge">
<title>40&#45;&gt;0</title>
<path fill="none" stroke="#c0c0c0" stroke-width="2" d="M2337.4248,-220.7921C2362.4036,-186.9666 2407.4321,-114.0581 2368,-72 2340.2833,-42.4375 1727.736,-23.4528 1568.5355,-19.0062"/>
<polygon fill="#c0c0c0" stroke="#c0c0c0" stroke-width="2" points="1568.3853,-15.5008 1558.2923,-18.7228 1568.1916,-22.4982 1568.3853,-15.5008"/>
</g>
<!-- 49 -->
<g id="node50" class="node">
<title>49</title>
<path fill="none" stroke="#56d8d0" stroke-width="2" d="M2297.5,-185C2297.5,-185 2244.5,-185 2244.5,-185 2238.5,-185 2232.5,-179 2232.5,-173 2232.5,-173 2232.5,-161 2232.5,-161 2232.5,-155 2238.5,-149 2244.5,-149 2244.5,-149 2297.5,-149 2297.5,-149 2303.5,-149 2309.5,-155 2309.5,-161 2309.5,-161 2309.5,-173 2309.5,-173 2309.5,-179 2303.5,-185 2297.5,-185"/>
<text text-anchor="middle" x="2271" y="-164.5" font-family="sans" font-size="10.00" fill="#000000">Apply_BQSR</text>
</g>
<!-- 40&#45;&gt;49 -->
<g id="edge74" class="edge">
<title>40&#45;&gt;49</title>
<path fill="none" stroke="#c0c0c0" stroke-width="2" d="M2309.8782,-220.8314C2303.9501,-212.6232 2296.8271,-202.7606 2290.3067,-193.7323"/>
<polygon fill="#c0c0c0" stroke="#c0c0c0" stroke-width="2" points="2292.9908,-191.4708 2284.2985,-185.4133 2287.316,-195.5693 2292.9908,-191.4708"/>
</g>
<!-- 41 -->
<g id="node42" class="node">
<title>41</title>
<path fill="none" stroke="#56d88a" stroke-width="2" d="M2297,-329C2297,-329 2267,-329 2267,-329 2261,-329 2255,-323 2255,-317 2255,-317 2255,-305 2255,-305 2255,-299 2261,-293 2267,-293 2267,-293 2297,-293 2297,-293 2303,-293 2309,-299 2309,-305 2309,-305 2309,-317 2309,-317 2309,-323 2303,-329 2297,-329"/>
<text text-anchor="middle" x="2282" y="-308.5" font-family="sans" font-size="10.00" fill="#000000">Tags</text>
</g>
<!-- 41&#45;&gt;40 -->
<g id="edge60" class="edge">
<title>41&#45;&gt;40</title>
<path fill="none" stroke="#c0c0c0" stroke-width="2" d="M2292.346,-292.8314C2296.9237,-284.7925 2302.4052,-275.1666 2307.4588,-266.2918"/>
<polygon fill="#c0c0c0" stroke="#c0c0c0" stroke-width="2" points="2310.6077,-267.8351 2312.5147,-257.4133 2304.5248,-264.3712 2310.6077,-267.8351"/>
</g>
<!-- 41&#45;&gt;49 -->
<g id="edge73" class="edge">
<title>41&#45;&gt;49</title>
<path fill="none" stroke="#c0c0c0" stroke-width="2" d="M2272.4092,-292.5602C2267.6501,-282.373 2262.4131,-269.3186 2260,-257 2255.9527,-236.3387 2259.1372,-212.7 2263.1015,-194.8348"/>
<polygon fill="#c0c0c0" stroke="#c0c0c0" stroke-width="2" points="2266.5191,-195.5928 2265.477,-185.0494 2259.7166,-193.9414 2266.5191,-195.5928"/>
</g>
<!-- 42 -->
<g id="node43" class="node">
<title>42</title>
<path fill="none" stroke="#88d856" stroke-width="2" d="M2317,-401C2317,-401 2247,-401 2247,-401 2241,-401 2235,-395 2235,-389 2235,-389 2235,-377 2235,-377 2235,-371 2241,-365 2247,-365 2247,-365 2317,-365 2317,-365 2323,-365 2329,-371 2329,-377 2329,-377 2329,-389 2329,-389 2329,-395 2323,-401 2317,-401"/>
<text text-anchor="middle" x="2282" y="-380.5" font-family="sans" font-size="10.00" fill="#000000">gatk_duplicates</text>
</g>
<!-- 42&#45;&gt;41 -->
<g id="edge61" class="edge">
<title>42&#45;&gt;41</title>
<path fill="none" stroke="#c0c0c0" stroke-width="2" d="M2282,-364.8314C2282,-357.131 2282,-347.9743 2282,-339.4166"/>
<polygon fill="#c0c0c0" stroke="#c0c0c0" stroke-width="2" points="2285.5001,-339.4132 2282,-329.4133 2278.5001,-339.4133 2285.5001,-339.4132"/>
</g>
<!-- 43 -->
<g id="node44" class="node">
<title>43</title>
<path fill="none" stroke="#56d86b" stroke-width="2" d="M2341.5,-473C2341.5,-473 2222.5,-473 2222.5,-473 2216.5,-473 2210.5,-467 2210.5,-461 2210.5,-461 2210.5,-449 2210.5,-449 2210.5,-443 2216.5,-437 2222.5,-437 2222.5,-437 2341.5,-437 2341.5,-437 2347.5,-437 2353.5,-443 2353.5,-449 2353.5,-449 2353.5,-461 2353.5,-461 2353.5,-467 2347.5,-473 2341.5,-473"/>
<text text-anchor="middle" x="2282" y="-452.5" font-family="sans" font-size="10.00" fill="#000000">AddOrReplaceReadGroups</text>
</g>
<!-- 43&#45;&gt;42 -->
<g id="edge62" class="edge">
<title>43&#45;&gt;42</title>
<path fill="none" stroke="#c0c0c0" stroke-width="2" d="M2282,-436.8314C2282,-429.131 2282,-419.9743 2282,-411.4166"/>
<polygon fill="#c0c0c0" stroke="#c0c0c0" stroke-width="2" points="2285.5001,-411.4132 2282,-401.4133 2278.5001,-411.4133 2285.5001,-411.4132"/>
</g>
<!-- 44 -->
<g id="node45" class="node">
<title>44</title>
<path fill="none" stroke="#ced856" stroke-width="2" d="M2313,-545C2313,-545 2251,-545 2251,-545 2245,-545 2239,-539 2239,-533 2239,-533 2239,-521 2239,-521 2239,-515 2245,-509 2251,-509 2251,-509 2313,-509 2313,-509 2319,-509 2325,-515 2325,-521 2325,-521 2325,-533 2325,-533 2325,-539 2319,-545 2313,-545"/>
<text text-anchor="middle" x="2282" y="-524.5" font-family="sans" font-size="10.00" fill="#000000">samtools_sort</text>
</g>
<!-- 44&#45;&gt;43 -->
<g id="edge63" class="edge">
<title>44&#45;&gt;43</title>
<path fill="none" stroke="#c0c0c0" stroke-width="2" d="M2282,-508.8314C2282,-501.131 2282,-491.9743 2282,-483.4166"/>
<polygon fill="#c0c0c0" stroke="#c0c0c0" stroke-width="2" points="2285.5001,-483.4132 2282,-473.4133 2278.5001,-483.4133 2285.5001,-483.4132"/>
</g>
<!-- 45&#45;&gt;44 -->
<g id="edge64" class="edge">
<title>45&#45;&gt;44</title>
<path fill="none" stroke="#c0c0c0" stroke-width="2" d="M2282,-580.8314C2282,-573.131 2282,-563.9743 2282,-555.4166"/>
<polygon fill="#c0c0c0" stroke="#c0c0c0" stroke-width="2" points="2285.5001,-555.4132 2282,-545.4133 2278.5001,-555.4133 2285.5001,-555.4132"/>
</g>
<!-- 46&#45;&gt;0 -->
<g id="edge21" class="edge">
<title>46&#45;&gt;0</title>
<path fill="none" stroke="#c0c0c0" stroke-width="2" d="M1375.3371,-148.7972C1383.3778,-127.9558 1399.0225,-93.8802 1422,-72 1442.4746,-52.5032 1471.3437,-38.6304 1494.2282,-29.8313"/>
<polygon fill="#c0c0c0" stroke="#c0c0c0" stroke-width="2" points="1495.4535,-33.1099 1503.6275,-26.3693 1493.0341,-26.5413 1495.4535,-33.1099"/>
</g>
<!-- 50 -->
<g id="node51" class="node">
<title>50</title>
<path fill="none" stroke="#d89c56" stroke-width="2" d="M1357.5,-110.5C1357.5,-110.5 1240.5,-110.5 1240.5,-110.5 1234.5,-110.5 1228.5,-104.5 1228.5,-98.5 1228.5,-98.5 1228.5,-86.5 1228.5,-86.5 1228.5,-80.5 1234.5,-74.5 1240.5,-74.5 1240.5,-74.5 1357.5,-74.5 1357.5,-74.5 1363.5,-74.5 1369.5,-80.5 1369.5,-86.5 1369.5,-86.5 1369.5,-98.5 1369.5,-98.5 1369.5,-104.5 1363.5,-110.5 1357.5,-110.5"/>
<text text-anchor="middle" x="1299" y="-90" font-family="sans" font-size="10.00" fill="#000000">qualimap_transcriptomes</text>
</g>
<!-- 46&#45;&gt;50 -->
<g id="edge75" class="edge">
<title>46&#45;&gt;50</title>
<path fill="none" stroke="#c0c0c0" stroke-width="2" d="M1352.055,-148.9656C1343.3492,-139.7003 1332.5913,-128.2507 1323.0432,-118.0888"/>
<polygon fill="#c0c0c0" stroke="#c0c0c0" stroke-width="2" points="1325.4299,-115.5176 1316.0316,-110.6265 1320.3285,-120.3109 1325.4299,-115.5176"/>
</g>
<!-- 54 -->
<g id="node55" class="node">
<title>54</title>
<path fill="none" stroke="#d87556" stroke-width="2" d="M1934,-110.5C1934,-110.5 1826,-110.5 1826,-110.5 1820,-110.5 1814,-104.5 1814,-98.5 1814,-98.5 1814,-86.5 1814,-86.5 1814,-80.5 1820,-74.5 1826,-74.5 1826,-74.5 1934,-74.5 1934,-74.5 1940,-74.5 1946,-80.5 1946,-86.5 1946,-86.5 1946,-98.5 1946,-98.5 1946,-104.5 1940,-110.5 1934,-110.5"/>
<text text-anchor="middle" x="1880" y="-90" font-family="sans" font-size="10.00" fill="#000000">multiqc_transcriptomes</text>
</g>
<!-- 46&#45;&gt;54 -->
<g id="edge79" class="edge">
<title>46&#45;&gt;54</title>
<path fill="none" stroke="#c0c0c0" stroke-width="2" d="M1407.8275,-161.3392C1492.0725,-149.0569 1692.9411,-119.7718 1803.6077,-103.6374"/>
<polygon fill="#c0c0c0" stroke="#c0c0c0" stroke-width="2" points="1804.3118,-107.0719 1813.7022,-102.1657 1803.3018,-100.1451 1804.3118,-107.0719"/>
</g>
<!-- 47&#45;&gt;0 -->
<g id="edge22" class="edge">
<title>47&#45;&gt;0</title>
<path fill="none" stroke="#c0c0c0" stroke-width="2" d="M1613.6433,-148.9358C1598.586,-139.8244 1581.8098,-127.5929 1570,-113 1554.0499,-93.291 1543.7856,-66.1628 1537.8121,-45.9404"/>
<polygon fill="#c0c0c0" stroke="#c0c0c0" stroke-width="2" points="1541.1197,-44.77 1535.0721,-36.0707 1534.3748,-46.6426 1541.1197,-44.77"/>
</g>
<!-- 51 -->
<g id="node52" class="node">
<title>51</title>
<path fill="none" stroke="#d89c56" stroke-width="2" d="M1707.5,-110.5C1707.5,-110.5 1590.5,-110.5 1590.5,-110.5 1584.5,-110.5 1578.5,-104.5 1578.5,-98.5 1578.5,-98.5 1578.5,-86.5 1578.5,-86.5 1578.5,-80.5 1584.5,-74.5 1590.5,-74.5 1590.5,-74.5 1707.5,-74.5 1707.5,-74.5 1713.5,-74.5 1719.5,-80.5 1719.5,-86.5 1719.5,-86.5 1719.5,-98.5 1719.5,-98.5 1719.5,-104.5 1713.5,-110.5 1707.5,-110.5"/>
<text text-anchor="middle" x="1649" y="-90" font-family="sans" font-size="10.00" fill="#000000">qualimap_transcriptomes</text>
</g>
<!-- 47&#45;&gt;51 -->
<g id="edge76" class="edge">
<title>47&#45;&gt;51</title>
<path fill="none" stroke="#c0c0c0" stroke-width="2" d="M1649,-148.9656C1649,-140.5178 1649,-130.2542 1649,-120.8064"/>
<polygon fill="#c0c0c0" stroke="#c0c0c0" stroke-width="2" points="1652.5001,-120.6265 1649,-110.6265 1645.5001,-120.6265 1652.5001,-120.6265"/>
</g>
<!-- 47&#45;&gt;54 -->
<g id="edge80" class="edge">
<title>47&#45;&gt;54</title>
<path fill="none" stroke="#c0c0c0" stroke-width="2" d="M1687.6642,-154.5304C1722.1467,-143.4094 1773.3512,-126.8954 1814.2593,-113.7021"/>
<polygon fill="#c0c0c0" stroke="#c0c0c0" stroke-width="2" points="1815.4426,-116.9981 1823.8856,-110.5975 1813.2939,-110.336 1815.4426,-116.9981"/>
</g>
<!-- 48&#45;&gt;0 -->
<g id="edge23" class="edge">
<title>48&#45;&gt;0</title>
<path fill="none" stroke="#c0c0c0" stroke-width="2" d="M2012.4756,-148.9115C1997.6226,-124.043 1970.5877,-81.3038 1955,-72 1890.0306,-33.2218 1659.5202,-21.9583 1568.43,-18.9805"/>
<polygon fill="#c0c0c0" stroke="#c0c0c0" stroke-width="2" points="1568.3889,-15.4776 1558.2848,-18.6646 1568.171,-22.4742 1568.3889,-15.4776"/>
</g>
<!-- 52 -->
<g id="node53" class="node">
<title>52</title>
<path fill="none" stroke="#d89c56" stroke-width="2" d="M2131.5,-110.5C2131.5,-110.5 2014.5,-110.5 2014.5,-110.5 2008.5,-110.5 2002.5,-104.5 2002.5,-98.5 2002.5,-98.5 2002.5,-86.5 2002.5,-86.5 2002.5,-80.5 2008.5,-74.5 2014.5,-74.5 2014.5,-74.5 2131.5,-74.5 2131.5,-74.5 2137.5,-74.5 2143.5,-80.5 2143.5,-86.5 2143.5,-86.5 2143.5,-98.5 2143.5,-98.5 2143.5,-104.5 2137.5,-110.5 2131.5,-110.5"/>
<text text-anchor="middle" x="2073" y="-90" font-family="sans" font-size="10.00" fill="#000000">qualimap_transcriptomes</text>
</g>
<!-- 48&#45;&gt;52 -->
<g id="edge77" class="edge">
<title>48&#45;&gt;52</title>
<path fill="none" stroke="#c0c0c0" stroke-width="2" d="M2035.1036,-148.9656C2041.1391,-139.9728 2048.5555,-128.9223 2055.2223,-118.9887"/>
<polygon fill="#c0c0c0" stroke="#c0c0c0" stroke-width="2" points="2058.168,-120.8803 2060.8346,-110.6265 2052.3557,-116.9794 2058.168,-120.8803"/>
</g>
<!-- 48&#45;&gt;54 -->
<g id="edge81" class="edge">
<title>48&#45;&gt;54</title>
<path fill="none" stroke="#c0c0c0" stroke-width="2" d="M1988.3837,-148.9656C1968.9428,-138.8373 1944.492,-126.099 1923.7365,-115.2858"/>
<polygon fill="#c0c0c0" stroke="#c0c0c0" stroke-width="2" points="1925.2789,-112.1429 1914.7932,-110.6265 1922.0446,-118.3509 1925.2789,-112.1429"/>
</g>
<!-- 49&#45;&gt;0 -->
<g id="edge24" class="edge">
<title>49&#45;&gt;0</title>
<path fill="none" stroke="#c0c0c0" stroke-width="2" d="M2309.6804,-150.9272C2325.4847,-142.2011 2342.1133,-129.7203 2351,-113 2359.5521,-96.9093 2363.4545,-85.3017 2351,-72 2323.893,-43.0491 1725.0614,-23.6466 1568.2892,-19.0509"/>
<polygon fill="#c0c0c0" stroke="#c0c0c0" stroke-width="2" points="1568.2927,-15.5496 1558.1952,-18.7576 1568.0893,-22.5467 1568.2927,-15.5496"/>
</g>
<!-- 53 -->
<g id="node54" class="node">
<title>53</title>
<path fill="none" stroke="#d89c56" stroke-width="2" d="M2329.5,-110.5C2329.5,-110.5 2212.5,-110.5 2212.5,-110.5 2206.5,-110.5 2200.5,-104.5 2200.5,-98.5 2200.5,-98.5 2200.5,-86.5 2200.5,-86.5 2200.5,-80.5 2206.5,-74.5 2212.5,-74.5 2212.5,-74.5 2329.5,-74.5 2329.5,-74.5 2335.5,-74.5 2341.5,-80.5 2341.5,-86.5 2341.5,-86.5 2341.5,-98.5 2341.5,-98.5 2341.5,-104.5 2335.5,-110.5 2329.5,-110.5"/>
<text text-anchor="middle" x="2271" y="-90" font-family="sans" font-size="10.00" fill="#000000">qualimap_transcriptomes</text>
</g>
<!-- 49&#45;&gt;53 -->
<g id="edge78" class="edge">
<title>49&#45;&gt;53</title>
<path fill="none" stroke="#c0c0c0" stroke-width="2" d="M2271,-148.9656C2271,-140.5178 2271,-130.2542 2271,-120.8064"/>
<polygon fill="#c0c0c0" stroke="#c0c0c0" stroke-width="2" points="2274.5001,-120.6265 2271,-110.6265 2267.5001,-120.6265 2274.5001,-120.6265"/>
</g>
<!-- 49&#45;&gt;54 -->
<g id="edge82" class="edge">
<title>49&#45;&gt;54</title>
<path fill="none" stroke="#c0c0c0" stroke-width="2" d="M2232.4393,-159.6528C2168.382,-147.4475 2038.8969,-122.7757 1955.9724,-106.9756"/>
<polygon fill="#c0c0c0" stroke="#c0c0c0" stroke-width="2" points="1956.5764,-103.5277 1946.098,-105.0941 1955.2661,-110.404 1956.5764,-103.5277"/>
</g>
<!-- 50&#45;&gt;0 -->
<g id="edge26" class="edge">
<title>50&#45;&gt;0</title>
<path fill="none" stroke="#c0c0c0" stroke-width="2" d="M1355.1607,-74.4656C1398.186,-60.6493 1456.3357,-41.9762 1493.7603,-29.9584"/>
<polygon fill="#c0c0c0" stroke="#c0c0c0" stroke-width="2" points="1495.2855,-33.1448 1503.7366,-26.7549 1493.1453,-26.48 1495.2855,-33.1448"/>
</g>
<!-- 51&#45;&gt;0 -->
<g id="edge27" class="edge">
<title>51&#45;&gt;0</title>
<path fill="none" stroke="#c0c0c0" stroke-width="2" d="M1620.4355,-74.4656C1604.2883,-64.271 1583.953,-51.4322 1566.7544,-40.5738"/>
<polygon fill="#c0c0c0" stroke="#c0c0c0" stroke-width="2" points="1568.4097,-37.4797 1558.0855,-35.1006 1564.6727,-43.3987 1568.4097,-37.4797"/>
</g>
<!-- 52&#45;&gt;0 -->
<g id="edge28" class="edge">
<title>52&#45;&gt;0</title>
<path fill="none" stroke="#c0c0c0" stroke-width="2" d="M2002.1721,-74.7507C1997.3889,-73.7582 1992.6322,-72.8292 1988,-72 1833.4625,-44.3358 1646.8995,-27.3242 1568.5335,-20.9114"/>
<polygon fill="#c0c0c0" stroke="#c0c0c0" stroke-width="2" points="1568.4579,-17.394 1558.2084,-20.0769 1567.8939,-24.3712 1568.4579,-17.394"/>
</g>
<!-- 53&#45;&gt;0 -->
<g id="edge29" class="edge">
<title>53&#45;&gt;0</title>
<path fill="none" stroke="#c0c0c0" stroke-width="2" d="M2200.2044,-74.5606C2195.4134,-73.614 2190.6461,-72.7472 2186,-72 1952.8534,-34.5048 1668.5889,-22.3419 1568.2338,-19.0578"/>
<polygon fill="#c0c0c0" stroke="#c0c0c0" stroke-width="2" points="1568.1137,-15.5523 1558.0077,-18.7334 1567.8916,-22.5488 1568.1137,-15.5523"/>
</g>
<!-- 54&#45;&gt;0 -->
<g id="edge30" class="edge">
<title>54&#45;&gt;0</title>
<path fill="none" stroke="#c0c0c0" stroke-width="2" d="M1813.7113,-75.2267C1809.0776,-74.1076 1804.4729,-73.0213 1800,-72 1717.672,-53.2021 1620.3626,-34.5423 1568.3055,-24.8447"/>
<polygon fill="#c0c0c0" stroke="#c0c0c0" stroke-width="2" points="1568.6812,-21.3547 1558.2103,-22.9709 1567.4036,-28.2372 1568.6812,-21.3547"/>
</g>
</g>
</svg>
